<svg width="120" height="41" viewBox="0 0 120 41" fill="none" xmlns="http://www.w3.org/2000/svg">
<g clip-path="url(#clip0_1_116)">
<path fill-rule="evenodd" clip-rule="evenodd" d="M35.5027 30.5344C32.526 32.5537 29.0058 33.6266 25.4057 33.612C20.8484 33.6389 16.4455 31.9674 13.06 28.9253C12.8043 28.6967 13.06 28.3801 13.3422 28.556C17.1013 30.6992 21.3576 31.8239 25.6878 31.8182C28.9202 31.8027 32.1176 31.1513 35.097 29.9013C35.5732 29.7342 35.9612 30.2003 35.5027 30.5344Z" fill="#54565A"/>
<path fill-rule="evenodd" clip-rule="evenodd" d="M36.6406 29.2418C36.2967 28.7933 34.339 29.0307 33.4572 29.1363C33.1838 29.1363 33.1486 28.934 33.3867 28.767C34.9475 27.6766 37.5136 27.9932 37.7958 28.3537C38.078 28.7142 37.7253 31.2906 36.2526 32.5128C36.0322 32.6975 35.8205 32.6008 35.9175 32.3458C36.2526 31.4928 37.0375 29.7342 36.6406 29.2418Z" fill="#54565A"/>
<path fill-rule="evenodd" clip-rule="evenodd" d="M33.5095 21.0376V19.9737C33.5083 19.9383 33.5143 19.903 33.5271 19.87C33.5398 19.837 33.5591 19.8069 33.5838 19.7814C33.6085 19.756 33.6381 19.7358 33.6707 19.722C33.7034 19.7082 33.7386 19.7011 33.7741 19.7011H38.5624C38.5979 19.6999 38.6332 19.7058 38.6664 19.7186C38.6995 19.7313 38.7297 19.7505 38.7552 19.7752C38.7807 19.7998 38.801 19.8293 38.8148 19.8618C38.8287 19.8944 38.8358 19.9295 38.8358 19.9649V20.8442C38.8358 21.0025 38.7035 21.1959 38.4742 21.5125L35.9963 25.0297C36.9408 24.9826 37.881 25.1859 38.7212 25.6189C38.7978 25.6577 38.8622 25.7167 38.9073 25.7897C38.9524 25.8626 38.9765 25.9465 38.9769 26.0321V27.1665C38.9769 27.3247 38.8093 27.5094 38.6241 27.4127C37.8434 27.0095 36.977 26.799 36.0977 26.799C35.2184 26.799 34.352 27.0095 33.5712 27.4127C33.4125 27.5006 33.2361 27.3247 33.2361 27.1665V26.1377C33.219 25.8821 33.2806 25.6275 33.4125 25.4078L36.2785 21.3014H33.7917C33.7555 21.3038 33.7192 21.2988 33.685 21.2866C33.6509 21.2745 33.6196 21.2554 33.5931 21.2307C33.5667 21.2059 33.5456 21.176 33.5312 21.1428C33.5168 21.1096 33.5094 21.0738 33.5095 21.0376Z" fill="#54565A"/>
<path fill-rule="evenodd" clip-rule="evenodd" d="M16.0757 27.6766H14.6207C14.5546 27.6729 14.492 27.6463 14.4436 27.6013C14.3953 27.5563 14.3643 27.4958 14.3561 27.4304V19.9914C14.3584 19.9183 14.3892 19.8489 14.4418 19.798C14.4945 19.7472 14.565 19.7187 14.6383 19.7188H15.9964C16.0644 19.7208 16.1292 19.7481 16.1781 19.7952C16.227 19.8424 16.2565 19.9061 16.2609 19.9738V20.941C16.3885 20.5382 16.6416 20.1864 16.9833 19.9368C17.325 19.6871 17.7376 19.5525 18.1613 19.5525C18.5849 19.5525 18.9975 19.6871 19.3392 19.9368C19.6809 20.1864 19.934 20.5382 20.0616 20.941C20.1903 20.574 20.4169 20.2489 20.7171 20.0008C21.0174 19.7527 21.3798 19.591 21.7654 19.5331C22.151 19.4752 22.5451 19.5233 22.9053 19.6722C23.2654 19.8212 23.5781 20.0653 23.8094 20.3783C24.1563 21.0997 24.2762 21.909 24.1533 22.6996V27.404C24.1533 27.4394 24.1462 27.4744 24.1324 27.507C24.1185 27.5396 24.0983 27.5691 24.0727 27.5937C24.0472 27.6183 24.017 27.6375 23.9839 27.6503C23.9508 27.663 23.9154 27.6689 23.88 27.6678H22.4161C22.3466 27.6656 22.2806 27.6371 22.2315 27.5881C22.1823 27.5391 22.1538 27.4732 22.1516 27.404V23.4646C22.1826 22.9991 22.1826 22.5321 22.1516 22.0665C22.1365 21.9664 22.1017 21.8702 22.0491 21.7836C21.9965 21.6969 21.9272 21.6216 21.8452 21.5618C21.7631 21.5021 21.67 21.4593 21.5712 21.4357C21.4725 21.4122 21.37 21.4084 21.2697 21.4246C21.0782 21.4289 20.8923 21.4897 20.7353 21.5992C20.5784 21.7088 20.4575 21.8622 20.3879 22.0402C20.2767 22.5063 20.2409 22.9872 20.2821 23.4646V27.4128C20.2809 27.4486 20.2727 27.4838 20.2579 27.5164C20.2431 27.5491 20.222 27.5785 20.1958 27.603C20.1696 27.6275 20.1388 27.6466 20.1052 27.6592C20.0716 27.6718 20.0358 27.6777 19.9999 27.6766H18.5184C18.4489 27.6744 18.3829 27.6459 18.3338 27.5969C18.2846 27.5479 18.2561 27.482 18.2538 27.4128V23.4646C18.2538 22.6381 18.3949 21.4158 17.372 21.4158C16.3491 21.4158 16.3667 22.6029 16.3667 23.4646V27.4128C16.3656 27.4493 16.3571 27.4853 16.3418 27.5186C16.3264 27.5518 16.3045 27.5816 16.2774 27.6062C16.2502 27.6309 16.2184 27.6498 16.1837 27.6619C16.1491 27.6739 16.1123 27.6789 16.0757 27.6766Z" fill="#54565A"/>
<path fill-rule="evenodd" clip-rule="evenodd" d="M42.9629 19.5605C45.1234 19.5605 46.2874 21.4159 46.2874 23.7637C46.2874 26.1114 44.9734 27.8349 42.9629 27.8349C40.9523 27.8349 39.6824 25.9883 39.6824 23.6845C39.6824 21.3807 40.8553 19.5605 42.9629 19.5605ZM42.9629 21.0818C41.8958 21.0818 41.8253 22.5414 41.8253 23.4471C41.8253 24.3528 41.8253 26.2961 42.954 26.2961C44.0828 26.2961 44.1357 24.7309 44.1357 23.7813C44.1615 23.1208 44.0902 22.4602 43.9241 21.8204C43.8892 21.5996 43.7713 21.4004 43.5944 21.2632C43.4175 21.126 43.1948 21.0612 42.9717 21.0818H42.9629Z" fill="#54565A"/>
<path fill-rule="evenodd" clip-rule="evenodd" d="M49.0827 27.6765H47.6188C47.5509 27.6722 47.4871 27.6427 47.4398 27.5939C47.3925 27.5452 47.3652 27.4805 47.3631 27.4127V19.9649C47.3717 19.8965 47.4052 19.8337 47.4573 19.7883C47.5093 19.7429 47.5762 19.7182 47.6453 19.7187H48.9945C49.054 19.7224 49.1108 19.7449 49.1568 19.7828C49.2027 19.8207 49.2354 19.8721 49.2502 19.9298V21.0641C49.3603 20.6259 49.6168 20.2382 49.9775 19.9649C50.3382 19.6915 50.7815 19.5489 51.2343 19.5604C51.5704 19.5457 51.9044 19.6192 52.2031 19.7735C52.5017 19.9278 52.7545 20.1575 52.9363 20.4398C53.2552 21.1698 53.3856 21.9679 53.3155 22.7611V27.4479C53.303 27.513 53.2679 27.5717 53.2162 27.6136C53.1646 27.6554 53.0998 27.6777 53.0333 27.6765H51.6135C51.5501 27.6737 51.4894 27.6495 51.4414 27.608C51.3934 27.5666 51.3608 27.5101 51.349 27.4479V23.403C51.349 22.5853 51.446 21.3982 50.4672 21.3982C50.2768 21.3976 50.0908 21.4543 49.9334 21.561C49.776 21.6678 49.6547 21.8194 49.5853 21.9961C49.4159 22.4448 49.3467 22.9249 49.3825 23.403V27.4127C49.3803 27.4497 49.3707 27.4859 49.3544 27.5192C49.3381 27.5524 49.3154 27.5822 49.2875 27.6067C49.2597 27.6312 49.2272 27.65 49.1921 27.662C49.1569 27.674 49.1197 27.6789 49.0827 27.6765Z" fill="#54565A"/>
<path fill-rule="evenodd" clip-rule="evenodd" d="M29.7003 24.124C29.7562 24.6515 29.6646 25.184 29.4358 25.6628C29.3406 25.8526 29.1965 26.0136 29.0183 26.1295C28.8401 26.2454 28.6342 26.312 28.4217 26.3223C27.8661 26.3223 27.5399 25.9002 27.5399 25.2671C27.5399 24.0361 28.651 23.8075 29.7003 23.8075V24.124ZM31.173 27.6413C31.1231 27.6777 31.0629 27.6973 31.001 27.6973C30.9392 27.6973 30.879 27.6777 30.8291 27.6413C30.4792 27.3744 30.1804 27.0467 29.9473 26.674C29.66 27.0269 29.2927 27.3067 28.8756 27.4901C28.4586 27.6736 28.0037 27.7555 27.5487 27.7292C27.2503 27.7473 26.9515 27.7004 26.673 27.592C26.3946 27.4836 26.143 27.3161 25.9359 27.1012C25.7287 26.8863 25.5709 26.629 25.4733 26.3473C25.3757 26.0655 25.3406 25.766 25.3705 25.4694C25.355 24.9629 25.4954 24.4639 25.7729 24.0394C26.0504 23.6149 26.4516 23.2854 26.9226 23.0952C27.807 22.806 28.7265 22.6374 29.6563 22.594V22.4093C29.7088 22.0479 29.6471 21.6791 29.4799 21.3542C29.3851 21.2308 29.2618 21.132 29.1206 21.0662C28.9794 21.0004 28.8243 20.9694 28.6686 20.9761C28.3993 20.9555 28.1318 21.0334 27.9159 21.1952C27.7001 21.357 27.5507 21.5917 27.4958 21.8554C27.4881 21.9208 27.4603 21.9822 27.416 22.031C27.3718 22.0799 27.3133 22.1138 27.2488 22.128L25.8379 21.9697C25.8033 21.9655 25.77 21.9542 25.7399 21.9367C25.7098 21.9191 25.6836 21.8956 25.663 21.8676C25.6423 21.8396 25.6276 21.8077 25.6198 21.7739C25.612 21.74 25.6112 21.7049 25.6175 21.6707C25.9437 19.9649 27.4869 19.4461 28.8714 19.4461C29.6633 19.4189 30.4388 19.6746 31.0584 20.1671C31.7727 20.8266 31.7021 21.7059 31.7021 22.6643V24.9242C31.7077 25.4253 31.903 25.9059 32.2488 26.2695C32.2744 26.2949 32.2948 26.325 32.3086 26.3582C32.3225 26.3914 32.3296 26.427 32.3296 26.463C32.3296 26.499 32.3225 26.5346 32.3086 26.5678C32.2948 26.601 32.2744 26.6311 32.2488 26.6564C31.949 26.9026 31.4199 27.3599 31.1289 27.6149L31.173 27.6413Z" fill="#54565A"/>
<path fill-rule="evenodd" clip-rule="evenodd" d="M10.6355 24.1242C10.6882 24.6524 10.5936 25.1849 10.3622 25.663C10.2685 25.852 10.1259 26.0128 9.94924 26.1287C9.77256 26.2446 9.56809 26.3115 9.35688 26.3225C8.80133 26.3225 8.47505 25.9004 8.47505 25.2673C8.47505 24.0362 9.58616 23.8076 10.6355 23.8076V24.1242ZM12.0994 27.6414C12.0495 27.6779 11.9893 27.6975 11.9274 27.6975C11.8656 27.6975 11.8054 27.6779 11.7555 27.6414C11.4237 27.3707 11.143 27.0432 10.9265 26.6742C10.6379 27.0255 10.2703 27.304 9.8536 27.4873C9.43689 27.6706 8.98276 27.7536 8.52796 27.7294C8.2344 27.7465 7.94058 27.7008 7.66616 27.5954C7.39174 27.4901 7.14308 27.3275 6.93683 27.1185C6.73058 26.9095 6.5715 26.6589 6.47026 26.3837C6.36903 26.1084 6.32796 25.8147 6.34983 25.5223C6.33441 25.0112 6.47896 24.508 6.7634 24.0825C7.04785 23.6571 7.45807 23.3305 7.93713 23.1481C8.82111 22.8573 9.7409 22.6886 10.6708 22.6469V22.4623C10.7162 22.1009 10.6549 21.7342 10.4944 21.4071C10.3978 21.2836 10.2729 21.1848 10.1303 21.119C9.98766 21.0533 9.83135 21.0224 9.67434 21.029C9.40575 21.0067 9.13838 21.0842 8.92355 21.2465C8.70872 21.4088 8.56156 21.6445 8.51032 21.9083C8.50216 21.9749 8.473 22.0372 8.42704 22.0862C8.38107 22.1352 8.32068 22.1683 8.25459 22.1809L6.84366 22.0226C6.80985 22.0173 6.77745 22.0053 6.74838 21.9873C6.71931 21.9693 6.69417 21.9456 6.67443 21.9178C6.65469 21.8899 6.64077 21.8583 6.63349 21.825C6.6262 21.7916 6.6257 21.7572 6.63202 21.7236C6.94948 20.0178 8.49268 19.499 9.87716 19.499C10.6719 19.4704 11.4507 19.7262 12.0729 20.22C12.7784 20.8795 12.7079 21.7588 12.7079 22.7173V24.9771C12.7085 25.4717 12.894 25.9482 13.2281 26.3137C13.3163 26.4456 13.3428 26.6038 13.2281 26.7006C12.9283 26.9468 12.408 27.404 12.117 27.659L12.0994 27.6414Z" fill="#54565A"/>
<path d="M59.251 27.7645C58.9294 27.783 58.6074 27.7364 58.3043 27.6276C58.0013 27.5188 57.7234 27.35 57.4874 27.1314C57.2681 26.9168 57.096 26.6589 56.9821 26.3743C56.8683 26.0897 56.8151 25.7845 56.826 25.4783C56.8167 25.1419 56.8859 24.8078 57.0282 24.5026C57.1706 24.1974 57.3821 23.9294 57.6461 23.7197C58.2687 23.2445 59.0414 23.0075 59.8242 23.0514C60.4192 23.056 61.0115 23.1328 61.5879 23.28V22.4007C61.6089 22.2085 61.59 22.0141 61.5324 21.8295C61.4747 21.645 61.3796 21.4742 61.2528 21.3279C60.9307 21.0702 60.5281 20.9332 60.1152 20.9411C59.7429 20.9457 59.3715 20.978 59.0041 21.0378C58.6134 21.1067 58.2275 21.2007 57.8489 21.3192C57.7669 21.3487 57.6803 21.3636 57.5932 21.3631C57.4609 21.3631 57.3992 21.2752 57.3992 21.0817V20.519C57.3881 20.4153 57.4096 20.3108 57.4609 20.22C57.5448 20.1233 57.6551 20.0531 57.7784 20.0178C58.6245 19.7044 59.5213 19.5494 60.4239 19.5605C61.2045 19.4993 61.9819 19.7141 62.6196 20.1673C62.8699 20.4127 63.0629 20.7102 63.1848 21.0385C63.3067 21.3667 63.3546 21.7178 63.3251 22.0666V27.1666C63.3328 27.2122 63.3294 27.2589 63.3153 27.303C63.3011 27.347 63.2766 27.387 63.2439 27.4197C63.2111 27.4524 63.1709 27.4768 63.1268 27.4909C63.0826 27.505 63.0357 27.5084 62.99 27.5007H62.1699C62.1245 27.5082 62.0781 27.5062 62.0335 27.495C61.9889 27.4837 61.9471 27.4635 61.9107 27.4354C61.8743 27.4074 61.844 27.3721 61.8219 27.332C61.7997 27.2918 61.7861 27.2474 61.7819 27.2018L61.7113 26.7621C61.3579 27.0607 60.959 27.3011 60.5297 27.4744C60.1254 27.6499 59.6917 27.7483 59.251 27.7645ZM59.7537 26.4895C60.056 26.4787 60.3543 26.4162 60.6355 26.3049C60.971 26.1655 61.2879 25.9854 61.5791 25.7685V24.3088C61.1093 24.2081 60.6309 24.1522 60.1505 24.1418C59.0923 24.1418 58.5632 24.555 58.5632 25.3728C58.5557 25.5242 58.5791 25.6756 58.6322 25.8177C58.6853 25.9598 58.7668 26.0897 58.8718 26.1993C58.9907 26.3059 59.1304 26.3867 59.2822 26.4367C59.434 26.4866 59.5945 26.5046 59.7537 26.4895Z" fill="#54565A"/>
<path d="M65.2558 30.6575C65.2101 30.6651 65.1632 30.6617 65.1191 30.6476C65.0749 30.6336 65.0348 30.6091 65.002 30.5765C64.9692 30.5438 64.9447 30.5037 64.9306 30.4597C64.9165 30.4157 64.9131 30.3689 64.9208 30.3233V20.1585C64.9131 20.1129 64.9165 20.0661 64.9306 20.0221C64.9447 19.978 64.9692 19.938 65.002 19.9053C65.0348 19.8726 65.0749 19.8482 65.1191 19.8341C65.1632 19.82 65.2101 19.8167 65.2558 19.8243H66.0848C66.1311 19.8182 66.1783 19.8213 66.2234 19.8335C66.2686 19.8457 66.3109 19.8667 66.3478 19.8953C66.3847 19.924 66.4156 19.9597 66.4386 20.0003C66.4615 20.0409 66.4762 20.0857 66.4816 20.1321L66.5786 20.5981C66.9189 20.2798 67.3169 20.0291 67.7514 19.8595C68.1795 19.6842 68.6379 19.5945 69.1006 19.5957C69.5475 19.5743 69.9929 19.6616 70.3985 19.85C70.8041 20.0384 71.1576 20.3223 71.4287 20.6772C72.0483 21.5114 72.3598 22.5333 72.3105 23.5702C72.3263 24.3245 72.182 25.0736 71.8872 25.7685C71.6484 26.3471 71.2473 26.8447 70.732 27.2018C70.2287 27.5368 69.6352 27.7115 69.0301 27.703C68.6086 27.705 68.1903 27.6305 67.7955 27.4831C67.4155 27.3452 67.0654 27.1363 66.7638 26.8676V30.3233C66.7695 30.3686 66.7648 30.4145 66.75 30.4577C66.7352 30.5008 66.7107 30.54 66.6783 30.5723C66.646 30.6045 66.6067 30.629 66.5634 30.6437C66.5201 30.6585 66.4741 30.6632 66.4287 30.6575H65.2558ZM68.5186 26.2609C68.7958 26.2806 69.0735 26.2306 69.3262 26.1153C69.5789 26.0001 69.7985 25.8234 69.9648 25.6014C70.3176 24.9945 70.4804 24.2964 70.4322 23.5966C70.4837 22.906 70.3238 22.2161 69.9736 21.6181C69.8068 21.4001 69.5878 21.2271 69.3368 21.115C69.0857 21.0029 68.8105 20.9552 68.5363 20.9762C67.8833 20.975 67.2459 21.1746 66.7109 21.5478V25.6717C67.2342 26.0613 67.8658 26.2794 68.5186 26.2961V26.2609Z" fill="#54565A"/>
<path d="M73.8806 30.6573C73.8352 30.6631 73.7892 30.6584 73.7459 30.6436C73.7026 30.6288 73.6633 30.6044 73.631 30.5721C73.5986 30.5399 73.5741 30.5007 73.5593 30.4576C73.5445 30.4144 73.5398 30.3684 73.5455 30.3232V20.1583C73.5398 20.1131 73.5445 20.0671 73.5593 20.024C73.5741 19.9808 73.5986 19.9416 73.631 19.9094C73.6633 19.8771 73.7026 19.8527 73.7459 19.8379C73.7892 19.8232 73.8352 19.8185 73.8806 19.8242H74.7625C74.8557 19.8141 74.9492 19.8406 75.0233 19.898C75.0973 19.9555 75.1461 20.0393 75.1593 20.132L75.2475 20.598C75.5909 20.2794 75.9919 20.0287 76.4291 19.8594C76.8539 19.6834 77.3096 19.5937 77.7695 19.5956C78.2117 19.5807 78.6511 19.671 79.0513 19.8591C79.4516 20.0472 79.8011 20.3276 80.0711 20.6771C80.6907 21.5112 81.0022 22.5332 80.9529 23.5701C80.9671 24.3234 80.8261 25.0716 80.5385 25.7684C80.2934 26.3458 79.89 26.8426 79.3745 27.2016C78.8721 27.5387 78.2779 27.7137 77.6725 27.7029C77.2538 27.7056 76.8383 27.631 76.4468 27.483C76.0651 27.343 75.7124 27.1344 75.4062 26.8675V30.3232C75.4135 30.368 75.4102 30.4138 75.3965 30.457C75.3828 30.5003 75.3592 30.5397 75.3275 30.5722C75.2957 30.6047 75.2568 30.6293 75.2138 30.6441C75.1708 30.6589 75.125 30.6634 75.0799 30.6573H73.8806ZM77.1522 26.2608C77.4281 26.2806 77.7046 26.2306 77.9559 26.1153C78.2073 26 78.4252 25.8232 78.5896 25.6013C78.9501 24.9973 79.1163 24.2976 79.0658 23.5965C79.1147 22.905 78.9517 22.215 78.5984 21.618C78.4321 21.3993 78.2133 21.2259 77.9621 21.1138C77.7109 21.0016 77.4354 20.9542 77.161 20.9761C76.5085 20.9777 75.8719 21.177 75.3356 21.5477V25.6716C75.8622 26.0613 76.4967 26.2794 77.1522 26.2959V26.2608Z" fill="#54565A"/>
<path d="M84.2422 27.7646C83.4802 27.7738 82.7233 27.6396 82.0112 27.3689C81.8942 27.3346 81.7879 27.2711 81.7025 27.1842C81.6456 27.0858 81.6209 26.972 81.632 26.8589V26.3137C81.632 26.1115 81.7025 26.006 81.8436 26.006C81.987 26.0232 82.1286 26.0526 82.2669 26.0939C82.8995 26.2842 83.5551 26.3877 84.2158 26.4017C84.5985 26.4305 84.9814 26.348 85.318 26.1642C85.4353 26.0857 85.5296 25.9776 85.5916 25.851C85.6535 25.7244 85.6808 25.5837 85.6708 25.4432C85.6744 25.3441 85.6575 25.2453 85.621 25.153C85.5846 25.0607 85.5295 24.9769 85.4591 24.9068C85.2225 24.708 84.9502 24.5558 84.6567 24.4584L83.3956 23.9748C82.9186 23.8557 82.4939 23.584 82.1865 23.2012C81.8791 22.8185 81.706 22.3458 81.6937 21.8556C81.6811 21.5327 81.7467 21.2115 81.8848 20.9192C82.023 20.6269 82.2296 20.372 82.4874 20.1761C83.1018 19.7432 83.8433 19.5266 84.5949 19.5606C85.2432 19.5666 85.8864 19.6764 86.4997 19.8859C86.5592 19.8922 86.6168 19.9107 86.6688 19.9403C86.7208 19.9699 86.766 20.0099 86.8017 20.0578C86.8373 20.1058 86.8626 20.1606 86.8759 20.2188C86.8892 20.277 86.8902 20.3373 86.8789 20.3959V20.9411C86.886 21.021 86.8675 21.1011 86.826 21.1697C86.801 21.1952 86.7706 21.2148 86.737 21.227C86.7034 21.2391 86.6675 21.2436 86.632 21.2401C86.5036 21.2243 86.3768 21.1978 86.2528 21.1609C85.7567 21.033 85.2481 20.9593 84.736 20.9411C84.3801 20.9139 84.0234 20.9838 83.7043 21.1434C83.5976 21.2118 83.5112 21.3074 83.4539 21.4202C83.3965 21.533 83.3703 21.659 83.378 21.7853C83.3742 21.8868 83.3936 21.9879 83.4349 22.0809C83.4761 22.1738 83.5381 22.2562 83.6161 22.3216C83.8829 22.5191 84.181 22.6707 84.4979 22.7701L85.662 23.2273C86.1628 23.388 86.6148 23.6724 86.9759 24.0539C87.2551 24.4023 87.3991 24.8393 87.3815 25.2849C87.3902 25.6213 87.3206 25.9551 87.1783 26.2602C87.0361 26.5653 86.8249 26.8334 86.5614 27.0436C85.8984 27.5502 85.0765 27.8057 84.2422 27.7646Z" fill="#54565A"/>
<path d="M91.596 27.6415C91.2794 27.6679 90.9606 27.6319 90.658 27.5353C90.3554 27.4387 90.0748 27.2836 89.8324 27.0787C89.6171 26.846 89.4532 26.5708 89.3514 26.2708C89.2496 25.9709 89.2122 25.653 89.2415 25.3377V21.1873H88.2715C88.2258 21.195 88.1789 21.1916 88.1348 21.1775C88.0906 21.1634 88.0505 21.139 88.0177 21.1063C87.9849 21.0737 87.9604 21.0336 87.9463 20.9896C87.9321 20.9456 87.9288 20.8988 87.9364 20.8532V20.4223C87.9259 20.3219 87.9543 20.2212 88.0158 20.141C88.0779 20.0743 88.1629 20.0334 88.2539 20.0266L89.3033 19.8772L89.5326 18.0394C89.5315 17.9919 89.5404 17.9447 89.5586 17.9008C89.5768 17.8569 89.604 17.8173 89.6384 17.7844C89.7169 17.726 89.814 17.6978 89.9117 17.7053H90.7054C90.7505 17.6992 90.7963 17.7037 90.8393 17.7185C90.8823 17.7333 90.9212 17.7579 90.9529 17.7904C90.9847 17.8229 91.0083 17.8623 91.022 17.9056C91.0357 17.9488 91.039 17.9946 91.0317 18.0394V19.798H92.9012C92.9469 19.7904 92.9938 19.7938 93.0379 19.8078C93.0821 19.8219 93.1222 19.8463 93.155 19.879C93.1878 19.9117 93.2123 19.9517 93.2264 19.9958C93.2405 20.0398 93.2439 20.0866 93.2363 20.1322V20.8268C93.2439 20.8724 93.2405 20.9192 93.2264 20.9632C93.2123 21.0072 93.1878 21.0473 93.155 21.08C93.1222 21.1127 93.0821 21.1371 93.0379 21.1512C92.9938 21.1652 92.9469 21.1686 92.9012 21.161H91.0317V25.2498C91.0187 25.384 91.0349 25.5194 91.079 25.6468C91.1231 25.7742 91.1942 25.8907 91.2874 25.9884C91.5434 26.1692 91.8581 26.2477 92.1692 26.2082C92.3583 26.2107 92.5472 26.196 92.7336 26.1643C92.8507 26.1496 92.9692 26.1496 93.0863 26.1643C93.2539 26.1643 93.3421 26.261 93.3421 26.4456V26.9908C93.3544 27.1107 93.3265 27.2313 93.2627 27.3337C93.1767 27.4192 93.0654 27.4747 92.9453 27.492C92.5045 27.6034 92.0505 27.6537 91.596 27.6415Z" fill="#54565A"/>
<path d="M97.5138 27.7646C97.004 27.7936 96.494 27.7119 96.0189 27.5252C95.5439 27.3385 95.1152 27.0511 94.7624 26.683C94.061 25.8427 93.7078 24.767 93.7748 23.6758C93.7055 22.5869 94.0592 21.5132 94.7624 20.6773C95.5074 19.9825 96.4893 19.5959 97.5093 19.5959C98.5294 19.5959 99.5113 19.9825 100.256 20.6773C100.96 21.5132 101.313 22.5869 101.244 23.6758C101.311 24.767 100.958 25.8427 100.256 26.683C99.9045 27.05 99.4772 27.3366 99.0038 27.5233C98.5304 27.71 98.0221 27.7923 97.5138 27.7646ZM97.5138 26.3577C98.7836 26.3577 99.4273 25.4784 99.4273 23.6758C99.4273 21.8732 98.7836 21.0378 97.5138 21.0378C96.2439 21.0378 95.6002 21.9171 95.6002 23.6758C95.6002 25.4344 96.2351 26.3577 97.5138 26.3577Z" fill="#54565A"/>
<path d="M102.856 27.5358C102.811 27.5434 102.764 27.5401 102.72 27.526C102.675 27.5119 102.635 27.4875 102.603 27.4548C102.57 27.4221 102.545 27.3821 102.531 27.338C102.517 27.294 102.514 27.2472 102.521 27.2016V20.1671C102.516 20.1219 102.52 20.0759 102.535 20.0328C102.55 19.9896 102.574 19.9504 102.607 19.9182C102.639 19.8859 102.678 19.8615 102.722 19.8467C102.765 19.832 102.811 19.8273 102.856 19.833H103.659C103.762 19.8277 103.866 19.8489 103.959 19.8945C104.021 19.956 104.061 20.0364 104.073 20.1232L104.25 21.0025C104.575 20.6254 104.962 20.3071 105.396 20.0616C105.751 19.8817 106.144 19.7883 106.542 19.789H106.604C106.715 19.7869 106.825 19.8017 106.93 19.833C107.005 19.8511 107.07 19.8947 107.116 19.9561C107.159 20.062 107.177 20.1763 107.169 20.2902V21.108C107.169 21.319 107.08 21.4245 106.895 21.4245H106.648H106.304C105.598 21.4116 104.903 21.6108 104.311 21.9961V27.272C104.319 27.3176 104.316 27.3643 104.302 27.4084C104.287 27.4524 104.263 27.4924 104.23 27.5251C104.197 27.5578 104.157 27.5822 104.113 27.5963C104.069 27.6104 104.022 27.6138 103.976 27.6061L102.856 27.5358Z" fill="#54565A"/>
<path d="M111.463 27.7645C110.935 27.8016 110.404 27.7294 109.905 27.5524C109.406 27.3753 108.948 27.0973 108.562 26.7357C107.858 25.9008 107.507 24.8255 107.583 23.7373C107.513 22.6378 107.859 21.552 108.553 20.6948C108.887 20.3299 109.297 20.0423 109.754 19.8524C110.211 19.6625 110.704 19.5749 111.199 19.5957C111.617 19.5683 112.036 19.6267 112.43 19.7674C112.825 19.908 113.186 20.1279 113.491 20.4135C113.77 20.7243 113.984 21.0873 114.12 21.4814C114.256 21.8754 114.312 22.2925 114.285 22.7085C114.284 23.0675 114.257 23.4259 114.206 23.7812C114.203 23.8789 114.165 23.9723 114.1 24.045C114.036 24.0919 113.959 24.1166 113.879 24.1154H109.197C109.184 24.4256 109.235 24.7351 109.345 25.0253C109.456 25.3155 109.624 25.5803 109.841 25.8037C110.371 26.2038 111.03 26.3948 111.693 26.34C112.341 26.3333 112.985 26.2356 113.606 26.0499H113.782H113.888C114.047 26.0499 114.118 26.1554 114.118 26.3576V26.9028C114.129 27.0159 114.104 27.1297 114.047 27.2281C113.964 27.3181 113.857 27.3822 113.738 27.4128C113.009 27.6713 112.237 27.7906 111.463 27.7645ZM112.742 22.9195V22.7964C112.778 22.2944 112.634 21.7959 112.336 21.3895C112.191 21.2242 112.01 21.0946 111.807 21.0107C111.603 20.9268 111.383 20.8909 111.163 20.9059C110.914 20.897 110.666 20.941 110.435 21.035C110.204 21.129 109.995 21.2708 109.823 21.451C109.462 21.8576 109.253 22.3766 109.232 22.9195H112.742Z" fill="#54565A"/>
<path d="M41.8076 15.0847C41.4835 15.098 41.1671 14.9844 40.9258 14.7682C40.8076 14.6584 40.7143 14.5247 40.6519 14.3762C40.5896 14.2276 40.5597 14.0675 40.5642 13.9065C40.5643 13.7385 40.6015 13.5727 40.6731 13.4207C40.7447 13.2687 40.8491 13.1344 40.9787 13.0272C41.2961 12.7842 41.6902 12.6626 42.0898 12.6842C42.4289 12.6895 42.7662 12.7337 43.0951 12.8161V12.2973C43.1049 12.1898 43.0928 12.0813 43.0594 11.9786C43.0261 11.8758 42.9722 11.7808 42.9011 11.6994C42.707 11.5605 42.4684 11.4979 42.2309 11.5235C41.8694 11.5237 41.5098 11.577 41.1639 11.6818L40.9346 11.7346C40.8729 11.7346 40.8376 11.6906 40.8376 11.5939V11.3828C40.8214 11.3313 40.8214 11.2761 40.8376 11.2246C40.8713 11.1881 40.9138 11.1608 40.9611 11.1454C41.1604 11.0558 41.371 10.9937 41.5872 10.9608C41.8347 10.9185 42.0855 10.8979 42.3367 10.8992C42.7319 10.8682 43.1253 10.9772 43.4478 11.207C43.5729 11.3316 43.6693 11.4819 43.7302 11.6474C43.7911 11.8129 43.8151 11.9897 43.8006 12.1654V14.7858C43.8035 14.8072 43.8014 14.8291 43.7944 14.8496C43.7875 14.8702 43.7759 14.8888 43.7605 14.9041C43.7451 14.9194 43.7264 14.931 43.7059 14.9379C43.6853 14.9449 43.6634 14.947 43.6418 14.9441H43.3067C43.2852 14.9465 43.2634 14.9445 43.2426 14.9382C43.2219 14.9319 43.2026 14.9214 43.1861 14.9074C43.1696 14.8934 43.1561 14.8761 43.1465 14.8567C43.1369 14.8373 43.1314 14.8162 43.1304 14.7946L43.0863 14.5396C42.9007 14.7002 42.6889 14.8281 42.4602 14.9177C42.2543 15.0116 42.0334 15.0682 41.8076 15.0847ZM41.9928 14.4956C42.1828 14.4931 42.3708 14.4574 42.5484 14.3901C42.7437 14.3164 42.9278 14.2158 43.0951 14.0911V13.2822C42.8067 13.2107 42.5105 13.1753 42.2133 13.1766C41.6136 13.1766 41.3314 13.4053 41.3314 13.8713C41.326 13.9542 41.3373 14.0374 41.3646 14.1159C41.3918 14.1944 41.4345 14.2667 41.4902 14.3285C41.5573 14.3904 41.6368 14.4372 41.7234 14.466C41.8101 14.4948 41.9019 14.5049 41.9928 14.4956Z" fill="#54565A"/>
<path d="M46.0141 14.9793C45.9589 14.9915 45.9017 14.9915 45.8466 14.9793C45.7969 14.9271 45.7606 14.8638 45.7407 14.7946L44.3386 11.2774C44.3386 11.2774 44.3386 11.207 44.3386 11.1807C44.3311 11.1518 44.3311 11.1216 44.3386 11.0927C44.3386 11.0224 44.3386 10.9872 44.4532 10.9872H44.9206C44.975 10.9691 45.0338 10.9691 45.0882 10.9872C45.1411 11.0333 45.1781 11.0948 45.194 11.1631L46.2787 14.2495L47.3633 11.1631C47.3863 11.0979 47.4223 11.0381 47.4691 10.9872C47.5237 10.9703 47.5821 10.9703 47.6367 10.9872H48.0776C48.157 10.9872 48.1922 10.9872 48.1922 11.0927C48.1956 11.1219 48.1956 11.1514 48.1922 11.1807C48.1873 11.2127 48.1873 11.2453 48.1922 11.2774L46.7901 14.7946C46.7895 14.8269 46.7817 14.8586 46.7674 14.8875C46.7532 14.9164 46.7327 14.9418 46.7074 14.962C46.6822 14.9821 46.6528 14.9964 46.6214 15.004C46.5899 15.0116 46.5572 15.0121 46.5256 15.0057L46.0141 14.9793Z" fill="#54565A"/>
<path d="M49.6914 15.0847C49.3678 15.0952 49.0523 14.982 48.8096 14.7682C48.7023 14.6529 48.6196 14.5171 48.5665 14.3689C48.5135 14.2208 48.4912 14.0635 48.501 13.9065C48.4956 13.742 48.5259 13.5782 48.5898 13.4265C48.6537 13.2747 48.7497 13.1385 48.8713 13.0272C49.1888 12.7842 49.5829 12.6626 49.9824 12.6842C50.3186 12.6902 50.6529 12.7344 50.9789 12.8161V12.2973C50.9909 12.1896 50.9798 12.0807 50.9463 11.9776C50.9129 11.8745 50.8579 11.7797 50.7849 11.6994C50.5936 11.5618 50.3582 11.4992 50.1235 11.5235C49.7619 11.523 49.4023 11.5764 49.0565 11.6818L48.8184 11.7346C48.7567 11.7346 48.7302 11.6906 48.7302 11.5939V11.3828C48.7188 11.3307 48.7188 11.2767 48.7302 11.2246C48.7678 11.1885 48.813 11.1615 48.8625 11.1454C49.0587 11.0557 49.2665 10.9936 49.4798 10.9608C49.7274 10.919 49.9782 10.8984 50.2294 10.8992C50.6245 10.8682 51.018 10.9772 51.3405 11.207C51.4696 11.3265 51.5711 11.4725 51.6381 11.6349C51.7051 11.7973 51.7359 11.9724 51.7285 12.1478V14.7858C51.7314 14.8072 51.7293 14.8291 51.7223 14.8496C51.7154 14.8702 51.7038 14.8888 51.6884 14.9041C51.6731 14.9194 51.6544 14.931 51.6338 14.9379C51.6132 14.9449 51.5913 14.947 51.5697 14.9441H51.2258C51.2043 14.9465 51.1824 14.9445 51.1617 14.9382C51.141 14.9319 51.1217 14.9214 51.1052 14.9074C51.0887 14.8934 51.0752 14.8761 51.0656 14.8567C51.056 14.8373 51.0505 14.8162 51.0495 14.7946V14.5396C50.8593 14.6984 50.645 14.826 50.4145 14.9177C50.1868 15.0201 49.9411 15.0769 49.6914 15.0847ZM49.8854 14.4956C50.0726 14.4938 50.2579 14.458 50.4322 14.3901C50.6284 14.3184 50.8128 14.2176 50.9789 14.0911V13.2822C50.6907 13.2094 50.3943 13.1739 50.0971 13.1766C49.4974 13.1766 49.2153 13.4053 49.2153 13.8713C49.2095 13.955 49.2214 14.0389 49.2502 14.1177C49.2791 14.1965 49.3243 14.2683 49.3828 14.3285C49.4499 14.3904 49.5294 14.4372 49.6161 14.466C49.7027 14.4948 49.7946 14.5049 49.8854 14.4956Z" fill="#54565A"/>
<path d="M53.201 10.2573C53.1349 10.2606 53.0689 10.2506 53.0068 10.2279C52.9447 10.2053 52.8878 10.1704 52.8394 10.1254C52.7539 10.0316 52.7065 9.9093 52.7065 9.78249C52.7065 9.65568 52.7539 9.53341 52.8394 9.43955C52.8878 9.39455 52.9447 9.35968 53.0068 9.33703C53.0689 9.31437 53.1349 9.30438 53.201 9.30766C53.2671 9.30333 53.3335 9.31283 53.3957 9.33555C53.458 9.35826 53.5148 9.39368 53.5625 9.43955C53.6481 9.53341 53.6954 9.65568 53.6954 9.78249C53.6954 9.9093 53.6481 10.0316 53.5625 10.1254C53.5148 10.1713 53.458 10.2067 53.3957 10.2294C53.3335 10.2521 53.2671 10.2616 53.201 10.2573ZM52.9629 14.9792C52.9414 14.9821 52.9194 14.98 52.8989 14.9731C52.8783 14.9662 52.8596 14.9546 52.8442 14.9393C52.8288 14.924 52.8172 14.9053 52.8103 14.8848C52.8033 14.8643 52.8012 14.8424 52.8042 14.821V11.1278C52.8012 11.1064 52.8033 11.0845 52.8103 11.064C52.8172 11.0435 52.8288 11.0248 52.8442 11.0095C52.8596 10.9942 52.8783 10.9826 52.8989 10.9757C52.9194 10.9687 52.9414 10.9667 52.9629 10.9696H53.4303C53.4518 10.9667 53.4737 10.9687 53.4943 10.9757C53.5149 10.9826 53.5336 10.9942 53.5489 11.0095C53.5643 11.0248 53.5759 11.0435 53.5829 11.064C53.5898 11.0845 53.5919 11.1064 53.589 11.1278V14.7858C53.5919 14.8073 53.5898 14.8291 53.5829 14.8496C53.5759 14.8702 53.5643 14.8888 53.5489 14.9041C53.5336 14.9194 53.5149 14.931 53.4943 14.9379C53.4737 14.9449 53.4518 14.947 53.4303 14.9441L52.9629 14.9792Z" fill="#54565A"/>
<path d="M55.5559 15.0233C55.4381 15.0286 55.3205 15.0104 55.2099 14.9696C55.0993 14.9288 54.9981 14.8663 54.9121 14.7859C54.7539 14.5901 54.6752 14.3421 54.6917 14.0912V9.28137C54.6888 9.2599 54.6909 9.23805 54.6978 9.21753C54.7048 9.197 54.7164 9.17835 54.7317 9.16303C54.7471 9.14771 54.7658 9.13614 54.7864 9.12921C54.807 9.12229 54.8289 9.12019 54.8504 9.1231H55.3178C55.3393 9.12019 55.3612 9.12229 55.3818 9.12921C55.4024 9.13614 55.4211 9.14771 55.4365 9.16303C55.4518 9.17835 55.4634 9.197 55.4704 9.21753C55.4773 9.23805 55.4794 9.2599 55.4765 9.28137V14.0385C55.4707 14.1345 55.4954 14.2298 55.5471 14.311C55.5822 14.3406 55.623 14.3629 55.6669 14.3765C55.7108 14.39 55.757 14.3947 55.8028 14.3902H55.988C56.0079 14.3884 56.0279 14.3915 56.0463 14.3992C56.0647 14.4068 56.081 14.4188 56.0938 14.4342C56.109 14.4708 56.109 14.5119 56.0938 14.5485V14.7859C56.1087 14.8256 56.1087 14.8693 56.0938 14.909C56.0635 14.9433 56.0236 14.9678 55.9792 14.9793C55.8399 15.008 55.6981 15.0227 55.5559 15.0233Z" fill="#54565A"/>
<path d="M57.8041 15.0847C57.4804 15.0952 57.165 14.982 56.9223 14.7682C56.8079 14.6531 56.7191 14.5153 56.6614 14.3639C56.6037 14.2125 56.5784 14.0506 56.5872 13.8889C56.5858 13.725 56.6207 13.5629 56.6893 13.4139C56.7579 13.265 56.8585 13.133 56.984 13.0272C57.3014 12.7842 57.6955 12.6626 58.0951 12.6842C58.4312 12.6902 58.7655 12.7344 59.0916 12.8161V12.2973C59.1035 12.1896 59.0924 12.0807 59.059 11.9776C59.0255 11.8745 58.9705 11.7797 58.8976 11.6994C58.7062 11.5618 58.4708 11.4992 58.2362 11.5235C57.8717 11.5231 57.5092 11.5764 57.1603 11.6818C57.0862 11.708 57.0092 11.7257 56.9311 11.7346C56.8693 11.7346 56.8341 11.6906 56.8341 11.5939V11.3828C56.822 11.3308 56.822 11.2766 56.8341 11.2246C56.8678 11.1881 56.9103 11.1608 56.9575 11.1454C57.1573 11.0571 57.3678 10.995 57.5836 10.9608C57.8313 10.919 58.082 10.8984 58.3332 10.8992C58.7283 10.8682 59.1218 10.9772 59.4443 11.207C59.575 11.3256 59.6782 11.4713 59.7467 11.6338C59.8153 11.7963 59.8475 11.9717 59.8411 12.1478V14.7858C59.844 14.8072 59.8419 14.8291 59.835 14.8496C59.828 14.8702 59.8164 14.8888 59.8011 14.9041C59.7857 14.9194 59.767 14.931 59.7464 14.9379C59.7258 14.9449 59.7039 14.947 59.6824 14.9441H59.3385C59.3169 14.9465 59.2951 14.9445 59.2744 14.9382C59.2536 14.9319 59.2344 14.9214 59.2178 14.9074C59.2013 14.8934 59.1878 14.8761 59.1783 14.8567C59.1687 14.8373 59.1632 14.8162 59.1621 14.7946V14.5396C58.9719 14.6984 58.7576 14.826 58.5272 14.9177C58.2995 15.0201 58.0538 15.0769 57.8041 15.0847ZM57.9981 14.4956C58.1852 14.493 58.3703 14.4573 58.5448 14.3901C58.7411 14.3184 58.9254 14.2176 59.0916 14.0911V13.2822C58.8034 13.2094 58.507 13.1739 58.2097 13.1766C57.6101 13.1766 57.3279 13.4053 57.3279 13.8713C57.3221 13.955 57.334 14.0389 57.3629 14.1177C57.3918 14.1965 57.4369 14.2683 57.4954 14.3285C57.5615 14.3918 57.6409 14.4397 57.7279 14.4686C57.8148 14.4975 57.9071 14.5067 57.9981 14.4956Z" fill="#54565A"/>
<path d="M62.9013 15.0673C62.4259 15.0726 61.9671 14.8928 61.6226 14.566L61.5697 14.8211C61.5687 14.8438 61.5629 14.8661 61.5529 14.8866C61.5429 14.907 61.5288 14.9252 61.5114 14.9401C61.4941 14.9549 61.4739 14.966 61.4521 14.9728C61.4302 14.9795 61.4073 14.9817 61.3845 14.9793H61.0406C61.0136 14.9958 60.9818 15.0028 60.9503 14.999C60.9189 14.9953 60.8896 14.9812 60.8672 14.9588C60.8448 14.9365 60.8306 14.9073 60.8268 14.8759C60.8231 14.8445 60.8301 14.8128 60.8466 14.7859V9.28137C60.8437 9.2599 60.8458 9.23805 60.8528 9.21753C60.8597 9.197 60.8713 9.17835 60.8867 9.16303C60.902 9.14771 60.9207 9.13614 60.9413 9.12921C60.9619 9.12229 60.9838 9.12019 61.0054 9.1231H61.4727C61.5874 9.1231 61.6315 9.17585 61.6315 9.28137V11.3478C61.9886 11.0368 62.4448 10.8623 62.9189 10.8553C63.1511 10.846 63.3823 10.8913 63.5937 10.9876C63.8051 11.0838 63.9908 11.2283 64.1359 11.4093C64.4544 11.8471 64.6103 12.3818 64.5768 12.9217C64.607 13.4816 64.4419 14.0347 64.1094 14.4869C63.9666 14.67 63.7832 14.8177 63.5736 14.9184C63.364 15.019 63.1339 15.07 62.9013 15.0673ZM62.7161 14.4342C63.448 14.4342 63.8184 13.9505 63.8184 12.9657C63.844 12.5743 63.7486 12.1846 63.545 11.849C63.451 11.7259 63.3274 11.6284 63.1856 11.5654C63.0438 11.5024 62.8885 11.4759 62.7338 11.4885C62.3481 11.4891 61.9733 11.6157 61.6667 11.849V14.056C61.9643 14.2955 62.3338 14.4286 62.7161 14.4342Z" fill="#54565A"/>
<path d="M66.3316 15.0233C66.2139 15.0286 66.0962 15.0104 65.9856 14.9696C65.8751 14.9288 65.7738 14.8663 65.6879 14.7859C65.5296 14.5901 65.4509 14.3421 65.4674 14.0912V9.28137C65.4645 9.2599 65.4666 9.23805 65.4736 9.21753C65.4805 9.197 65.4921 9.17835 65.5075 9.16303C65.5228 9.14771 65.5415 9.13614 65.5621 9.12921C65.5827 9.12229 65.6046 9.12019 65.6262 9.1231H66.1376C66.1591 9.12019 66.1811 9.12229 66.2016 9.12921C66.2222 9.13614 66.2409 9.14771 66.2563 9.16303C66.2717 9.17835 66.2833 9.197 66.2902 9.21753C66.2972 9.23805 66.2993 9.2599 66.2963 9.28137V14.0385C66.2905 14.1345 66.3152 14.2298 66.3669 14.311C66.4384 14.3699 66.5303 14.3983 66.6226 14.3902H66.8078C66.8277 14.3884 66.8477 14.3915 66.8661 14.3992C66.8846 14.4068 66.9009 14.4188 66.9136 14.4342C66.9288 14.4708 66.9288 14.5119 66.9136 14.5485V14.7859C66.9249 14.8261 66.9249 14.8687 66.9136 14.909C66.8782 14.9412 66.836 14.9652 66.7902 14.9793C66.6394 15.0104 66.4856 15.0252 66.3316 15.0233Z" fill="#54565A"/>
<path d="M69.3728 15.1024C69.1033 15.1217 68.8327 15.084 68.5789 14.9915C68.3251 14.899 68.0937 14.754 67.9002 14.566C67.5351 14.1189 67.3553 13.5495 67.3975 12.9745C67.3621 12.4083 67.5416 11.8496 67.9002 11.4093C68.0773 11.2205 68.294 11.073 68.5348 10.9772C68.7756 10.8815 69.0347 10.8399 69.2935 10.8553C69.5056 10.8405 69.7185 10.8696 69.9188 10.9407C70.1191 11.0118 70.3025 11.1235 70.4575 11.2686C70.7435 11.5994 70.889 12.0284 70.8631 12.4645C70.876 12.6372 70.876 12.8106 70.8631 12.9833C70.8625 13.0296 70.8435 13.0739 70.8102 13.1064C70.7731 13.1191 70.7327 13.1191 70.6956 13.1064H68.1647C68.1452 13.4707 68.265 13.8289 68.4998 14.1088C68.6352 14.2274 68.7933 14.3174 68.9646 14.3734C69.1359 14.4293 69.3168 14.45 69.4963 14.4341C69.6489 14.4474 69.8023 14.4474 69.9549 14.4341C70.1406 14.4063 70.3236 14.3622 70.5016 14.3022H70.5986H70.6691C70.7397 14.3022 70.775 14.355 70.775 14.4517V14.6715C70.7911 14.7201 70.7911 14.7725 70.775 14.821C70.7378 14.8595 70.6926 14.8895 70.6427 14.9089C70.4608 14.9839 70.2717 15.0399 70.0783 15.076C69.8447 15.1093 69.6083 15.1181 69.3728 15.1024ZM70.14 12.6227C70.14 12.6227 70.14 12.5172 70.14 12.4205C70.1578 12.1572 70.076 11.8968 69.9108 11.6907C69.8235 11.6064 69.7197 11.541 69.6059 11.4987C69.492 11.4563 69.3707 11.4379 69.2494 11.4445C69.106 11.435 68.9623 11.4569 68.8283 11.5085C68.6942 11.5601 68.5731 11.6403 68.4734 11.7434C68.2682 11.9908 68.156 12.3017 68.1559 12.6227H70.14Z" fill="#54565A"/>
<path d="M74.6305 15.0848C74.3068 15.0952 73.9914 14.982 73.7487 14.7682C73.6344 14.6531 73.5455 14.5154 73.4878 14.3639C73.4301 14.2125 73.4048 14.0507 73.4136 13.8889C73.4122 13.725 73.4471 13.5629 73.5157 13.414C73.5843 13.265 73.6849 13.133 73.8104 13.0272C74.1308 12.7603 74.5397 12.6223 74.9568 12.6403C75.2929 12.6462 75.6272 12.6905 75.9533 12.7722V12.2534C75.9652 12.1457 75.9541 12.0367 75.9207 11.9336C75.8872 11.8305 75.8322 11.7357 75.7593 11.6554C75.5679 11.5179 75.3325 11.4553 75.0979 11.4796C74.7334 11.4791 74.3709 11.5325 74.022 11.6379L73.7928 11.6906C73.731 11.6906 73.6958 11.6466 73.6958 11.5499V11.3389C73.6837 11.2868 73.6837 11.2327 73.6958 11.1806C73.7294 11.1441 73.772 11.1169 73.8192 11.1015C74.0185 11.0119 74.2292 10.9497 74.4453 10.9168C74.693 10.8751 74.9437 10.8545 75.1949 10.8553C75.59 10.8243 75.9835 10.9333 76.306 11.163C76.4363 11.2898 76.5364 11.444 76.599 11.6145C76.6615 11.7849 76.685 11.9672 76.6675 12.1479V14.7858C76.6705 14.8073 76.6684 14.8291 76.6614 14.8496C76.6545 14.8702 76.6429 14.8888 76.6275 14.9041C76.6121 14.9195 76.5934 14.931 76.5728 14.938C76.5523 14.9449 76.5303 14.947 76.5088 14.9441H76.1649C76.1433 14.9465 76.1215 14.9445 76.1008 14.9382C76.08 14.9319 76.0608 14.9214 76.0443 14.9074C76.0277 14.8934 76.0143 14.8762 76.0047 14.8568C75.9951 14.8373 75.9896 14.8162 75.9885 14.7946V14.5396C75.7984 14.6984 75.584 14.8261 75.3536 14.9177C75.1259 15.0201 74.8802 15.0769 74.6305 15.0848ZM74.8245 14.4956C75.0116 14.493 75.1967 14.4573 75.3712 14.3901C75.5666 14.3165 75.7507 14.2158 75.918 14.0911V13.2822C75.6298 13.2094 75.3334 13.174 75.0361 13.1767C74.4365 13.1767 74.1543 13.4053 74.1543 13.8713C74.1485 13.955 74.1604 14.0389 74.1893 14.1177C74.2182 14.1965 74.2633 14.2683 74.3219 14.3286C74.3879 14.3919 74.4673 14.4397 74.5543 14.4686C74.6412 14.4975 74.7335 14.5067 74.8245 14.4956Z" fill="#54565A"/>
<path d="M79.0924 15.0408C78.9382 15.0632 78.7808 15.0493 78.633 15C78.4852 14.9508 78.351 14.8677 78.2412 14.7574C78.1314 14.6471 78.0491 14.5126 78.0009 14.3649C77.9527 14.2171 77.94 14.0601 77.9637 13.9065V11.5851H77.3905C77.3689 11.588 77.347 11.5859 77.3264 11.579C77.3058 11.572 77.2871 11.5604 77.2718 11.5451C77.2564 11.5298 77.2448 11.5112 77.2379 11.4906C77.2309 11.4701 77.2288 11.4483 77.2317 11.4268V11.2685C77.2204 11.2283 77.2204 11.1857 77.2317 11.1454C77.2718 11.1131 77.3213 11.0945 77.3728 11.0927L77.9548 11.0223L78.0607 10.0375C78.0592 10.0155 78.0626 9.99357 78.0706 9.97311C78.0787 9.95265 78.0911 9.9342 78.1071 9.91909C78.1231 9.90397 78.1423 9.89256 78.1632 9.88567C78.1841 9.87877 78.2063 9.87657 78.2282 9.8792H78.5545C78.576 9.8763 78.5979 9.87839 78.6185 9.88532C78.6391 9.89224 78.6578 9.90382 78.6732 9.91914C78.6885 9.93446 78.7001 9.9531 78.7071 9.97363C78.714 9.99416 78.7161 10.016 78.7132 10.0375V11.0047H79.745C79.7665 11.0018 79.7884 11.0039 79.809 11.0108C79.8296 11.0178 79.8483 11.0293 79.8636 11.0447C79.879 11.06 79.8906 11.0786 79.8976 11.0992C79.9045 11.1197 79.9066 11.1415 79.9037 11.163V11.462C79.9066 11.4834 79.9045 11.5053 79.8976 11.5258C79.8906 11.5463 79.879 11.565 79.8636 11.5803C79.8483 11.5956 79.8296 11.6072 79.809 11.6141C79.7884 11.6211 79.7665 11.6231 79.745 11.6202H78.7485V13.9065C78.7406 13.9794 78.7483 14.0531 78.7711 14.1228C78.7939 14.1926 78.8313 14.2567 78.8808 14.3109C79.0111 14.4043 79.1706 14.448 79.3305 14.434C79.4549 14.4294 79.5788 14.4147 79.7009 14.3901H79.8596C79.8732 14.3831 79.8884 14.3795 79.9037 14.3795C79.919 14.3795 79.9341 14.3831 79.9478 14.3901C79.9599 14.4272 79.9599 14.4672 79.9478 14.5044V14.7154C79.964 14.7669 79.964 14.8222 79.9478 14.8737C79.9164 14.9129 79.8731 14.9407 79.8243 14.9528C79.586 15.0177 79.3394 15.0474 79.0924 15.0408Z" fill="#54565A"/>
<path d="M119.991 9.15967C119.991 8.85191 119.991 8.54415 119.991 8.28036C119.983 7.60824 119.921 6.93785 119.806 6.27552C119.697 5.61231 119.489 4.96913 119.189 4.36741C118.577 3.15808 117.603 2.16853 116.402 1.53602C115.8 1.23264 115.154 1.02214 114.489 0.911703C113.827 0.80004 113.158 0.741232 112.487 0.73584H111.605H8.46561H7.58377C6.91002 0.74241 6.2378 0.801208 5.57319 0.911703C4.89538 1.01921 4.23812 1.22976 3.62434 1.53602C2.41885 2.15207 1.43793 3.13019 0.820106 4.33224C0.517103 4.93356 0.306065 5.57672 0.194004 6.24035C0.0761243 6.90244 0.0112518 7.57283 0 8.24518C0 8.54415 0 8.85191 0 9.1245V32.2768C0 32.5846 0 32.8836 0 33.1562C0.00581738 33.8251 0.0647909 34.4925 0.176367 35.1522C0.287121 35.8161 0.498222 36.4595 0.802469 37.0603C1.11 37.6547 1.50868 38.1976 1.98413 38.6695C2.45584 39.1491 3.00416 39.5473 3.6067 39.8477C4.20629 40.1526 4.84836 40.366 5.51146 40.4808C6.17607 40.5913 6.84829 40.6501 7.52205 40.6567H112.46C113.131 40.6513 113.801 40.5925 114.462 40.4808C115.128 40.3674 115.774 40.1539 116.376 39.8477C116.98 39.5495 117.528 39.1511 117.998 38.6695C118.479 38.2002 118.881 37.6569 119.189 37.0603C119.49 36.4591 119.698 35.8157 119.806 35.1522C119.92 34.4928 119.982 33.8253 119.991 33.1562C119.991 32.8396 119.991 32.5406 119.991 32.2768C119.991 32.013 119.991 31.547 119.991 31.1777V10.25C120 9.8895 120 9.5114 119.991 9.15967ZM119.109 31.1425C119.109 31.5118 119.109 31.8636 119.109 32.2241V33.1474C119.101 33.7691 119.045 34.3894 118.942 35.0027C118.847 35.5843 118.662 36.1478 118.395 36.6734C118.126 37.1831 117.785 37.6511 117.381 38.0627C116.967 38.4746 116.491 38.8189 115.97 39.0827C115.447 39.3505 114.884 39.5345 114.303 39.6279C113.683 39.7328 113.055 39.7886 112.425 39.795H7.55732C6.93075 39.7879 6.30569 39.732 5.68783 39.6279C5.11087 39.5303 4.55197 39.3465 4.02998 39.0827C3.51752 38.8323 3.04981 38.4995 2.6455 38.0979C2.23046 37.6938 1.88487 37.2245 1.62257 36.7086C1.34439 36.1767 1.15383 35.6037 1.0582 35.0115C0.950901 34.4045 0.891928 33.79 0.881834 33.1737C0.881834 32.9627 0.881834 32.2944 0.881834 32.2944V9.15967C0.881834 9.15967 0.881834 8.4738 0.881834 8.28036C0.888833 7.64935 0.947821 7.01999 1.0582 6.39862C1.1506 5.81918 1.33517 5.25815 1.60494 4.73672C1.87474 4.22352 2.22614 3.75731 2.6455 3.3562C3.05033 2.94226 3.51381 2.58972 4.02116 2.30981C4.54354 2.04881 5.10246 1.86797 5.67901 1.77343C6.30237 1.66493 6.93341 1.60612 7.56614 1.59757H112.434C113.06 1.604 113.685 1.6569 114.303 1.75584C114.886 1.8577 115.451 2.04434 115.979 2.30981C116.495 2.5845 116.965 2.93751 117.372 3.3562C117.789 3.76556 118.134 4.24098 118.395 4.7631C118.661 5.27929 118.842 5.83433 118.933 6.40742C119.043 7.0318 119.102 7.66405 119.109 8.29794V9.17726C119.109 9.55536 119.109 9.90709 119.109 10.2676V31.1425Z" fill="#54565A"/>
</g>
<defs>
<clipPath id="clip0_1_116">
<rect width="120" height="40" fill="white" transform="translate(0 0.716797)"/>
</clipPath>
</defs>
</svg>
