<svg width="120" height="41" viewBox="0 0 120 41" fill="none" xmlns="http://www.w3.org/2000/svg">
<g clip-path="url(#clip0_1_72)">
<path d="M120 9.18241C120 8.88611 120 8.5757 120 8.2653C119.995 7.5935 119.933 6.92331 119.816 6.26177C119.705 5.59933 119.495 4.95724 119.193 4.35701C118.572 3.14222 117.582 2.15448 116.363 1.53514C115.766 1.23527 115.127 1.02603 114.467 0.914328C113.804 0.792578 113.132 0.726503 112.458 0.716797L7.54245 0.716797C6.86828 0.726503 6.19611 0.792578 5.53302 0.914328C4.86811 1.02254 4.2238 1.23191 3.62264 1.53514C3.02529 1.84243 2.48075 2.24249 2.00943 2.72032C1.53019 3.19026 1.12895 3.73319 0.820755 4.32879C0.518666 4.92902 0.308774 5.57111 0.198113 6.23355C0.0760047 6.8947 0.00973466 7.56489 0 8.23708C0 8.54748 0 8.85789 0 9.18241V32.2653C0 32.5757 0 32.8861 0 33.1965C0.00506352 33.8683 0.0665997 34.5385 0.183962 35.2C0.292489 35.863 0.502484 36.5054 0.806604 37.1048C1.1148 37.7004 1.51604 38.2433 1.99528 38.7133C2.4666 39.1911 3.01114 39.5912 3.60849 39.8985C4.20965 40.2017 4.85396 40.4111 5.51887 40.5193C6.18328 40.6293 6.8549 40.6906 7.5283 40.7027H112.458C113.131 40.6906 113.803 40.6293 114.467 40.5193C115.809 40.3071 117.048 39.6746 118.005 38.7133C118.475 38.2391 118.871 37.6968 119.179 37.1048C119.483 36.5054 119.693 35.863 119.802 35.2C119.921 34.5292 119.982 33.8495 119.986 33.1683C119.986 32.8579 119.986 32.5475 119.986 32.2371V9.18241H120ZM119.123 31.2071V32.2794C119.123 32.6039 119.123 32.9002 119.123 33.2106C119.115 33.8302 119.058 34.4482 118.953 35.0589C118.866 35.644 118.685 36.2111 118.415 36.738C118.157 37.2616 117.812 37.7385 117.396 38.1489C116.989 38.5685 116.51 38.9125 115.981 39.1648C115.456 39.4319 114.893 39.6175 114.311 39.715C113.69 39.8237 113.06 39.8803 112.429 39.8843H7.5566C6.91928 39.8625 6.28495 39.787 5.66038 39.6586C5.08363 39.5679 4.52486 39.3869 4.00472 39.1224C3.4766 38.8637 2.99775 38.5151 2.58962 38.0925C2.1646 37.6865 1.81489 37.2088 1.5566 36.6815C1.29335 36.1571 1.11201 35.5957 1.01887 35.0166C0.928622 34.4047 0.886042 33.7868 0.891509 33.1683C0.891509 32.9567 0.891509 32.2512 0.891509 32.2512V9.18241C0.891509 9.18241 0.891509 8.49105 0.891509 8.29352C0.895595 7.64567 0.952385 6.99922 1.06132 6.36054C1.15231 5.78548 1.33379 5.22836 1.59906 4.70974C1.85483 4.18454 2.1995 3.70724 2.61792 3.29881C3.03161 2.88254 3.50932 2.53483 4.03302 2.26883C4.55049 2.02832 5.09774 1.85751 5.66038 1.76089C6.29273 1.66451 6.9311 1.61265 7.57075 1.60569H112.443C113.069 1.61457 113.693 1.66643 114.311 1.76089C114.909 1.86438 115.49 2.04954 116.038 2.31115C116.558 2.57713 117.035 2.91959 117.453 3.32703C117.867 3.7391 118.211 4.21564 118.472 4.73796C118.714 5.25033 118.871 5.7982 118.939 6.36054C119.044 6.98075 119.1 7.60814 119.108 8.23708C119.108 8.51927 119.108 8.82967 119.108 9.12597V31.1789L119.123 31.2071Z" fill="#54565A"/>
<path d="M25.0607 20.5969C25.0642 19.7212 25.2923 18.8609 25.7233 18.0979C26.1543 17.3348 26.7738 16.6943 27.5229 16.2372C27.0522 15.5653 26.4314 15.0117 25.7094 14.6199C24.9874 14.2282 24.184 14.009 23.3626 13.9797C21.6078 13.8103 19.9097 15.0379 19.0182 15.0379C18.1267 15.0379 16.7399 14.0079 15.2541 14.0361C14.2998 14.066 13.3696 14.3416 12.5537 14.8361C11.7379 15.3305 11.0643 16.0271 10.5984 16.858C8.57483 20.343 10.0748 25.4506 12.0135 28.2724C12.9758 29.6834 14.1078 31.1931 15.5937 31.0943C17.0795 30.9955 17.5748 30.1772 19.3154 30.1772C21.056 30.1772 21.5512 31.0943 23.0654 31.052C24.5795 31.0096 25.5984 29.641 26.5324 28.2301C27.2208 27.2439 27.7552 26.1592 28.1173 25.0132C27.2392 24.6433 26.4851 24.0313 25.9437 23.249C25.4023 22.4668 25.0959 21.5467 25.0607 20.5969Z" fill="#54565A"/>
<path d="M22.217 12.1879C23.0673 11.1785 23.4842 9.87562 23.3774 8.56177C22.0881 8.70091 20.8972 9.31472 20.0378 10.2831C19.6182 10.7595 19.2972 11.3139 19.0932 11.9144C18.8892 12.5149 18.8062 13.1497 18.8491 13.7822C19.4952 13.7895 20.1344 13.6497 20.718 13.3734C21.3017 13.0971 21.8144 12.6916 22.217 12.1879Z" fill="#54565A"/>
<path d="M42.451 27.8492H37.668L36.5359 31.2072H34.5265L39.0123 18.791H41.1067L45.6067 31.2072H43.5548L42.451 27.8492ZM38.2057 26.3113H41.9699L40.1161 20.851L38.2057 26.3113Z" fill="#54565A"/>
<path d="M55.3148 26.6783C55.3148 29.5001 53.8006 31.3061 51.5223 31.3061C50.9502 31.3291 50.3829 31.1936 49.8833 30.9147C49.3837 30.6357 48.9714 30.2243 48.6921 29.7259V34.1985H46.7676V22.1633H48.5647V23.6589C48.8528 23.1671 49.2665 22.7605 49.7637 22.4803C50.261 22.2002 50.8239 22.0567 51.3949 22.0645C53.7723 22.0645 55.3148 23.8846 55.3148 26.6783ZM53.4044 26.6783C53.4044 24.844 52.4421 23.6448 50.9987 23.6448C49.5553 23.6448 48.6214 24.8723 48.6214 26.6783C48.6214 28.4843 49.527 29.7259 50.9421 29.7259C52.3572 29.7259 53.4044 28.5266 53.4044 26.6783Z" fill="#54565A"/>
<path d="M65.3062 26.678C65.3062 29.4998 63.7921 31.3058 61.5138 31.3058C60.9416 31.3288 60.3743 31.1933 59.8747 30.9144C59.3752 30.6354 58.9629 30.224 58.6836 29.7256V34.1982H56.759V22.163H58.5562V23.6586C58.8408 23.1638 59.2538 22.7547 59.7519 22.4741C60.2499 22.1936 60.8145 22.052 61.3864 22.0642C63.7921 22.0642 65.3062 23.8843 65.3062 26.678ZM63.3958 26.678C63.3958 24.8437 62.4477 23.6445 60.9902 23.6445C59.5326 23.6445 58.6128 24.872 58.6128 26.678C58.6128 28.484 59.5751 29.7256 60.9902 29.7256C62.4053 29.7256 63.3958 28.5263 63.3958 26.678Z" fill="#54565A"/>
<path d="M71.9149 27.7504C72.0564 28.9779 73.2451 29.7963 74.8866 29.7963C76.5281 29.7963 77.5895 28.9779 77.5895 27.8774C77.5895 26.7769 76.9102 26.3254 75.297 25.9303L73.6838 25.5494C71.3913 24.9991 70.33 23.9268 70.33 22.2054C70.33 20.0608 72.1979 18.5793 74.8583 18.5793C77.5187 18.5793 79.3017 20.0608 79.3583 22.2054H77.4762C77.363 20.9638 76.3442 20.216 74.83 20.216C73.3159 20.216 72.3111 20.9638 72.3111 22.0644C72.3111 22.9532 72.9621 23.4753 74.5753 23.8562L75.9904 24.1949C78.5376 24.8016 79.5989 25.8174 79.5989 27.6375C79.5989 29.9656 77.7451 31.4189 74.7876 31.4189C71.83 31.4189 70.1602 30.0079 70.047 27.7504H71.9149Z" fill="#54565A"/>
<path d="M83.5741 20.0188V22.1634H85.3005V23.5744H83.5741V28.5691C83.5741 29.331 83.9279 29.6978 84.6779 29.6978H85.3005V31.1087C84.9592 31.1666 84.6136 31.1949 84.2675 31.1934C82.4279 31.1934 81.7062 30.502 81.7062 28.7525V23.6308H80.3901V22.2199H81.7062V20.0188H83.5741Z" fill="#54565A"/>
<path d="M86.3198 26.6781C86.2862 26.0932 86.3727 25.5076 86.574 24.9572C86.7754 24.4068 87.0873 23.9032 87.4908 23.4772C87.8942 23.0512 88.3806 22.7119 88.9202 22.48C89.4598 22.248 90.0412 22.1284 90.6288 22.1284C91.2164 22.1284 91.7978 22.248 92.3374 22.48C92.877 22.7119 93.3634 23.0512 93.7668 23.4772C94.1702 23.9032 94.4822 24.4068 94.6835 24.9572C94.8849 25.5076 94.9714 26.0932 94.9377 26.6781C94.9377 29.4999 93.2679 31.3201 90.6924 31.3201C88.117 31.3201 86.3198 29.5423 86.3198 26.6781ZM93.0274 26.6781C93.0274 24.731 92.1358 23.574 90.6217 23.574C89.1076 23.574 88.216 24.7451 88.216 26.6781C88.216 28.6111 89.15 29.7962 90.5651 29.7962C91.9802 29.7962 93.0132 28.6393 93.0132 26.6781H93.0274Z" fill="#54565A"/>
<path d="M96.4526 22.1634H98.2357V23.7014C98.3573 23.2108 98.6476 22.7782 99.0562 22.4792C99.4648 22.1801 99.9656 22.0334 100.472 22.0647C100.683 22.0364 100.897 22.0364 101.108 22.0647V23.8001C100.838 23.7183 100.556 23.6802 100.273 23.6873C100.002 23.675 99.7311 23.7219 99.4797 23.8247C99.2283 23.9275 99.0024 24.0838 98.8178 24.2826C98.6333 24.4814 98.4944 24.718 98.411 24.9758C98.3275 25.2337 98.3015 25.5065 98.3347 25.7754V31.137H96.4526V22.1634Z" fill="#54565A"/>
<path d="M109.698 28.5547C109.499 29.4192 108.992 30.1822 108.271 30.7014C107.55 31.2206 106.664 31.4606 105.778 31.3765C103.146 31.3765 101.533 29.6129 101.533 26.7769C101.533 23.9409 103.174 22.1067 105.778 22.1067C108.382 22.1067 109.868 23.828 109.868 26.5652V27.2002H103.387V27.313C103.356 27.6458 103.397 27.9812 103.507 28.297C103.617 28.6127 103.793 28.9016 104.023 29.1445C104.253 29.3873 104.532 29.5786 104.842 29.7056C105.152 29.8325 105.486 29.8923 105.821 29.8809C106.262 29.923 106.706 29.8223 107.086 29.5936C107.465 29.3649 107.761 29.0204 107.929 28.6111L109.698 28.5547ZM103.387 25.8457H107.929C107.945 25.5467 107.899 25.2478 107.793 24.9674C107.688 24.687 107.527 24.431 107.318 24.2154C107.11 23.9998 106.86 23.8292 106.583 23.714C106.306 23.5988 106.008 23.5416 105.707 23.5458C105.403 23.544 105.102 23.6021 104.82 23.7168C104.539 23.8316 104.283 24.0007 104.067 24.2144C103.852 24.4282 103.68 24.6823 103.564 24.9623C103.447 25.2422 103.387 25.5425 103.387 25.8457Z" fill="#54565A"/>
<path d="M37.938 9.45056C38.3298 9.4202 38.7235 9.47722 39.0904 9.61748C39.4573 9.75775 39.7883 9.97773 40.0593 10.2615C40.3303 10.5452 40.5346 10.8855 40.6572 11.2578C40.7798 11.63 40.8177 12.0248 40.7682 12.4135C40.822 12.805 40.7874 13.2034 40.6669 13.5798C40.5464 13.9562 40.3431 14.301 40.0719 14.5891C39.8006 14.8771 39.4683 15.101 39.0991 15.2446C38.7299 15.3882 38.3332 15.4477 37.938 15.4188H35.7729V9.45056H37.938ZM36.7069 14.5723H37.8248C38.1045 14.5899 38.3846 14.5451 38.6447 14.441C38.9048 14.3369 39.1382 14.1763 39.3281 13.9708C39.5179 13.7653 39.6594 13.5201 39.742 13.2531C39.8247 12.9861 39.8466 12.7041 39.806 12.4276C39.8439 12.1516 39.8202 11.8707 39.7365 11.6049C39.6529 11.339 39.5114 11.0949 39.3221 10.89C39.1328 10.6851 38.9004 10.5244 38.6416 10.4195C38.3827 10.3146 38.1038 10.268 37.8248 10.283H36.7069V14.5723Z" fill="#54565A"/>
<path d="M41.8013 13.1614C41.7666 12.863 41.7957 12.5606 41.8866 12.2742C41.9775 11.9877 42.1281 11.7236 42.3285 11.4993C42.529 11.275 42.7747 11.0955 43.0497 10.9726C43.3247 10.8497 43.6226 10.7861 43.9239 10.7861C44.2252 10.7861 44.5231 10.8497 44.7981 10.9726C45.0731 11.0955 45.3188 11.275 45.5193 11.4993C45.7197 11.7236 45.8703 11.9877 45.9612 12.2742C46.0521 12.5606 46.0812 12.863 46.0465 13.1614C46.0812 13.4599 46.0521 13.7623 45.9612 14.0487C45.8703 14.3352 45.7197 14.5992 45.5193 14.8235C45.3188 15.0479 45.0731 15.2274 44.7981 15.3503C44.5231 15.4732 44.2252 15.5367 43.9239 15.5367C43.6226 15.5367 43.3247 15.4732 43.0497 15.3503C42.7747 15.2274 42.529 15.0479 42.3285 14.8235C42.1281 14.5992 41.9775 14.3352 41.8866 14.0487C41.7957 13.7623 41.7666 13.4599 41.8013 13.1614ZM45.1409 13.1614C45.1409 12.1879 44.7022 11.6094 43.9239 11.6094C43.1456 11.6094 42.7211 12.1879 42.7211 13.1614C42.7211 14.135 43.1598 14.7135 43.9239 14.7135C44.6881 14.7135 45.1409 14.135 45.1409 13.1614Z" fill="#54565A"/>
<path d="M51.7217 15.419H50.7877L49.8679 12.1033H49.7972L48.8632 15.419H47.9434L46.6981 10.9041H47.6038L48.4104 14.3467L49.3443 10.9041H50.1934L51.1274 14.3467L51.9198 10.9041H52.8113L51.7217 15.419Z" fill="#54565A"/>
<path d="M54.0002 10.9039H54.8635V11.6234C54.9875 11.3604 55.19 11.1419 55.4433 10.998C55.6966 10.854 55.9883 10.7916 56.2785 10.8192C56.5008 10.7925 56.7262 10.8188 56.9362 10.8958C57.1463 10.9728 57.335 11.0984 57.487 11.2623C57.6389 11.4262 57.7497 11.6236 57.8102 11.8385C57.8707 12.0533 57.8793 12.2794 57.8351 12.4982V15.4189H56.9436V12.724C56.9436 12.0044 56.6323 11.6376 55.9814 11.6376C55.8316 11.6308 55.6821 11.6562 55.543 11.7121C55.4039 11.7679 55.2785 11.8529 55.1752 11.9612C55.0719 12.0696 54.9931 12.1988 54.9442 12.3401C54.8953 12.4814 54.8774 12.6316 54.8918 12.7804V15.4189H54.0002V10.9039Z" fill="#54565A"/>
<path d="M59.2653 9.18237H60.1568V15.4469H59.2653V9.18237Z" fill="#54565A"/>
<path d="M61.3859 13.1614C61.3512 12.863 61.3803 12.5606 61.4712 12.2742C61.5621 11.9877 61.7127 11.7236 61.9131 11.4993C62.1136 11.275 62.3593 11.0955 62.6343 10.9726C62.9092 10.8497 63.2072 10.7861 63.5085 10.7861C63.8098 10.7861 64.1077 10.8497 64.3827 10.9726C64.6576 11.0955 64.9034 11.275 65.1039 11.4993C65.3043 11.7236 65.4549 11.9877 65.5458 12.2742C65.6367 12.5606 65.6657 12.863 65.6311 13.1614C65.6657 13.4599 65.6367 13.7623 65.5458 14.0487C65.4549 14.3352 65.3043 14.5992 65.1039 14.8235C64.9034 15.0479 64.6576 15.2274 64.3827 15.3503C64.1077 15.4732 63.8098 15.5367 63.5085 15.5367C63.2072 15.5367 62.9092 15.4732 62.6343 15.3503C62.3593 15.2274 62.1136 15.0479 61.9131 14.8235C61.7127 14.5992 61.5621 14.3352 61.4712 14.0487C61.3803 13.7623 61.3512 13.4599 61.3859 13.1614ZM64.7255 13.1614C64.7255 12.1879 64.2868 11.6094 63.5226 11.6094C62.7585 11.6094 62.2632 12.1879 62.2632 13.1614C62.2632 14.135 62.7019 14.7135 63.4802 14.7135C64.2585 14.7135 64.7255 14.135 64.7255 13.1614Z" fill="#54565A"/>
<path d="M66.5948 14.135C66.5948 13.3308 67.1892 12.8652 68.2647 12.7946L69.4958 12.7241V12.3431C69.4958 11.8634 69.1703 11.5954 68.5618 11.5954C67.9533 11.5954 67.7269 11.7788 67.6279 12.0892H66.7647C66.8496 11.3132 67.5854 10.8193 68.6043 10.8193C69.6232 10.8193 70.3732 11.3837 70.3732 12.3431V15.419H69.5241V14.8264H69.4534C69.3056 15.0626 69.0953 15.2536 68.8456 15.3781C68.5958 15.5026 68.3164 15.5558 68.0383 15.5319C67.8512 15.5356 67.6653 15.5023 67.4913 15.434C67.3172 15.3656 67.1585 15.2636 67.0243 15.1337C66.8901 15.0038 66.783 14.8486 66.7093 14.6772C66.6356 14.5058 66.5967 14.3215 66.5948 14.135ZM69.425 13.7541V13.4155H68.3213C67.6986 13.4155 67.4156 13.6694 67.4156 14.0645C67.4156 14.4595 67.7694 14.7135 68.2505 14.7135C68.3965 14.7396 68.5463 14.7349 68.6903 14.6997C68.8343 14.6645 68.9693 14.5996 69.0866 14.5092C69.2039 14.4188 69.301 14.3049 69.3714 14.1749C69.4419 14.0448 69.4843 13.9015 69.4958 13.7541H69.425Z" fill="#54565A"/>
<path d="M71.5476 13.1612C71.5476 11.7503 72.2835 10.8332 73.4297 10.8332C73.7183 10.8044 74.0089 10.8647 74.262 11.006C74.5151 11.1474 74.7186 11.3628 74.8448 11.6233V9.18237H75.7363V15.4469H74.8872V14.6991C74.747 14.9478 74.5407 15.1531 74.291 15.2925C74.0414 15.4319 73.758 15.4999 73.4721 15.4893C72.2693 15.4893 71.5476 14.5863 71.5476 13.1612ZM72.4674 13.1612C72.4674 14.1206 72.9202 14.685 73.6702 14.685C74.4202 14.685 74.8872 14.1065 74.8872 13.1612C74.8872 12.2159 74.4202 11.6374 73.6702 11.6374C72.9202 11.6374 72.4674 12.2159 72.4674 13.1612Z" fill="#54565A"/>
<path d="M79.4579 13.1614C79.4233 12.863 79.4523 12.5606 79.5432 12.2742C79.6341 11.9877 79.7847 11.7236 79.9851 11.4993C80.1856 11.275 80.4314 11.0955 80.7063 10.9726C80.9813 10.8497 81.2792 10.7861 81.5805 10.7861C81.8818 10.7861 82.1798 10.8497 82.4547 10.9726C82.7297 11.0955 82.9754 11.275 83.1759 11.4993C83.3764 11.7236 83.527 11.9877 83.6178 12.2742C83.7087 12.5606 83.7378 12.863 83.7032 13.1614C83.7378 13.4599 83.7087 13.7623 83.6178 14.0487C83.527 14.3352 83.3764 14.5992 83.1759 14.8235C82.9754 15.0479 82.7297 15.2274 82.4547 15.3503C82.1798 15.4732 81.8818 15.5367 81.5805 15.5367C81.2792 15.5367 80.9813 15.4732 80.7063 15.3503C80.4314 15.2274 80.1856 15.0479 79.9851 14.8235C79.7847 14.5992 79.6341 14.3352 79.5432 14.0487C79.4523 13.7623 79.4233 13.4599 79.4579 13.1614ZM82.7975 13.1614C82.7975 12.1879 82.3588 11.6094 81.5805 11.6094C80.8022 11.6094 80.3777 12.1879 80.3777 13.1614C80.3777 14.135 80.8164 14.7135 81.5805 14.7135C82.3447 14.7135 82.7975 14.135 82.7975 13.1614Z" fill="#54565A"/>
<path d="M84.9054 10.9039H85.7686V11.6234C85.8927 11.3604 86.0952 11.1419 86.3485 10.998C86.6018 10.854 86.8935 10.7916 87.1837 10.8192C87.4059 10.7925 87.6313 10.8188 87.8414 10.8958C88.0515 10.9728 88.2402 11.0984 88.3921 11.2623C88.5441 11.4262 88.6548 11.6236 88.7154 11.8385C88.7759 12.0533 88.7844 12.2794 88.7403 12.4982V15.4189H87.8488V12.724C87.8488 12.0044 87.5375 11.6376 86.8724 11.6376C86.7231 11.6305 86.5741 11.6558 86.4356 11.7118C86.2971 11.7677 86.1725 11.853 86.0702 11.9616C85.968 12.0703 85.8906 12.1997 85.8434 12.3411C85.7962 12.4825 85.7804 12.6323 85.7969 12.7804V15.4189H84.9054V10.9039Z" fill="#54565A"/>
<path d="M93.7787 9.78931V10.9322H94.8118V11.68H93.8353V13.9939C93.8353 14.4595 94.0335 14.6711 94.4721 14.6711H94.8118V15.4048C94.6517 15.42 94.4906 15.42 94.3306 15.4048C93.3401 15.4048 92.9155 15.0662 92.9155 14.1914V11.68H92.1938V10.9322H92.9155V9.78931H93.7787Z" fill="#54565A"/>
<path d="M95.9723 9.18237H96.8638V11.6374C96.9878 11.3743 97.1903 11.1559 97.4436 11.0119C97.6969 10.868 97.9886 10.8055 98.2789 10.8332C98.4977 10.8208 98.7166 10.8568 98.9198 10.9386C99.123 11.0205 99.3055 11.1462 99.4543 11.3066C99.6031 11.4671 99.7144 11.6584 99.7803 11.8668C99.8462 12.0753 99.8651 12.2956 99.8355 12.5122V15.4187H98.944V12.7238C98.944 12.0042 98.6043 11.6374 97.9817 11.6374C97.8279 11.6246 97.6732 11.6453 97.5283 11.6982C97.3834 11.7511 97.2517 11.8348 97.1426 11.9436C97.0335 12.0524 96.9495 12.1837 96.8964 12.3282C96.8434 12.4726 96.8226 12.6269 96.8355 12.7803V15.4187H95.944L95.9723 9.18237Z" fill="#54565A"/>
<path d="M105.056 14.1915C104.938 14.6048 104.678 14.9633 104.32 15.2035C103.963 15.4437 103.532 15.55 103.103 15.5036C102.805 15.5127 102.508 15.4566 102.233 15.3393C101.959 15.2221 101.713 15.0465 101.514 14.8248C101.314 14.6031 101.166 14.3406 101.078 14.0558C100.991 13.7709 100.968 13.4705 101.009 13.1756C100.971 12.8809 100.996 12.5815 101.083 12.2973C101.17 12.0132 101.317 11.7508 101.514 11.5278C101.711 11.3048 101.953 11.1262 102.225 11.004C102.496 10.8819 102.791 10.8189 103.089 10.8193C104.348 10.8193 105.113 11.68 105.113 13.0909V13.4155H101.886C101.875 13.5799 101.897 13.745 101.952 13.9004C102.007 14.0559 102.094 14.1983 102.207 14.3188C102.32 14.4393 102.457 14.5352 102.608 14.6007C102.76 14.6662 102.924 14.6998 103.089 14.6994C103.303 14.7277 103.521 14.6902 103.713 14.5919C103.905 14.4935 104.063 14.3391 104.165 14.1491L105.056 14.1915ZM101.886 12.7523H104.179C104.191 12.6003 104.17 12.4474 104.119 12.3037C104.068 12.16 103.987 12.0287 103.882 11.9182C103.776 11.8077 103.649 11.7206 103.507 11.6626C103.366 11.6045 103.214 11.5768 103.061 11.5812C102.749 11.5812 102.451 11.7046 102.23 11.9242C102.01 12.1439 101.886 12.4417 101.886 12.7523Z" fill="#54565A"/>
</g>
<defs>
<clipPath id="clip0_1_72">
<rect width="120" height="40" fill="white" transform="translate(0 0.716797)"/>
</clipPath>
</defs>
</svg>
