<svg width="51" height="50" viewBox="0 0 51 50" fill="none" xmlns="http://www.w3.org/2000/svg">
<path d="M47.1163 3.33825L32.8411 1.04382C31.1557 0.734525 29.4445 2.10096 29.2274 3.92929L28.7924 7.07551L28.5666 5.8083C28.3573 4.48197 27.0575 3.5514 25.8425 3.85772L10.0193 7.46727C8.7834 7.74932 7.99062 9.0628 8.25211 10.3954L9.50503 16.7803L3.52196 18.1452C1.80661 18.5364 0.706272 20.3594 1.06924 22.2089L5.79253 46.279C6.14815 48.1407 7.88848 49.3194 9.56149 48.9235L23.6819 45.7023C24.5365 45.5075 25.2724 44.9516 25.729 44.1479L33.3933 46.5332C34.5248 46.9146 35.8264 46.1423 36.131 44.9039L39.0888 33.8554C41.8253 34.2104 45.5966 35.7705 46.4283 31.5687L49.7926 7.23479C50.0509 5.36482 48.8503 3.61701 47.1163 3.33825ZM8.90509 10.2464C8.71979 9.30208 9.28159 8.37121 10.1574 8.17142L25.9805 4.56186C26.8416 4.3447 27.7626 5.00432 27.911 5.94424L28.4954 9.22311L28.0922 12.1394L25.757 11.4127C24.6219 11.0317 23.3254 11.8035 23.0194 13.042L21.5788 18.4231C21.4171 16.2354 19.7489 14.431 17.642 14.924L10.158 16.6313L8.90509 10.2464ZM23.5437 44.9981L9.4233 48.2193C8.10811 48.5504 6.69765 47.5604 6.4455 46.13L1.72221 22.0599C1.43544 20.5987 2.3048 19.1583 3.66005 18.8492L9.96966 17.4099L17.7804 15.6281C19.09 15.2959 20.5084 16.2873 20.7582 17.7174L25.4815 41.7876C25.7855 43.2108 24.8711 44.7239 23.5437 44.9981ZM35.4895 44.7042C35.2759 45.5689 34.3707 46.1075 33.5783 45.8417L26.0224 43.4901C26.2164 42.9015 26.2574 42.2652 26.1345 41.6385L21.8728 19.9205L23.6608 13.2416C23.8745 12.3768 24.7795 11.8381 25.572 12.104L27.9929 12.8574L25.863 28.2633C25.576 30.0805 26.8434 31.9256 28.5392 32.1597L38.4226 33.7482L35.4895 44.7042ZM49.1322 7.12857L45.768 31.4625C45.5966 32.9071 44.2463 33.9719 42.9128 33.7422C39.3498 33.1289 28.6376 31.4479 28.6376 31.4479C27.2978 31.263 26.2964 29.8051 26.5232 28.3695L29.8875 4.0354C30.0565 2.59154 31.4173 1.50951 32.7427 1.75568L47.018 4.0501C48.388 4.27025 49.3365 5.65129 49.1322 7.12857Z" fill="#23F38D" stroke="#23F38D" stroke-width="0.5"/>
<path d="M27.8988 38.8051L30.5707 42.9556C30.6764 43.12 30.8855 43.1586 31.0351 43.0461L34.8845 40.1651C35.8683 39.4289 36.1131 37.967 35.4303 36.9063C34.5739 35.5469 32.8988 35.7059 31.8551 36.7173C31.2057 35.376 29.6871 34.5955 28.4445 35.5461C27.4608 36.2825 27.216 37.7443 27.8988 38.8051ZM28.8252 36.1374C30.0106 35.2967 30.9161 36.3667 31.5015 37.4202C31.6066 37.5781 31.809 37.6177 31.9586 37.5093L32.808 36.8947C34.4336 35.7338 36.1031 38.3657 34.5041 39.574L30.9288 42.2497L28.4471 38.3948C27.9723 37.6888 28.1514 36.6197 28.8252 36.1374Z" fill="#23F38D" stroke="#23F38D" stroke-width="0.5"/>
<path d="M15.7237 11.033C14.5834 10.7555 13.5466 10.1348 12.7253 9.23772C12.5515 9.03526 12.2107 9.14056 12.1623 9.41129C11.9049 10.6408 11.3291 11.7587 10.4972 12.6442C10.3095 12.8317 10.407 13.199 10.6581 13.2513C11.7984 13.5288 12.8353 14.1496 13.6566 15.0466C13.8314 15.2492 14.171 15.1436 14.2196 14.873C14.477 13.6436 15.0527 12.5255 15.8847 11.6401C16.0723 11.4526 15.9748 11.0852 15.7237 11.033ZM13.7164 14.1238C13.0245 13.4847 12.2219 13.0042 11.3529 12.7087C11.9457 11.9626 12.3913 11.0973 12.6653 10.1603C13.3573 10.7995 14.1599 11.2799 15.0289 11.5754C14.4361 12.3216 13.9904 13.1869 13.7164 14.1238Z" fill="#23F38D" stroke="#23F38D" stroke-width="0.5"/>
<path d="M18.5829 28.4007C17.9532 28.1203 17.3623 27.996 17.0257 27.9433C16.7787 25.2509 15.3552 24.2578 14.1813 23.9012C12.6818 23.4457 11.0444 23.8766 9.90834 25.0259C9.01895 25.9255 8.18002 27.5142 9.11136 30.0264C8.83509 30.2404 8.36379 30.6443 7.92472 31.206C7.0239 32.3585 6.69584 33.6217 6.97602 34.8592C7.64769 37.8255 10.2224 37.9783 11.4898 37.6447C12.21 37.4551 13.0093 36.7599 13.5581 36.2035C13.4084 37.1375 13.0045 38.6941 11.9202 40.6185C11.7616 40.879 12.0082 41.239 12.2846 41.1549L18.9654 39.3964C19.2478 39.3328 19.3111 38.8919 19.0596 38.7394C17.2746 37.5701 16.2508 36.389 15.719 35.6348C16.444 35.8558 17.4504 36.0757 18.1707 35.8862C18.4705 35.8073 19.5088 35.478 20.2832 34.5542C20.8109 33.9248 21.361 32.8271 20.9863 31.1715C20.706 29.9341 19.875 28.976 18.5829 28.4007ZM19.788 34.0718C18.2842 35.8214 16.508 35.2008 15.05 34.6398C14.7825 34.5152 14.4944 34.8427 14.6242 35.1241C14.6586 35.2053 15.4408 36.9978 18.0498 38.8966L12.8834 40.2565C14.3874 37.2751 14.3156 35.2956 14.3114 35.2064C14.306 34.8926 13.9118 34.7441 13.7265 34.988C13.347 35.457 12.1772 36.7229 11.3314 36.9456C11.2082 36.9779 8.30724 37.7048 7.62442 34.6885C7.06958 32.2381 9.67307 30.4832 9.6991 30.4659C9.84215 30.3717 9.89832 30.1778 9.83023 30.0127C8.20987 26.7088 11.083 23.7216 14.0002 24.5938C15.4669 25.0394 16.2681 26.2824 16.3816 28.2882C16.3918 28.4682 16.5245 28.6124 16.6912 28.6252C18.2147 28.5849 22.0307 30.6917 19.788 34.0718Z" fill="#23F38D" stroke="#23F38D" stroke-width="0.5"/>
<path d="M39.6858 8.34076C34.8058 10.9309 31.1282 14.3369 30.7425 16.6234C30.563 17.6871 30.7548 18.8957 31.2686 19.9394C31.8081 21.0351 32.6247 21.763 33.509 21.9363C34.6229 22.1549 35.7459 21.7798 36.4494 21.4562C35.5731 23.6133 32.8089 25.0721 32.7779 25.0882C32.4908 25.2251 32.5524 25.7169 32.863 25.7664C34.8342 26.1531 38.801 26.9309 40.7718 27.3174C41.0771 27.3896 41.2977 26.9521 41.0729 26.715C41.0492 26.6882 38.9384 24.2733 38.8227 21.9218C41.3341 24.8335 44.9911 23.4422 45.7424 19.5651C46.1832 17.2901 43.7983 12.6945 40.0768 8.41747C39.9761 8.30199 39.8175 8.27073 39.6858 8.34076ZM45.0856 19.4363C44.7588 21.3727 42.9685 23.0598 41.5372 22.7795C40.0101 22.48 38.8121 20.858 38.8005 20.842C38.6356 20.5988 38.2502 20.7014 38.2094 20.9994C37.8569 23.0887 39.159 25.2911 39.9771 26.4303C38.4615 26.1331 35.4116 25.535 33.8965 25.2378C35.0343 24.4822 36.9721 22.9151 37.3246 20.8259C37.3835 20.5317 37.0568 20.2897 36.8231 20.4539C36.8066 20.4647 35.1554 21.528 33.6285 21.2284C32.0692 20.9403 31.1025 18.3507 31.3992 16.7522C31.5681 15.8421 32.4758 14.5373 33.9304 13.1805C35.4797 11.7355 37.4911 10.3295 39.7588 9.10516C41.4814 11.1121 42.9048 13.1916 43.8829 15.1323C44.8012 16.9544 45.2396 18.5231 45.0856 19.4363Z" fill="#23F38D" stroke="#23F38D" stroke-width="0.5"/>
</svg>
