<svg width="15" height="15" viewBox="0 0 15 15" fill="none" xmlns="http://www.w3.org/2000/svg">
<g clip-path="url(#clip0_1_364)">
<path d="M8.51298 14.9707H6.10616C5.70415 14.9707 5.37712 14.6443 5.37712 14.2431V8.825H3.97294C3.57092 8.825 3.2439 8.4985 3.2439 8.09738V5.77572C3.2439 5.37449 3.57092 5.0481 3.97294 5.0481H5.37712V3.8855C5.37712 2.73273 5.73981 1.75198 6.42585 1.04942C7.11498 0.343666 8.07805 -0.0292969 9.21094 -0.0292969L11.0465 -0.0263214C11.4478 -0.0256348 11.7743 0.300751 11.7743 0.701294V2.8569C11.7743 3.25813 11.4474 3.58452 11.0455 3.58452L9.80961 3.58498C9.4327 3.58498 9.33673 3.66039 9.31621 3.68351C9.28238 3.72185 9.24213 3.83022 9.24213 4.12949V5.04799H10.9526C11.0814 5.04799 11.2061 5.07969 11.3133 5.13943C11.5446 5.2684 11.6884 5.51228 11.6884 5.77583L11.6875 8.0975C11.6875 8.4985 11.3605 8.82488 10.9584 8.82488H9.24213V14.2431C9.24213 14.6443 8.91499 14.9707 8.51298 14.9707ZM6.25821 14.0913H8.36093V8.43132C8.36093 8.16341 8.57937 7.94552 8.84768 7.94552H10.8064L10.8072 5.92747H8.84757C8.57925 5.92747 8.36093 5.70957 8.36093 5.44167V4.12949C8.36093 3.78593 8.3959 3.39523 8.65574 3.10158C8.96969 2.74658 9.46447 2.70561 9.80938 2.70561L10.8932 2.70515V0.852814L9.21025 0.850067C7.38961 0.850067 6.25821 2.01324 6.25821 3.8855V5.44167C6.25821 5.70946 6.03989 5.92747 5.77157 5.92747H4.12498V7.94552H5.77157C6.03989 7.94552 6.25821 8.16341 6.25821 8.43132V14.0913ZM11.0448 0.853043H11.0449H11.0448Z" fill="white" fill-opacity="0.35"/>
</g>
<defs>
<clipPath id="clip0_1_364">
<rect width="15" height="15" fill="white"/>
</clipPath>
</defs>
</svg>
