<svg width="120" height="41" viewBox="0 0 120 41" fill="none" xmlns="http://www.w3.org/2000/svg">
<g opacity="0.9" clip-path="url(#clip0_1_100)">
<path d="M42.3109 12.1655C42.3109 12.8722 42.0279 13.4375 41.6033 13.8616C41.1788 14.4269 40.4713 14.5683 39.6222 14.5683C38.9147 14.5683 38.2071 14.2856 37.6411 13.7202C37.2166 13.4375 36.9335 12.7308 36.9335 12.0241C36.9335 11.3174 37.2166 10.6107 37.7826 10.0453C38.3486 9.47995 38.9147 9.19727 39.7637 9.19727C40.1882 9.19727 40.4713 9.33861 40.8958 9.47995C41.1788 9.62129 41.4618 9.76264 41.7449 10.0453L41.3203 10.4693C41.0373 10.0453 40.4713 9.90398 39.9052 9.90398C39.3392 9.90398 38.9147 10.0453 38.4901 10.4693C38.0656 10.8934 37.9241 11.3174 37.9241 12.0241C37.9241 12.7308 37.9241 13.1549 38.2071 13.4375C38.6316 13.8616 39.0562 14.0029 39.6222 14.0029C40.1882 14.0029 40.7543 13.8616 41.0373 13.4375C41.3203 13.1549 41.4618 12.8722 41.4618 12.3068H39.6222V11.7414H42.1694C42.3109 11.8828 42.3109 12.0241 42.3109 12.1655Z" fill="#54565A"/>
<path d="M46.2737 10.0453H43.868V11.7414H45.9907V12.3068H43.868V14.0029H46.2737V14.7096H43.1605V9.33862H46.2737V10.0453Z" fill="#54565A"/>
<path d="M49.1029 14.5683H48.3953V10.0453H46.9802V9.33862H50.6595V10.0453H49.2444V14.5683H49.1029Z" fill="#54565A"/>
<path d="M53.2072 14.5683V9.33862H53.9148V14.5683H53.2072Z" fill="#54565A"/>
<path d="M56.8861 14.5683H56.1785V10.0453H54.7634V9.33862H58.4427V10.0453H57.0276V14.5683H56.8861Z" fill="#54565A"/>
<path d="M65.2365 13.8616C64.6704 14.4269 64.1044 14.7096 63.2553 14.7096C62.5478 14.7096 61.8402 14.4269 61.2742 13.8616C60.8497 13.4375 60.5667 12.7308 60.5667 12.0241C60.5667 11.3174 60.8497 10.6107 61.2742 10.0453C61.8402 9.47995 62.5478 9.19727 63.2553 9.19727C63.9629 9.19727 64.6704 9.47995 65.2365 10.0453C65.8025 10.6107 65.944 11.1761 65.944 12.0241C65.944 12.7308 65.8025 13.4375 65.2365 13.8616ZM61.8402 13.4375C62.2648 13.8616 62.6893 14.0029 63.2553 14.0029C63.8214 14.0029 64.2459 13.8616 64.6704 13.4375C65.0949 13.1549 65.2365 12.5895 65.2365 12.0241C65.2365 11.4587 65.0949 10.8934 64.6704 10.4694C64.2459 10.0453 63.8214 9.90398 63.2553 9.90398C62.6893 9.90398 62.2648 10.0453 61.8402 10.4694C61.4157 10.8934 61.2742 11.3174 61.2742 12.0241C61.2742 12.5895 61.4157 13.1549 61.8402 13.4375Z" fill="#54565A"/>
<path d="M66.9348 14.5683V9.33862H67.7839L70.331 13.4376V12.4482V9.33862H71.0386V14.5683H70.331L67.6424 10.328V11.3174V14.5683H66.9348Z" fill="#54565A"/>
<path d="M60.4242 22.2007C58.3016 22.2007 56.745 23.7555 56.745 25.8757C56.745 27.9958 58.4431 29.5506 60.4242 29.5506C62.5469 29.5506 64.1035 27.9958 64.1035 25.8757C64.1035 23.8969 62.5469 22.2007 60.4242 22.2007ZM60.4242 28.2785C59.2922 28.2785 58.3016 27.2891 58.3016 26.017C58.3016 24.7449 59.2922 23.7555 60.4242 23.7555C61.5563 23.7555 62.5469 24.6036 62.5469 26.017C62.5469 27.2891 61.5563 28.2785 60.4242 28.2785ZM52.2167 22.2007C50.0941 22.2007 48.5375 23.7555 48.5375 25.8757C48.5375 27.9958 50.2356 29.5506 52.2167 29.5506C54.3393 29.5506 55.8959 27.9958 55.8959 25.8757C56.0375 23.8969 54.3393 22.2007 52.2167 22.2007ZM52.2167 28.2785C51.0846 28.2785 50.0941 27.2891 50.0941 26.017C50.0941 24.7449 51.0846 23.7555 52.2167 23.7555C53.3488 23.7555 54.3393 24.6036 54.3393 26.017C54.3393 27.2891 53.3488 28.2785 52.2167 28.2785ZM42.5941 23.4728V25.0276H46.4148C46.2733 25.8757 45.9903 26.5824 45.5658 27.0064C44.9997 27.5718 44.1507 28.1371 42.5941 28.1371C40.3299 28.1371 38.4903 26.2997 38.4903 23.8969C38.4903 21.494 40.3299 19.6566 42.5941 19.6566C43.8676 19.6566 44.7167 20.0806 45.4242 20.7873L46.5563 19.6566C45.5658 18.8085 44.2922 18.1018 42.5941 18.1018C39.3393 18.1018 36.7922 20.646 36.7922 23.8969C36.7922 27.1477 39.4809 29.6919 42.5941 29.6919C44.2922 29.6919 45.5658 29.1265 46.6978 28.1371C47.6884 27.1477 48.1129 25.593 48.1129 24.4622C48.1129 24.0382 48.1129 23.7555 47.9714 23.4728H42.5941ZM82.2167 24.6036C81.9337 23.7555 80.9431 22.2007 78.962 22.2007C76.9808 22.2007 75.4242 23.7555 75.4242 25.8757C75.4242 27.9958 76.9808 29.5506 79.1035 29.5506C80.8016 29.5506 81.7922 28.5612 82.2167 27.8545L80.9431 27.0064C80.5186 27.5718 79.9525 27.9958 79.1035 27.9958C78.2544 27.9958 77.6884 27.5718 77.2639 26.8651L82.2167 24.7449V24.6036ZM77.1224 25.8757C77.1224 24.4622 78.2544 23.7555 79.1035 23.7555C79.811 23.7555 80.2356 24.0382 80.5186 24.6036L77.1224 25.8757ZM73.1601 29.4092H74.8582V18.5258H73.1601V29.4092ZM70.4714 23.0488C70.0469 22.6248 69.3393 22.2007 68.4903 22.2007C66.6507 22.2007 64.9525 23.8969 64.9525 25.8757C64.9525 27.9958 66.6507 29.5506 68.4903 29.5506C69.3393 29.5506 70.0469 29.1265 70.4714 28.7025V29.2679C70.4714 30.6813 69.7639 31.388 68.4903 31.388C67.4997 31.388 66.9337 30.6813 66.6507 30.1159L65.2356 30.6813C65.6601 31.6707 66.7922 32.9428 68.4903 32.9428C70.4714 32.9428 72.028 31.8121 72.028 29.1265V22.4834H70.4714V23.0488ZM68.6318 28.2785C67.4997 28.2785 66.5091 27.2891 66.5091 26.017C66.5091 24.7449 67.4997 23.7555 68.6318 23.7555C69.7639 23.7555 70.6129 24.7449 70.6129 26.017C70.6129 27.2891 69.6224 28.2785 68.6318 28.2785ZM89.8582 18.5258H85.8959V29.4092H87.594V25.3103H89.8582C91.6978 25.3103 93.3959 24.0382 93.3959 21.9181C93.3959 19.7979 91.6978 18.5258 89.8582 18.5258ZM89.9997 23.7555H87.7356V19.9393H89.9997C91.2733 19.9393 91.9808 20.9287 91.9808 21.7767C91.8393 22.7661 91.1318 23.7555 89.9997 23.7555ZM100.047 22.2007C98.9148 22.2007 97.6412 22.7661 97.0752 23.8969L98.4903 24.4622C98.7733 23.8969 99.3393 23.6142 100.047 23.6142C100.896 23.6142 101.745 24.1795 101.745 25.0276V25.1689C101.462 25.0276 100.754 24.7449 100.047 24.7449C98.4903 24.7449 96.9337 25.593 96.9337 27.1477C96.9337 28.5612 98.2073 29.5506 99.6223 29.5506C100.754 29.5506 101.32 29.1265 101.745 28.4198V29.2679H103.302V25.0276C103.443 23.3315 101.886 22.2007 100.047 22.2007ZM99.9054 28.2785C99.3393 28.2785 98.6318 27.9958 98.6318 27.2891C98.6318 26.441 99.6223 26.1583 100.33 26.1583C101.037 26.1583 101.32 26.2997 101.886 26.5824C101.603 27.5718 100.754 28.2785 99.9054 28.2785ZM109.103 22.4834L107.264 27.2891L105.283 22.4834H103.585L106.556 29.1265L104.717 32.8015H106.415L110.943 22.4834H109.103ZM94.3865 29.4092H96.0846V18.5258H94.3865V29.4092Z" fill="#54565A"/>
<path d="M120 9.19736C120 8.91468 120 8.63199 120 8.20796C120 7.50125 120 6.93588 119.858 6.22916C119.717 5.52245 119.575 4.95708 119.292 4.39171C119.009 3.82634 118.585 3.26097 118.16 2.83694C117.736 2.41291 117.17 1.98888 116.604 1.7062C116.038 1.42351 115.33 1.14083 114.623 1.14083C113.774 0.85814 113.066 0.716797 112.5 0.716797C112.217 0.716797 111.934 0.716797 111.509 0.716797C111.085 0.716797 110.802 0.716797 110.377 0.716797H9.62264C9.19811 0.716797 8.77358 0.716797 8.49057 0.716797C8.20755 0.716797 7.78302 0.716797 7.5 0.716797C6.79245 0.716797 6.22641 0.716797 5.51887 0.85814C4.81132 0.999482 4.24528 1.28217 3.67924 1.56485C2.9717 1.84754 2.54717 2.27157 1.98113 2.6956C1.5566 3.26097 1.13208 3.68499 0.849057 4.39171C0.566038 4.95708 0.283019 5.52245 0.141509 6.22916C0.141509 6.93588 0 7.64259 0 8.20796C0 8.49065 0 8.91468 0 9.19736C0 9.62139 0 9.90408 0 10.3281V31.2468C0 31.6709 0 31.9535 0 32.3776C0 32.6603 0 32.9429 0 33.367C0 34.0737 0 34.6391 0.141509 35.3458C0.283019 36.0525 0.424528 36.6179 0.707547 37.1832C0.990566 37.7486 1.41509 38.314 1.83962 38.738C2.26415 39.162 2.83019 39.5861 3.39623 39.8687C4.24528 40.2928 4.81132 40.4341 5.51887 40.5755C6.22641 40.7168 6.79245 40.7168 7.5 40.7168C7.78302 40.7168 8.06604 40.7168 8.49057 40.7168C8.91509 40.7168 9.19811 40.7168 9.62264 40.7168H110.377C110.802 40.7168 111.085 40.7168 111.509 40.7168C111.792 40.7168 112.075 40.7168 112.5 40.7168C113.208 40.7168 113.915 40.7168 114.481 40.5755C115.189 40.4341 115.755 40.2928 116.462 40.0101C117.028 39.7274 117.594 39.3034 118.019 38.8793C118.443 38.4553 118.868 37.8899 119.151 37.3246C119.434 36.7592 119.717 36.0525 119.717 35.4871C119.858 34.7804 119.858 34.215 119.858 33.5083C119.858 33.2256 119.858 32.9429 119.858 32.5189C119.858 32.0949 119.858 31.8122 119.858 31.3882V10.3281C120 9.90408 120 9.48005 120 9.19736ZM119.151 31.2468C119.151 31.6709 119.151 31.9535 119.151 32.3776C119.151 32.6603 119.151 32.9429 119.151 33.367C119.151 33.9323 119.151 34.6391 119.009 35.2044C118.868 35.7698 118.726 36.3352 118.443 36.9005C118.16 37.4659 117.877 37.8899 117.453 38.314C117.028 38.738 116.604 39.0207 116.038 39.3034C115.472 39.5861 115.047 39.7274 114.34 39.8687C113.632 40.0101 113.066 40.0101 112.5 40.0101C112.217 40.0101 111.934 40.0101 111.651 40.0101H110.519L8.49057 39.8687C8.20755 39.8687 7.92453 39.8687 7.64151 39.8687C7.07547 39.8687 6.36792 39.8687 5.80189 39.7274C5.23585 39.5861 4.66981 39.4447 4.10377 39.162C3.53774 38.8793 3.11321 38.5967 2.68868 38.1726C2.26415 37.7486 1.98113 37.3246 1.69811 36.7592C1.41509 36.1938 1.27358 35.7698 1.13208 35.0631C0.990566 34.3564 0.990566 33.6497 0.990566 33.2256C0.990566 33.0843 0.990566 32.3776 0.990566 32.3776V9.19736C0.990566 9.19736 0.990566 8.49065 0.990566 8.34931C0.990566 7.78394 0.990566 7.07722 1.13208 6.51185C1.27358 5.94648 1.41509 5.38111 1.69811 4.81574C1.98113 4.25037 2.26415 3.82634 2.68868 3.40231C3.11321 2.97828 3.53774 2.6956 4.10377 2.41291C4.5283 1.98888 5.09434 1.84754 5.66038 1.7062C6.36792 1.56485 7.07547 1.56485 7.5 1.56485H8.34906H111.368H112.217C112.783 1.56485 113.349 1.56485 114.057 1.7062C114.623 1.84754 115.189 1.98888 115.755 2.27157C116.321 2.55425 116.745 2.83694 117.17 3.26097C117.594 3.68499 117.877 4.10902 118.16 4.67439C118.726 5.23977 118.868 5.80514 119.009 6.37051C119.151 6.93588 119.151 7.64259 119.151 8.20796C119.151 8.49065 119.151 8.77333 119.151 9.05602C119.151 9.48005 119.151 9.76273 119.151 10.1868V31.2468Z" fill="#54565A"/>
<path d="M24.764 25.3107L21.5093 22.0598L10.7546 32.8019C11.0376 32.8019 11.4621 32.8019 11.7451 32.5192L24.764 25.3107Z" fill="#54565A"/>
<path d="M10.0468 11.176V31.6707C10.0468 31.9533 10.0468 32.236 10.1883 32.3774L21.0845 21.494L10.1883 10.4692C10.0468 10.6106 10.0468 10.8933 10.0468 11.176Z" fill="#54565A"/>
<path d="M30.5655 21.3529C30.5655 20.9289 30.2825 20.6462 29.7165 20.3635L25.4712 17.9607L22.075 21.3529L25.4712 24.7451L29.7165 22.3423C30.2825 22.0596 30.5655 21.7769 30.5655 21.3529Z" fill="#54565A"/>
<path d="M24.764 17.5366L11.7451 10.1867C11.4621 9.90405 11.0376 9.90405 10.7546 9.90405L21.5093 20.6461L24.764 17.5366Z" fill="#54565A"/>
</g>
<defs>
<clipPath id="clip0_1_100">
<rect width="120" height="40" fill="white" transform="translate(0 0.716797)"/>
</clipPath>
</defs>
</svg>
