<svg width="46" height="46" viewBox="0 0 46 46" fill="none" xmlns="http://www.w3.org/2000/svg">
<mask id="path-1-inside-1_1_606" fill="white">
<path d="M41.1784 38.8585C40.9672 38.4056 40.6954 37.9901 40.442 37.5646C40.1566 37.0856 39.8175 36.6685 39.5168 36.2037C38.9249 35.2889 38.2065 34.5045 37.739 33.5032C37.1453 32.2315 36.841 30.7421 36.8467 29.3267C36.8495 28.6325 36.8665 27.9352 36.8571 27.2414C36.8514 26.8144 36.7138 26.4472 36.2567 26.4098C36.0144 26.39 35.8097 26.5153 35.584 26.5812C35.2631 26.6749 34.9139 26.6539 34.5843 26.6449C34.2962 26.637 34.008 26.6118 33.7212 26.6486C33.4172 26.6875 33.1298 26.764 32.8202 26.7587C32.1633 26.7473 31.5944 26.8478 30.9459 26.9303C30.656 26.9672 30.3833 26.9612 30.1054 27.0621C30.0644 27.0769 30.0238 27.093 29.9829 27.1082C29.7933 27.1363 29.6046 27.1702 29.4125 27.178C28.8527 27.2009 28.2888 27.1551 27.7286 27.1562C27.132 27.1572 26.5569 27.2899 25.9608 27.2858C25.3542 27.2816 24.7414 27.2661 24.1353 27.2923C23.7458 27.3092 23.4392 27.4637 23.2548 27.8417C22.8049 28.7644 23.0668 29.9478 23.1212 30.9169C23.1547 31.5143 23.3645 32.0647 23.4717 32.6488C23.5914 33.3019 23.6743 34.0124 23.7113 34.6776C23.776 35.8413 24.1351 36.9815 24.5649 38.0529C24.7565 38.5304 24.9979 38.9977 25.2174 39.4622C25.3406 39.7228 25.4662 39.9987 25.6063 40.2493C25.74 40.4885 25.9305 40.6741 26.0667 40.9123C26.1676 41.0887 26.255 41.277 26.3838 41.4338C26.5526 41.6392 26.7644 41.7469 26.9272 41.9646C27.2173 42.3533 27.4942 42.617 27.9626 42.7361C28.4712 42.8652 29.0058 42.8326 29.5238 42.8427C30.1693 42.8554 30.8123 42.8812 31.4543 42.7935C31.9578 42.7248 32.4631 42.7328 32.9668 42.6633C33.2755 42.6207 33.5838 42.6478 33.8914 42.602C34.1364 42.5655 34.3712 42.4773 34.6152 42.4371C35.7966 42.2428 37.0108 42.1743 38.1778 41.8921C39.1696 41.6524 40.4412 41.6079 41.3116 41.0028C42.138 40.4291 41.4938 39.5353 41.1784 38.8585ZM24.1028 32.8822C24.0241 32.2954 23.8032 31.7434 23.7229 31.1603C23.6478 30.6156 23.5784 30.0231 23.5857 29.4711C23.5922 28.9839 23.5689 28.0534 24.1353 27.9745C24.7084 27.8948 25.3808 27.9946 25.9608 28.0009C26.5589 28.0074 27.1327 27.876 27.7286 27.8762C28.2887 27.8762 28.8527 27.925 29.4125 27.901C29.9749 27.8769 30.5335 27.8023 31.0988 27.7765C31.3968 27.7628 31.6836 27.6868 31.9786 27.6651C32.2231 27.6471 32.4602 27.6941 32.7053 27.6506C33.2079 27.5616 33.7111 27.4585 34.2179 27.4167C34.2959 27.4102 34.3711 27.3951 34.4444 27.3748C34.6383 27.3779 34.8332 27.3829 35.0319 27.3776C35.2327 27.3722 35.4481 27.3639 35.6456 27.318C35.7184 27.301 36.14 27.1047 36.1724 27.14C36.209 27.1795 36.1577 27.6865 36.1577 27.7263C36.1576 28.0607 36.157 28.395 36.1563 28.7294C36.1544 29.81 36.1894 30.887 36.491 31.9273C36.6616 32.5156 36.8335 33.124 37.0725 33.6951C35.9915 33.7655 34.8949 33.9421 33.8236 34.0653C32.6362 34.202 31.4715 34.4106 30.279 34.4925C29.1796 34.5681 28.0837 34.7116 26.9844 34.8001C26.4183 34.8457 25.8541 34.872 25.2889 34.9181C25.0228 34.9398 24.7501 34.9517 24.4857 34.9933C24.4663 34.9963 24.4017 35.0179 24.3319 35.0433C24.2285 34.3277 24.1973 33.5882 24.1028 32.8822ZM25.9917 39.5878C25.8936 39.4155 25.7994 39.2392 25.7113 39.0494C25.2496 38.0536 24.8405 37.0651 24.5305 36.0019C24.4881 35.8564 24.4532 35.7082 24.422 35.5588C24.5381 35.5611 24.6546 35.5476 24.7426 35.5413C25.3148 35.5007 25.8887 35.4831 26.4614 35.4601C27.6314 35.4128 28.7904 35.2141 29.9588 35.1507C30.1174 35.1421 30.2743 35.1301 30.4318 35.1196C30.4469 35.1207 30.4617 35.1208 30.477 35.1222C31.0178 35.1737 31.527 35.2591 32.0752 35.2301C32.5819 35.2031 33.084 35.0244 33.5852 34.9379C34.131 34.8437 34.672 34.7298 35.2141 34.6268C35.2888 34.6191 35.3636 34.6127 35.438 34.6039C36.0895 34.5273 36.7433 34.395 37.3985 34.3619C37.4571 34.4644 37.5179 34.5653 37.584 34.6629C38.112 35.4417 38.6702 36.2221 39.2389 36.9658C39.5351 37.3533 39.845 37.7438 40.0443 38.2025C40.0925 38.3133 40.1489 38.4168 40.2085 38.5176C39.7467 38.4295 39.2501 38.4238 38.803 38.3889C38.158 38.3387 37.5167 38.2088 36.8746 38.1188C36.0963 38.0098 35.3214 37.9631 34.549 37.8021C33.8148 37.6489 33.1609 37.3488 32.4611 37.0922C31.8955 36.8848 31.1505 36.4861 30.5496 36.6891C29.9667 36.886 29.4099 37.3821 28.8784 37.7008C28.2599 38.0716 27.6443 38.4742 27.0376 38.8667C26.739 39.0601 26.2756 39.2837 25.9917 39.5878ZM40.9391 40.4482C40.5482 40.7666 39.7981 40.8472 39.3297 40.9488C38.2605 41.1808 37.2053 41.3973 36.1208 41.5248C35.1465 41.6392 34.195 41.8901 33.22 41.9581C32.1871 42.0301 31.1629 42.2033 30.1248 42.1905C29.5957 42.184 29.0567 42.2019 28.5289 42.1597C28.2774 42.1396 27.992 42.1052 27.7725 41.9621C27.5223 41.7989 27.4213 41.4979 27.2112 41.2933C27.0694 41.155 26.9055 41.0837 26.7868 40.9122C26.6726 40.7472 26.5993 40.5529 26.4885 40.3854C26.4133 40.2718 26.3428 40.1607 26.2717 40.0493C26.5929 39.9434 26.9151 39.6764 27.1563 39.5164C27.4158 39.3441 27.6792 39.1809 27.9429 39.0184C28.3126 38.8221 28.679 38.619 29.0368 38.4048C29.3203 38.235 29.6131 38.08 29.8813 37.8832C30.0677 37.7464 30.2435 37.5474 30.4424 37.41C30.5293 37.359 30.6175 37.3174 30.707 37.2944C30.7674 37.2788 30.8323 37.2722 30.899 37.27C31.1602 37.3019 31.4926 37.4704 31.7097 37.5306C32.0225 37.6176 32.3234 37.7807 32.6293 37.8954C32.8177 37.9659 33.0063 38.031 33.1953 38.0924C33.4954 38.2011 33.8 38.2876 34.1075 38.3583C35.0134 38.5952 35.9288 38.7628 36.86 38.9346C37.4881 39.0505 38.0899 39.0877 38.718 39.1473C39.0148 39.1755 39.292 39.2844 39.5931 39.2661C39.8034 39.2534 40.0133 39.2174 40.2237 39.1854C40.275 39.1977 40.3252 39.2129 40.3753 39.2281C40.4406 39.2941 40.5352 39.3249 40.6503 39.2827C40.6543 39.2811 40.6583 39.2797 40.6623 39.2782C40.6749 39.3037 40.6892 39.3276 40.7011 39.354C40.8341 39.6492 41.2299 40.2113 40.9391 40.4482Z"/>
</mask>
<path d="M41.1784 38.8585C40.9672 38.4056 40.6954 37.9901 40.442 37.5646C40.1566 37.0856 39.8175 36.6685 39.5168 36.2037C38.9249 35.2889 38.2065 34.5045 37.739 33.5032C37.1453 32.2315 36.841 30.7421 36.8467 29.3267C36.8495 28.6325 36.8665 27.9352 36.8571 27.2414C36.8514 26.8144 36.7138 26.4472 36.2567 26.4098C36.0144 26.39 35.8097 26.5153 35.584 26.5812C35.2631 26.6749 34.9139 26.6539 34.5843 26.6449C34.2962 26.637 34.008 26.6118 33.7212 26.6486C33.4172 26.6875 33.1298 26.764 32.8202 26.7587C32.1633 26.7473 31.5944 26.8478 30.9459 26.9303C30.656 26.9672 30.3833 26.9612 30.1054 27.0621C30.0644 27.0769 30.0238 27.093 29.9829 27.1082C29.7933 27.1363 29.6046 27.1702 29.4125 27.178C28.8527 27.2009 28.2888 27.1551 27.7286 27.1562C27.132 27.1572 26.5569 27.2899 25.9608 27.2858C25.3542 27.2816 24.7414 27.2661 24.1353 27.2923C23.7458 27.3092 23.4392 27.4637 23.2548 27.8417C22.8049 28.7644 23.0668 29.9478 23.1212 30.9169C23.1547 31.5143 23.3645 32.0647 23.4717 32.6488C23.5914 33.3019 23.6743 34.0124 23.7113 34.6776C23.776 35.8413 24.1351 36.9815 24.5649 38.0529C24.7565 38.5304 24.9979 38.9977 25.2174 39.4622C25.3406 39.7228 25.4662 39.9987 25.6063 40.2493C25.74 40.4885 25.9305 40.6741 26.0667 40.9123C26.1676 41.0887 26.255 41.277 26.3838 41.4338C26.5526 41.6392 26.7644 41.7469 26.9272 41.9646C27.2173 42.3533 27.4942 42.617 27.9626 42.7361C28.4712 42.8652 29.0058 42.8326 29.5238 42.8427C30.1693 42.8554 30.8123 42.8812 31.4543 42.7935C31.9578 42.7248 32.4631 42.7328 32.9668 42.6633C33.2755 42.6207 33.5838 42.6478 33.8914 42.602C34.1364 42.5655 34.3712 42.4773 34.6152 42.4371C35.7966 42.2428 37.0108 42.1743 38.1778 41.8921C39.1696 41.6524 40.4412 41.6079 41.3116 41.0028C42.138 40.4291 41.4938 39.5353 41.1784 38.8585ZM24.1028 32.8822C24.0241 32.2954 23.8032 31.7434 23.7229 31.1603C23.6478 30.6156 23.5784 30.0231 23.5857 29.4711C23.5922 28.9839 23.5689 28.0534 24.1353 27.9745C24.7084 27.8948 25.3808 27.9946 25.9608 28.0009C26.5589 28.0074 27.1327 27.876 27.7286 27.8762C28.2887 27.8762 28.8527 27.925 29.4125 27.901C29.9749 27.8769 30.5335 27.8023 31.0988 27.7765C31.3968 27.7628 31.6836 27.6868 31.9786 27.6651C32.2231 27.6471 32.4602 27.6941 32.7053 27.6506C33.2079 27.5616 33.7111 27.4585 34.2179 27.4167C34.2959 27.4102 34.3711 27.3951 34.4444 27.3748C34.6383 27.3779 34.8332 27.3829 35.0319 27.3776C35.2327 27.3722 35.4481 27.3639 35.6456 27.318C35.7184 27.301 36.14 27.1047 36.1724 27.14C36.209 27.1795 36.1577 27.6865 36.1577 27.7263C36.1576 28.0607 36.157 28.395 36.1563 28.7294C36.1544 29.81 36.1894 30.887 36.491 31.9273C36.6616 32.5156 36.8335 33.124 37.0725 33.6951C35.9915 33.7655 34.8949 33.9421 33.8236 34.0653C32.6362 34.202 31.4715 34.4106 30.279 34.4925C29.1796 34.5681 28.0837 34.7116 26.9844 34.8001C26.4183 34.8457 25.8541 34.872 25.2889 34.9181C25.0228 34.9398 24.7501 34.9517 24.4857 34.9933C24.4663 34.9963 24.4017 35.0179 24.3319 35.0433C24.2285 34.3277 24.1973 33.5882 24.1028 32.8822ZM25.9917 39.5878C25.8936 39.4155 25.7994 39.2392 25.7113 39.0494C25.2496 38.0536 24.8405 37.0651 24.5305 36.0019C24.4881 35.8564 24.4532 35.7082 24.422 35.5588C24.5381 35.5611 24.6546 35.5476 24.7426 35.5413C25.3148 35.5007 25.8887 35.4831 26.4614 35.4601C27.6314 35.4128 28.7904 35.2141 29.9588 35.1507C30.1174 35.1421 30.2743 35.1301 30.4318 35.1196C30.4469 35.1207 30.4617 35.1208 30.477 35.1222C31.0178 35.1737 31.527 35.2591 32.0752 35.2301C32.5819 35.2031 33.084 35.0244 33.5852 34.9379C34.131 34.8437 34.672 34.7298 35.2141 34.6268C35.2888 34.6191 35.3636 34.6127 35.438 34.6039C36.0895 34.5273 36.7433 34.395 37.3985 34.3619C37.4571 34.4644 37.5179 34.5653 37.584 34.6629C38.112 35.4417 38.6702 36.2221 39.2389 36.9658C39.5351 37.3533 39.845 37.7438 40.0443 38.2025C40.0925 38.3133 40.1489 38.4168 40.2085 38.5176C39.7467 38.4295 39.2501 38.4238 38.803 38.3889C38.158 38.3387 37.5167 38.2088 36.8746 38.1188C36.0963 38.0098 35.3214 37.9631 34.549 37.8021C33.8148 37.6489 33.1609 37.3488 32.4611 37.0922C31.8955 36.8848 31.1505 36.4861 30.5496 36.6891C29.9667 36.886 29.4099 37.3821 28.8784 37.7008C28.2599 38.0716 27.6443 38.4742 27.0376 38.8667C26.739 39.0601 26.2756 39.2837 25.9917 39.5878ZM40.9391 40.4482C40.5482 40.7666 39.7981 40.8472 39.3297 40.9488C38.2605 41.1808 37.2053 41.3973 36.1208 41.5248C35.1465 41.6392 34.195 41.8901 33.22 41.9581C32.1871 42.0301 31.1629 42.2033 30.1248 42.1905C29.5957 42.184 29.0567 42.2019 28.5289 42.1597C28.2774 42.1396 27.992 42.1052 27.7725 41.9621C27.5223 41.7989 27.4213 41.4979 27.2112 41.2933C27.0694 41.155 26.9055 41.0837 26.7868 40.9122C26.6726 40.7472 26.5993 40.5529 26.4885 40.3854C26.4133 40.2718 26.3428 40.1607 26.2717 40.0493C26.5929 39.9434 26.9151 39.6764 27.1563 39.5164C27.4158 39.3441 27.6792 39.1809 27.9429 39.0184C28.3126 38.8221 28.679 38.619 29.0368 38.4048C29.3203 38.235 29.6131 38.08 29.8813 37.8832C30.0677 37.7464 30.2435 37.5474 30.4424 37.41C30.5293 37.359 30.6175 37.3174 30.707 37.2944C30.7674 37.2788 30.8323 37.2722 30.899 37.27C31.1602 37.3019 31.4926 37.4704 31.7097 37.5306C32.0225 37.6176 32.3234 37.7807 32.6293 37.8954C32.8177 37.9659 33.0063 38.031 33.1953 38.0924C33.4954 38.2011 33.8 38.2876 34.1075 38.3583C35.0134 38.5952 35.9288 38.7628 36.86 38.9346C37.4881 39.0505 38.0899 39.0877 38.718 39.1473C39.0148 39.1755 39.292 39.2844 39.5931 39.2661C39.8034 39.2534 40.0133 39.2174 40.2237 39.1854C40.275 39.1977 40.3252 39.2129 40.3753 39.2281C40.4406 39.2941 40.5352 39.3249 40.6503 39.2827C40.6543 39.2811 40.6583 39.2797 40.6623 39.2782C40.6749 39.3037 40.6892 39.3276 40.7011 39.354C40.8341 39.6492 41.2299 40.2113 40.9391 40.4482Z" stroke="#23F38D" stroke-width="2" mask="url(#path-1-inside-1_1_606)"/>
<path d="M32.5107 29.8441L32.4894 29.7681L32.5107 29.8441Z" stroke="#23F38D"/>
<mask id="path-3-inside-2_1_606" fill="white">
<path d="M44.6783 39.0036C44.2327 38.4421 43.8201 37.8514 43.4691 37.2175C43.0895 36.5321 42.6061 35.9206 42.2183 35.2411C42.1608 35.1403 42.1055 35.0388 42.0495 34.9375C42.4567 34.9385 42.8617 34.9078 43.2488 34.773C44.0917 34.4796 44.4787 33.7636 44.5667 32.8607C44.5907 32.6142 44.5609 32.3679 44.6002 32.1246C44.6386 31.8871 44.6756 31.6853 44.6817 31.439C44.6871 31.2139 44.746 31.0162 44.7741 30.7924C44.814 30.4744 44.7862 30.1583 44.781 29.8391C44.7614 28.6092 44.8392 27.3955 44.8794 26.169C44.8995 25.5554 45.017 24.9567 45.0694 24.3473C45.1157 23.8102 45.0582 23.2782 45.1251 22.7419C45.2731 21.5573 45.2789 20.3773 45.2776 19.1845C45.2764 17.9115 45.2755 16.6385 45.2746 15.3656C45.2743 14.8809 45.3392 14.3631 45.2684 13.8839C45.1911 13.3603 45.2067 12.8524 45.1489 12.3285C45.0803 11.7084 45.0697 11.0811 44.9881 10.4628C44.9167 9.92262 44.8936 9.39379 44.6637 8.89906C44.2661 8.04362 43.7539 7.43726 42.8866 7.11246C42.0148 6.78594 41.0294 6.84737 40.1208 6.75841C40.0957 6.75603 40.0704 6.75346 40.0454 6.75108C40.0943 6.46542 40.0652 6.18386 40.007 5.89449C40.4441 5.91535 40.8792 5.91011 41.2493 5.62132C42.1657 4.90627 41.8919 3.24921 41.7003 2.24299C41.6134 1.78731 41.5193 1.25877 41.1594 0.955585C40.7659 0.624115 40.16 0.527245 39.6765 0.497718C38.2964 0.413517 36.8892 0.515148 35.5059 0.50429C34.6929 0.497908 33.2845 0.216635 32.7066 1.02293C32.4515 1.37869 32.3041 1.92961 32.1866 2.35557C32.0468 2.8623 31.9554 3.42323 32.069 3.94625C32.2955 4.98952 33.2143 5.29423 34.1166 5.39376C34.0998 5.49359 34.089 5.59493 34.0782 5.69399C34.0598 5.86458 34.0429 6.03765 34.0539 6.20806C33.8545 6.1871 33.655 6.16434 33.4544 6.13633C32.9506 6.06585 32.4912 6.04642 32.0025 5.87563C31.7467 5.78619 31.4262 5.75905 31.1829 5.64818C30.9349 5.5353 30.7336 5.27946 30.5575 5.06763C30.2061 4.64519 30.1888 4.12856 29.9613 3.63583C29.7234 3.121 29.3532 2.70742 29.0848 2.21431C28.8636 1.80769 28.6824 1.34192 28.3558 1.01416C28.0601 0.717364 27.6346 0.531341 27.2427 0.432662C26.6954 0.29474 26.1204 0.352652 25.5637 0.360557C24.8653 0.370368 24.1665 0.370083 23.4682 0.374369C22.7738 0.378655 22.0817 0.386466 21.3886 0.434853C20.7366 0.480477 20.0617 0.462285 19.4153 0.555915C18.822 0.641736 18.2366 0.638307 17.6407 0.703077C16.9963 0.773181 16.5187 0.969872 15.9429 1.27048C15.8131 1.3383 15.6985 1.41259 15.5926 1.4926C15.5521 1.5128 15.5117 1.53328 15.4719 1.55537C15.0165 1.80836 14.7278 2.2407 14.409 2.65418C14.1031 3.05109 13.8323 3.43437 13.6212 3.89777C13.4369 4.30201 13.2588 4.72692 13.0107 5.09306C12.7621 5.45987 12.5021 5.62179 12.0897 5.68732C11.5058 5.78019 10.9181 5.84849 10.3373 5.95136C10.0534 6.00165 9.7674 5.99622 9.48134 5.99936C9.48664 5.82191 9.45053 5.6476 9.42537 5.46892C9.42178 5.44377 9.41791 5.419 9.4136 5.39452C9.43004 5.39224 9.44639 5.39148 9.46274 5.38881C9.67846 5.35423 9.86596 5.30489 10.0819 5.27822C10.2943 5.25194 10.4876 5.14592 10.642 4.988C10.9359 4.68777 11.3212 4.27515 11.4369 3.85176C11.5063 3.59763 11.4865 3.32826 11.5192 3.06918C11.5609 2.73924 11.6367 2.45301 11.5979 2.11887C11.5468 1.67882 11.5069 1.12989 11.2783 0.74613C10.9847 0.25283 10.5672 0.26264 10.0786 0.229874C9.59464 0.197394 9.14416 0.118337 8.65335 0.123194C8.01249 0.129386 7.37622 0.167676 6.74534 0.0488992C6.24222 -0.0458746 5.69848 0.025944 5.18853 0.0279443C4.62782 0.0302303 4.0884 0.0998581 3.53478 0.131672C3.0277 0.160913 2.65997 0.356748 2.58001 0.933201C2.49817 1.52261 2.58531 2.17945 2.58082 2.7761C2.5801 2.8783 2.57714 2.9826 2.57408 3.08785C2.54677 3.42723 2.53347 3.76918 2.57705 4.09027C2.65225 4.64415 2.91926 4.90446 3.26875 5.04743C3.41646 5.12887 3.57925 5.1725 3.75238 5.18002C3.92928 5.21307 4.1131 5.23822 4.29468 5.26965C4.20421 5.64484 4.20519 6.07518 4.28668 6.42742C4.28911 6.43761 4.2927 6.44771 4.29629 6.45799C4.25892 6.46114 4.22154 6.46456 4.18408 6.46714C3.30658 6.52591 2.50248 6.7406 1.95929 7.52175C1.32283 8.437 0.862027 9.57124 0.563117 10.6593C-0.101815 13.0799 0.473184 15.679 0.166997 18.1436C0.0972786 18.7052 0.149028 19.2766 0.124861 19.8416C0.0965598 20.5033 -0.0101743 21.147 0.000786643 21.8121C0.0220796 23.0956 0.0281889 24.3778 0.0278295 25.6617C0.02756 26.2674 0.0191147 26.8717 0.0083335 27.4772C-0.0028071 28.0993 0.107072 28.686 0.129353 29.2985C0.171759 30.4663 0.138337 31.6482 0.253337 32.8124C0.353692 33.8285 1.08789 34.7074 2.02047 34.9883C2.43959 35.1147 2.86581 35.1519 3.29634 35.1742C3.85903 35.2032 4.41794 35.3922 4.98009 35.4543C6.26728 35.5963 7.58349 35.5079 8.87571 35.5085C10.2114 35.5092 11.5584 35.4526 12.89 35.5728C14.2264 35.6933 15.5885 35.6205 16.9291 35.6213C18.3417 35.622 19.7544 35.6221 21.1671 35.6221C21.2712 35.8683 21.3902 36.1046 21.5163 36.3463C21.8886 37.6948 22.3536 38.985 22.9482 40.2581C23.1245 40.6355 23.3385 40.9862 23.5286 41.3551C23.6979 41.6839 23.9317 41.9358 24.1105 42.2494C24.4785 42.8945 24.8575 43.4656 25.3544 44.0167C25.7645 44.4717 26.1177 45.0181 26.56 45.4351C27.0946 45.9391 27.744 46.0235 28.4376 45.9952C29.2153 45.9634 29.9832 45.8074 30.7537 45.7331C31.0918 45.7005 31.4073 45.5403 31.7451 45.5377C32.1106 45.5349 32.43 45.4973 32.7861 45.4016C33.1752 45.2969 33.5454 45.3483 33.9394 45.2896C34.3174 45.2334 34.692 45.144 35.0686 45.0782C35.4372 45.0138 35.7845 44.8811 36.1579 44.8419C36.5741 44.7982 36.9816 44.722 37.3962 44.6662C39.0515 44.4436 40.6817 44.0855 42.3221 43.7681C43.0207 43.6329 43.6888 43.3471 44.3885 43.1988C44.8421 43.1025 45.3382 42.9665 45.6737 42.6051C46.6055 41.6005 45.3092 39.799 44.6783 39.0036ZM10.4781 1.32049C10.6411 1.49689 10.6582 2.26851 10.6375 2.4954C10.6058 2.84392 10.5699 3.47114 10.3816 3.7447C10.308 3.85147 10.1957 3.94663 10.1129 4.04807C9.94574 4.25267 10.027 4.20657 9.85401 4.23552C9.79112 4.24609 9.73192 4.25772 9.67244 4.26934C9.66462 4.18323 9.656 4.09531 9.65007 4.00149C9.6277 3.64973 9.66795 3.29255 9.65654 2.94041C9.6418 2.48435 9.6038 2.02972 9.59185 1.57185C9.58817 1.42945 9.58439 1.29439 9.57092 1.16256C9.82329 1.18228 10.3546 1.18685 10.4781 1.32049ZM43.5545 30.7566C43.5079 30.9966 43.4787 31.1922 43.4716 31.4389C43.4643 31.6931 43.3853 31.9236 43.37 32.1797C43.347 32.5637 43.4457 33.1386 43.1221 33.4192C42.713 33.7742 41.9504 33.6801 41.3644 33.6307C41.3088 33.5202 41.2531 33.4097 41.1979 33.2986C41.0535 33.0086 40.8453 32.7728 40.7109 32.473C40.5516 32.1178 40.3936 31.753 40.2544 31.3887C39.9975 30.717 39.776 30.0334 39.5813 29.3397C39.7244 29.312 39.8626 29.269 40.0137 29.2776C40.2181 29.2892 40.4216 29.3591 40.6252 29.3843C41.0878 29.4415 41.5499 29.4106 42.0128 29.4872C42.462 29.5616 42.9069 29.5596 43.3603 29.5325C43.4545 29.5269 43.5319 29.4964 43.5957 29.4522C43.615 29.8944 43.6338 30.3481 43.5545 30.7566ZM44.1056 16.5677C44.1046 17.7629 44.1041 18.9581 44.1028 20.1534C44.1018 21.2016 43.9156 22.2311 43.8954 23.2733C43.8713 24.5276 43.7588 25.7871 43.6515 27.0385C43.6058 27.5733 43.5858 28.0993 43.5806 28.6337C43.5196 28.5978 43.4473 28.574 43.3602 28.5716C42.4399 28.5464 41.4869 28.5758 40.572 28.4557C40.1629 28.402 39.8405 28.3634 39.4343 28.4684C39.4062 28.4756 39.3776 28.481 39.3487 28.4855C39.1693 27.8188 39.0083 27.182 39.0238 26.4663C39.0399 25.7157 39.1708 24.8834 38.9687 24.1498C38.7794 23.4628 38.1924 23.3188 37.5905 23.3226C36.0027 23.3328 34.4377 23.456 32.8557 23.5862C32.4045 23.6235 31.9561 23.6842 31.5076 23.745C31.5859 23.6148 31.649 23.4815 31.6913 23.3597C31.958 22.5925 32.0349 21.6849 32.0993 20.8786C32.166 20.0416 31.8269 19.1038 31.5488 18.3322C31.2599 17.531 30.9829 16.7381 30.4355 16.1034C30.2016 15.8324 30.0158 15.5179 29.7922 15.2367C29.6809 15.0966 29.5603 14.9693 29.4356 14.8466C29.5341 14.847 29.6328 14.8467 29.7313 14.8461C30.0931 14.8439 30.455 14.8312 30.8169 14.8367C31.4745 14.8466 32.1027 14.9844 32.7652 14.9849C33.4269 14.9854 34.0955 15.0215 34.7564 14.9897C35.4406 14.9567 36.1328 14.7939 36.8203 14.9078C38.0382 15.1097 39.2742 14.9207 40.5047 15.0752C41.1559 15.157 41.8134 15.1297 42.468 15.1393C42.9869 15.1469 43.6203 15.1228 44.1064 14.9126C44.1015 15.4643 44.106 16.0161 44.1056 16.5677ZM29.0583 20.8211C29.0281 20.405 28.9582 20.0195 28.8811 19.6108C28.5872 18.0529 27.5146 16.982 26.4836 15.9299C26.0156 15.4525 25.3056 15.1275 24.7057 14.8836C24.024 14.6066 23.256 14.463 22.5304 14.4071C21.8271 14.353 21.2086 14.3413 20.5077 14.4909C19.9594 14.6079 19.4469 14.7828 18.9469 15.0141C18.7977 15.0605 18.649 15.112 18.5028 15.1696C17.8788 15.4149 17.2594 15.7589 16.8285 16.3107C16.6185 16.5796 16.473 16.8921 16.3031 17.1889C16.1148 17.5178 15.8678 17.8046 15.686 18.1373C14.9108 19.5569 14.8763 21.2479 14.8784 22.8433C14.8796 23.6983 14.9491 24.5277 15.3136 25.3034C15.4613 25.6175 15.6115 25.948 15.7869 26.2453C15.959 26.5365 16.2009 26.7449 16.3669 27.0393C16.5062 27.2864 16.7265 27.5064 16.9002 27.7311C17.1741 28.0859 17.5564 28.3936 17.9038 28.6638C18.216 28.9065 18.5629 29.0825 18.9256 29.2238C19.2531 29.3514 19.6774 29.3226 19.9862 29.4961C20.0095 29.7875 20.0424 30.0784 20.0817 30.3689C19.8892 30.4043 19.7036 30.4385 19.4866 30.4067C19.1393 30.3561 18.7918 30.2607 18.4563 30.1554C17.8452 29.9634 17.2409 29.5992 16.6595 29.3113C15.3743 28.675 14.2501 27.7588 13.8139 26.2861C13.6055 25.5828 13.3991 24.929 13.3269 24.1896C13.2521 23.4217 13.2724 22.6018 13.3277 21.8322C13.4338 20.3576 13.8826 18.6978 14.5222 17.3787C15.1309 16.1232 16.1195 14.9484 17.2944 14.2748C18.4524 13.6108 19.635 12.9413 20.9827 12.9159C21.2908 12.91 21.5949 12.8229 21.8924 12.8369C22.1929 12.8511 22.5482 12.8646 22.8434 12.9146C23.4803 13.0224 24.112 13.1772 24.711 13.4304C25.9976 13.9741 27.3507 14.4419 28.4334 15.3921C28.9661 15.8596 29.3742 16.4478 29.8178 17.0046C30.3201 17.635 30.5952 18.6477 30.8183 19.432C30.9237 19.8024 31.0656 20.1898 31.0972 20.5785C31.16 21.3503 31.0105 22.1588 30.8221 22.8993C30.7253 23.2799 30.6782 23.8331 30.2718 23.9291C30.0734 23.976 28.6639 23.8681 28.6143 24.0553C28.7921 23.3847 29.0725 22.7446 29.1455 22.0398C29.1889 21.6213 29.0884 21.2345 29.0583 20.8211ZM27.6917 24.1555C27.6885 24.1721 27.6885 24.1874 27.6868 24.2034C27.1187 24.261 26.545 24.2522 25.9743 24.358C25.6029 24.4268 25.2488 24.3883 24.8768 24.425C24.5437 24.4579 24.2532 24.5287 23.9142 24.535C23.1907 24.5483 22.4041 24.6512 21.6925 24.7937C21.0648 24.9195 20.4186 24.8844 20.2043 25.6677C20.1152 25.9929 20.0787 26.3595 20.0692 26.6949C20.0571 27.1228 20.0111 27.5286 19.9766 27.9535C19.96 28.1587 19.9517 28.3637 19.9501 28.5684C19.8564 28.5473 19.7593 28.5313 19.6575 28.5152C19.2227 28.4458 18.8137 28.2812 18.4432 28.0271C17.8449 27.6164 17.2989 27.0343 16.9235 26.4074C16.7165 26.0617 16.4209 25.8351 16.2284 25.4666C15.9808 24.9927 15.7408 24.5571 15.6422 24.0165C15.4565 22.9985 15.4967 21.7982 15.6106 20.7722C15.7072 19.9007 15.8919 19.0142 16.3631 18.2765C16.5168 18.0358 16.6617 17.7786 16.8127 17.5244C16.8611 17.4704 16.9079 17.4155 16.9445 17.3535C16.9782 17.2962 17.003 17.2364 17.0274 17.1763C17.1578 16.9745 17.2966 16.7809 17.4523 16.6063C17.9676 16.1548 18.7245 15.8683 19.297 15.6328C20.0032 15.3422 20.8988 15.1447 21.6603 15.1439C22.4203 15.1432 23.2445 15.3558 23.9762 15.5624C24.7573 15.783 25.5442 16.2096 26.1064 16.8207C26.386 17.1245 26.7194 17.3675 26.9897 17.6818C27.2621 17.9987 27.4788 18.3791 27.664 18.7597C28.0576 19.5683 28.1229 20.3348 28.2374 21.2249C28.3773 22.3101 27.896 23.1278 27.6917 24.1555ZM39.3566 4.88694C39.5043 4.42031 39.4011 3.71889 39.4398 3.21863C39.4826 2.66247 39.5875 1.98638 39.495 1.39926C39.895 1.40421 40.4596 1.4405 40.6658 1.75902C40.8861 2.09897 40.9081 2.76953 40.9391 3.15567C40.9744 3.59906 41.0727 4.25953 40.8574 4.66824C40.6485 5.06477 40.1854 4.95485 39.8254 4.93809C39.665 4.93056 39.5043 4.92866 39.3437 4.92809C39.348 4.91418 39.3525 4.90027 39.3566 4.88694ZM37.8942 1.40059C38.2513 1.40183 38.6083 1.39945 38.9655 1.39869C38.9736 1.52289 38.9773 1.6472 38.9785 1.77169C38.8731 2.63551 38.6622 3.9673 38.7448 4.7012C38.74 4.77769 38.7358 4.85398 38.7327 4.93028C38.7302 4.99124 37.7283 4.87093 37.6488 4.84788C37.5393 4.81598 37.4659 4.78388 37.416 4.74816C37.4257 4.70139 37.4336 4.65367 37.4393 4.60452C37.485 4.20133 37.4662 3.75994 37.4914 3.35151C37.5332 2.67818 37.5129 2.04496 37.4042 1.40107C37.5675 1.40116 37.7307 1.40002 37.8942 1.40059ZM35.9511 2.82277C35.9674 2.3591 36.0323 1.86808 35.9748 1.40269C36.3248 1.40183 36.6746 1.40164 37.0246 1.40164C36.9792 1.87246 36.9915 2.36167 36.9542 2.83382C36.9215 3.24921 36.731 4.04131 36.7831 4.62633C36.6721 4.62405 36.5616 4.62014 36.4528 4.60795C36.275 4.58804 36.1018 4.56404 35.9289 4.54061C35.9342 4.30105 35.9135 4.04645 35.9161 3.84147C35.9206 3.50105 35.9392 3.16158 35.9511 2.82277ZM38.002 5.85658C38.4501 5.89859 38.9034 5.8763 39.3549 5.87487C39.3265 6.01594 39.2988 6.15719 39.2682 6.29816C39.2399 6.42875 39.2067 6.54819 39.1871 6.66897C38.3826 6.59544 37.5729 6.53524 36.7735 6.52686C36.2405 6.52114 35.7222 6.34769 35.1909 6.30731C35.0783 6.29883 34.9664 6.28988 34.8544 6.28102C34.877 6.08709 34.8576 5.88868 34.8364 5.6938C34.8277 5.61274 34.8188 5.53026 34.8067 5.44815C35.8671 5.59426 36.9395 5.75695 38.002 5.85658ZM33.6902 2.55026C33.6395 3.12214 33.5656 3.73432 33.5605 4.31858C32.7001 4.06226 32.8889 3.06242 33.132 2.30947C33.2392 1.97724 33.3073 1.55928 33.6577 1.46098C33.681 1.45441 33.7052 1.44993 33.7293 1.44488C33.6835 1.81807 33.718 2.23832 33.6902 2.55026ZM34.0821 4.40688C34.1075 3.73403 34.1898 3.05661 34.2295 2.38596C34.2449 2.12535 34.3054 1.73102 34.268 1.3964C34.4757 1.3965 34.6842 1.40898 34.8779 1.40736C35.0729 1.40574 35.2678 1.40545 35.4626 1.40431C35.4327 2.04639 35.4213 2.67713 35.2981 3.31198C35.226 3.68336 35.2316 4.07788 35.24 4.46717C35.1782 4.46374 35.1159 4.46136 35.053 4.46031C34.7358 4.45526 34.4052 4.44164 34.0821 4.40688ZM9.10023 1.11894C9.09978 1.13532 9.09996 1.15142 9.09978 1.16771C9.01353 1.71749 9.10112 2.34386 9.12448 2.85735C9.14721 3.35846 9.11694 3.85405 9.13706 4.35201C9.04587 4.35887 8.95243 4.36154 8.85244 4.35392C8.68758 4.34144 8.53224 4.34201 8.37887 4.35039C8.29262 3.29264 8.49926 2.16536 8.29774 1.12608C8.56584 1.11513 8.83393 1.10665 9.10023 1.11894ZM6.97992 1.10894C7.26418 1.14675 7.55132 1.14932 7.83927 1.14208C7.81079 1.57147 7.81627 1.99638 7.80666 2.4353C7.79219 3.09595 7.71727 3.76032 7.72625 4.42135C7.72113 4.42212 7.71619 4.42259 7.71107 4.42336C7.34307 4.47555 6.96141 4.4485 6.58883 4.45203C6.66187 4.04769 6.54364 3.56696 6.52747 3.16386C6.52666 3.07919 6.5254 2.99441 6.52486 2.90964C6.52675 2.39834 6.55038 1.84855 6.49216 1.32725C6.49135 1.31058 6.49117 1.29382 6.49036 1.27724C6.48578 1.18895 6.47141 1.11494 6.45155 1.04588C6.45128 1.04426 6.4511 1.04274 6.45074 1.04102C6.6245 1.05941 6.79763 1.08465 6.97992 1.10894ZM7.92786 5.43367C8.20673 5.38795 8.48273 5.40195 8.75801 5.41196C8.71588 5.63522 8.69108 5.87335 8.75145 6.06528C8.22308 6.17281 7.67127 6.22558 7.13418 6.22425C6.62459 6.22311 6.12757 6.32712 5.61825 6.3356C5.39966 6.33912 5.18161 6.36036 4.96356 6.38513C4.97111 6.33445 4.96931 6.28216 4.95602 6.23149C4.88567 5.96212 4.89025 5.66799 4.85683 5.3871C5.27119 5.47168 5.67162 5.51978 6.10718 5.50968C6.7085 5.49539 7.33265 5.5313 7.92786 5.43367ZM5.90917 1.0135C5.9451 1.01283 5.97924 1.01474 6.01419 1.0155C5.89524 1.65815 5.94798 2.36224 5.93288 2.99946C5.92498 3.33331 5.93908 3.65373 5.95912 3.98635C5.97026 4.17304 5.95238 4.32306 5.96568 4.46631C5.70037 4.4685 5.43623 4.45745 5.17191 4.40269C5.09707 4.38716 5.02322 4.37106 4.94982 4.35516C4.94874 4.33487 4.94595 4.31391 4.94164 4.29239C4.93625 4.26581 4.93266 4.23828 4.92789 4.21123C4.9402 3.55858 4.92178 2.90431 4.92062 2.25203C4.92017 1.96257 4.87561 1.69454 4.82368 1.42688C4.8155 1.28629 4.8022 1.14713 4.78019 1.01197C5.15646 1.01188 5.53299 1.01997 5.90917 1.0135ZM4.25245 3.03794C4.24985 3.36627 4.26296 3.68374 4.24805 4.01102C4.24472 4.0835 4.24194 4.15418 4.24419 4.22238C4.16485 4.2118 4.08489 4.20285 4.00331 4.19733C3.90485 4.19056 3.74232 4.20152 3.63244 4.15685C3.4966 3.97901 3.48878 3.69583 3.48824 3.44628C3.48824 3.44161 3.4886 3.43533 3.4886 3.43094C3.4886 3.41809 3.48815 3.40532 3.48815 3.39246V3.39123C3.48752 2.9184 3.4983 2.44558 3.49929 1.97276C3.49965 1.78159 3.49777 1.59109 3.49273 1.40021C3.4913 1.34411 3.46839 1.25229 3.4833 1.19866C3.49615 1.15228 3.49884 1.12808 3.49812 1.11589C3.50414 1.11818 3.51502 1.11818 3.53523 1.11018C3.63585 1.07065 3.82875 1.10856 3.94411 1.09074C4.09478 1.0675 4.23763 1.04502 4.38299 1.02978C4.23745 1.68025 4.25766 2.37614 4.25245 3.03794ZM1.31475 12.7401C1.32598 11.6505 1.60018 10.4906 2.06305 9.51771C2.29557 9.02889 2.54075 8.4512 2.89581 8.04714C3.17244 7.73244 3.59399 7.65557 3.98256 7.61995C4.89223 7.53641 5.79884 7.49765 6.70733 7.41488C7.19348 7.37058 7.68187 7.38792 8.17026 7.34487C8.6537 7.3021 9.13122 7.19323 9.61566 7.20047C10.1989 7.20923 10.7661 7.1257 11.3433 7.04321C11.8404 6.97225 12.4184 6.93567 12.8811 6.72431C13.7101 6.34569 14.1842 5.45872 14.4418 4.58395C14.6225 3.97025 14.8992 3.35255 15.2938 2.85802C15.4393 2.72971 15.5869 2.60465 15.726 2.47635C16.0226 2.20269 16.549 1.95619 16.9526 1.8176C17.0744 1.78302 17.1963 1.75178 17.3188 1.7234C17.7778 1.64491 18.2808 1.6952 18.7293 1.69596C19.1944 1.69673 19.649 1.60462 20.1166 1.60271C20.7039 1.60033 21.2906 1.56461 21.8772 1.54204C23.0404 1.49708 24.2079 1.53909 25.3717 1.54356C26.15 1.54652 27.2727 1.31611 27.7543 2.14316C27.9816 2.53359 28.1568 2.94679 28.4158 3.31703C28.7407 3.78185 28.9885 4.2058 29.1224 4.76911C29.3208 5.60389 30.0876 6.55943 30.8776 6.82118C31.3141 6.96587 31.7843 7.10893 32.2316 7.21618C32.7298 7.33572 33.2527 7.34258 33.7593 7.41287C34.2675 7.48345 34.777 7.48984 35.2851 7.54651C35.8449 7.60899 36.3732 7.77206 36.9405 7.75949C37.9292 7.73768 38.9512 7.90989 39.9404 7.97742C40.4134 8.00981 40.8781 8.06724 41.3524 8.0841C41.7669 8.09887 42.1865 8.14497 42.578 8.29908C42.9477 8.44462 43.2476 8.68951 43.4434 9.05622C43.6601 9.46237 43.7276 9.79794 43.7875 10.2567C43.8599 10.8095 43.8757 11.3561 43.9277 11.911C43.9773 12.4402 43.9698 12.9746 44.0263 13.5C44.0485 13.7062 44.0679 13.8996 44.0823 14.0921C43.8456 13.9748 43.6008 13.9596 43.3324 14.0162C42.9673 14.093 42.6585 14.1191 42.2804 14.1141C41.6254 14.1054 40.9813 14.1218 40.3291 14.044C39.5776 13.9542 38.8364 13.9986 38.0824 14.0186C37.453 14.0353 36.8597 13.9058 36.2309 13.9148C35.4997 13.9254 34.784 14.0329 34.0524 14.0369C33.3616 14.0407 32.5897 14.1412 31.9084 14.0291C31.2098 13.9141 30.5364 13.9325 29.8295 13.9552C29.4669 13.9669 29.002 13.8774 28.6832 14.0757C28.6336 14.0726 28.5855 14.0705 28.5391 14.0705C28.0223 13.6883 27.4496 13.3857 26.8658 13.1405C26.1139 12.8247 25.3759 12.4799 24.6193 12.1689C24.2707 12.0256 23.9308 12.0316 23.5714 11.9582C23.1725 11.8767 22.8436 11.7963 22.4326 11.7707C22.0655 11.7478 21.7736 11.6648 21.4081 11.7375C21.0174 11.8152 20.62 11.7647 20.2247 11.8329C19.4701 11.9632 18.6619 12.2031 18.0098 12.625C17.3687 13.0396 16.6999 13.3169 16.0925 13.7926C16.0694 13.8106 16.046 13.8276 16.0227 13.8447C15.5974 13.6264 15.0968 13.7231 14.6343 13.7637C13.9842 13.8207 13.3112 13.751 12.6592 13.7419C11.4376 13.7246 10.2384 13.5357 9.01793 13.5751C7.70406 13.6175 6.38327 13.5683 5.0685 13.5656C4.36017 13.564 3.65176 13.5667 2.94343 13.5611C2.66168 13.5588 2.38532 13.5322 2.10474 13.5109C1.88094 13.4938 1.64501 13.5601 1.41951 13.5657C1.38599 13.5349 1.34898 13.5123 1.30981 13.4952C1.31097 13.2438 1.31214 12.9921 1.31475 12.7401ZM1.13497 26.9813C1.16121 25.7813 1.14135 24.5788 1.14081 23.3785C1.14072 22.823 1.11709 22.269 1.11062 21.7138C1.1038 21.1171 1.1993 20.538 1.22958 19.9444C1.32059 18.1598 1.30972 16.3796 1.30819 14.5947C1.46335 14.5921 1.61474 14.5712 1.78517 14.555C2.05443 14.5295 2.32144 14.5805 2.59124 14.5931C3.28124 14.6252 3.97726 14.5973 4.66798 14.5958C6.05471 14.5928 7.44782 14.6259 8.83375 14.5637C10.0561 14.5087 11.2487 14.6517 12.4707 14.638C13.1272 14.6307 13.7908 14.6566 14.4459 14.6059C14.7079 14.5856 14.9641 14.5282 15.2232 14.4859C15.2143 14.4966 15.2048 14.5061 15.1962 14.5174C14.9627 14.82 14.7057 15.0957 14.4717 15.3963C13.4274 16.7379 12.8488 18.5303 12.5073 20.2099C12.1598 21.9182 12.0445 23.8615 12.4682 25.5695C12.688 26.4557 12.9741 27.3831 13.4778 28.1361C13.5129 28.1885 13.5515 28.2382 13.5888 28.2889C12.6494 28.2465 11.6808 28.319 10.7684 28.335C10.1963 28.345 9.64099 28.2323 9.06968 28.2374C8.41059 28.2432 7.71888 28.3095 7.06446 28.2202C5.97493 28.0712 4.88171 27.9537 3.78517 27.9694C3.1702 27.9781 2.55549 27.8847 1.94509 27.8161C1.69362 27.7879 1.41358 27.7676 1.13856 27.7751C1.13183 27.5115 1.12922 27.2472 1.13497 26.9813ZM14.2641 34.4194C13.1528 34.4199 12.0496 34.312 10.9373 34.3125C9.79669 34.3131 8.65595 34.3064 7.51539 34.3156C6.4228 34.3244 5.33614 34.3614 4.25802 34.1411C3.41304 33.9684 2.38245 34.0997 1.71698 33.4359C1.355 33.0747 1.35581 32.6734 1.34853 32.1771C1.33945 31.5655 1.2541 30.9594 1.24566 30.3477C1.23712 29.7418 1.19939 29.1438 1.16947 28.5452C1.41304 28.5768 1.6549 28.5643 1.90008 28.6106C2.45953 28.7158 3.03786 28.8107 3.60648 28.8294C4.76105 28.8672 5.90009 28.994 7.0482 29.1632C7.64773 29.2516 8.27367 29.2086 8.87822 29.2146C9.48377 29.2207 10.072 29.341 10.6765 29.3449C11.3237 29.3491 11.971 29.3446 12.6182 29.3438C13.2593 29.3431 13.9137 29.3789 14.5509 29.2866C14.8516 29.5328 15.1703 29.7549 15.4928 29.955C16.2205 30.4064 17.0352 30.7925 17.8101 31.1432C18.2109 31.3246 18.6809 31.4231 19.1089 31.5037C19.319 31.5433 19.5323 31.5895 19.7461 31.596C19.9132 31.6011 20.0648 31.5503 20.2187 31.5125C20.2562 31.8279 20.2979 32.1426 20.3553 32.4538C20.4768 33.1134 20.6576 33.7634 20.8128 34.417C18.63 34.4172 16.4471 34.4184 14.2641 34.4194ZM44.8061 41.7205C44.8048 41.7221 44.8042 41.7223 44.8026 41.7242C44.7624 41.7756 44.632 41.8146 44.5786 41.8354C44.0927 42.0235 43.5504 42.0648 43.0533 42.2186C41.6706 42.6465 40.2094 42.9562 38.7803 43.1749C38.0694 43.2838 37.3564 43.3796 36.6474 43.5013C36.2808 43.5643 35.9058 43.5614 35.5413 43.6412C35.16 43.7248 34.7904 43.829 34.4057 43.9011C33.7559 44.0229 33.1048 43.9948 32.4645 44.1624C32.1584 44.2425 31.902 44.2371 31.5917 44.2533C31.2445 44.2713 30.9229 44.4117 30.5808 44.4541C29.9315 44.5346 29.2846 44.6491 28.6299 44.6956C28.3067 44.7185 27.8814 44.7882 27.5727 44.6567C27.3325 44.5545 27.1576 44.2983 26.9955 44.0967C26.5509 43.5436 26.0411 43.0586 25.5975 42.505C25.3809 42.2348 25.2391 41.9561 25.0707 41.6541C24.8802 41.3124 24.616 41.038 24.4225 40.692C24.0201 39.9723 23.6291 39.2564 23.2995 38.4935C22.9489 37.6819 22.7088 36.8765 22.447 36.03C21.924 34.339 21.6383 32.5718 21.4124 30.8131C21.3014 29.9492 21.1681 29.1063 21.1518 28.2326C21.1497 28.1149 21.1485 27.9965 21.1478 27.8778C21.1738 27.6569 21.2034 27.437 21.215 27.2131C21.2314 26.898 21.1331 26.3942 21.2909 26.1087C21.2989 26.0942 21.3049 26.0824 21.31 26.072C21.317 26.0869 21.3391 26.0968 21.3938 26.0846C21.5441 26.0511 21.7118 26.0426 21.865 26.0128C22.2539 25.9371 22.6473 25.8954 23.0421 25.8517C23.635 25.786 24.2378 25.7877 24.8195 25.6744C25.1396 25.612 25.4599 25.6646 25.7841 25.6256C26.1327 25.5834 26.4733 25.4776 26.8226 25.442C27.1676 25.4069 27.5123 25.4588 27.8576 25.4236C28.1397 25.3948 28.4147 25.321 28.6931 25.2685C29.4187 25.1314 30.1873 25.1423 30.924 25.0513C32.3506 24.8752 33.7813 24.7799 35.207 24.6199C35.8754 24.5449 36.5431 24.5781 37.2138 24.5621C37.3713 24.5584 37.6291 24.5948 37.778 24.5484C37.8076 24.5507 37.8372 24.5529 37.8668 24.5552C37.8711 24.5688 37.8761 24.5835 37.8822 24.6006C37.852 24.7518 37.91 25.0074 37.9089 25.1679C37.9075 25.3892 37.893 25.6102 37.8835 25.8312C37.8537 26.5285 37.8174 27.2197 37.9885 27.8996C38.1833 28.674 38.3902 29.4529 38.6213 30.2159C38.8264 30.8934 39.0629 31.5715 39.3396 32.2203C39.474 32.5355 39.5983 32.8618 39.7459 33.17C39.8742 33.4379 40.0696 33.6534 40.1987 33.9183C40.2723 34.0692 40.3473 34.2186 40.4233 34.3674C40.4459 34.5263 40.5171 34.676 40.6365 34.7778C40.7993 35.0872 40.9656 35.3953 41.1334 35.7062C41.4765 36.3414 41.9194 36.9075 42.2895 37.5244C42.6078 38.0551 42.9151 38.59 43.2569 39.1044C43.6422 39.6839 44.1073 40.1713 44.4296 40.8007C44.5358 41.0083 44.8356 41.4775 44.8061 41.7205Z"/>
</mask>
<path d="M44.6783 39.0036C44.2327 38.4421 43.8201 37.8514 43.4691 37.2175C43.0895 36.5321 42.6061 35.9206 42.2183 35.2411C42.1608 35.1403 42.1055 35.0388 42.0495 34.9375C42.4567 34.9385 42.8617 34.9078 43.2488 34.773C44.0917 34.4796 44.4787 33.7636 44.5667 32.8607C44.5907 32.6142 44.5609 32.3679 44.6002 32.1246C44.6386 31.8871 44.6756 31.6853 44.6817 31.439C44.6871 31.2139 44.746 31.0162 44.7741 30.7924C44.814 30.4744 44.7862 30.1583 44.781 29.8391C44.7614 28.6092 44.8392 27.3955 44.8794 26.169C44.8995 25.5554 45.017 24.9567 45.0694 24.3473C45.1157 23.8102 45.0582 23.2782 45.1251 22.7419C45.2731 21.5573 45.2789 20.3773 45.2776 19.1845C45.2764 17.9115 45.2755 16.6385 45.2746 15.3656C45.2743 14.8809 45.3392 14.3631 45.2684 13.8839C45.1911 13.3603 45.2067 12.8524 45.1489 12.3285C45.0803 11.7084 45.0697 11.0811 44.9881 10.4628C44.9167 9.92262 44.8936 9.39379 44.6637 8.89906C44.2661 8.04362 43.7539 7.43726 42.8866 7.11246C42.0148 6.78594 41.0294 6.84737 40.1208 6.75841C40.0957 6.75603 40.0704 6.75346 40.0454 6.75108C40.0943 6.46542 40.0652 6.18386 40.007 5.89449C40.4441 5.91535 40.8792 5.91011 41.2493 5.62132C42.1657 4.90627 41.8919 3.24921 41.7003 2.24299C41.6134 1.78731 41.5193 1.25877 41.1594 0.955585C40.7659 0.624115 40.16 0.527245 39.6765 0.497718C38.2964 0.413517 36.8892 0.515148 35.5059 0.50429C34.6929 0.497908 33.2845 0.216635 32.7066 1.02293C32.4515 1.37869 32.3041 1.92961 32.1866 2.35557C32.0468 2.8623 31.9554 3.42323 32.069 3.94625C32.2955 4.98952 33.2143 5.29423 34.1166 5.39376C34.0998 5.49359 34.089 5.59493 34.0782 5.69399C34.0598 5.86458 34.0429 6.03765 34.0539 6.20806C33.8545 6.1871 33.655 6.16434 33.4544 6.13633C32.9506 6.06585 32.4912 6.04642 32.0025 5.87563C31.7467 5.78619 31.4262 5.75905 31.1829 5.64818C30.9349 5.5353 30.7336 5.27946 30.5575 5.06763C30.2061 4.64519 30.1888 4.12856 29.9613 3.63583C29.7234 3.121 29.3532 2.70742 29.0848 2.21431C28.8636 1.80769 28.6824 1.34192 28.3558 1.01416C28.0601 0.717364 27.6346 0.531341 27.2427 0.432662C26.6954 0.29474 26.1204 0.352652 25.5637 0.360557C24.8653 0.370368 24.1665 0.370083 23.4682 0.374369C22.7738 0.378655 22.0817 0.386466 21.3886 0.434853C20.7366 0.480477 20.0617 0.462285 19.4153 0.555915C18.822 0.641736 18.2366 0.638307 17.6407 0.703077C16.9963 0.773181 16.5187 0.969872 15.9429 1.27048C15.8131 1.3383 15.6985 1.41259 15.5926 1.4926C15.5521 1.5128 15.5117 1.53328 15.4719 1.55537C15.0165 1.80836 14.7278 2.2407 14.409 2.65418C14.1031 3.05109 13.8323 3.43437 13.6212 3.89777C13.4369 4.30201 13.2588 4.72692 13.0107 5.09306C12.7621 5.45987 12.5021 5.62179 12.0897 5.68732C11.5058 5.78019 10.9181 5.84849 10.3373 5.95136C10.0534 6.00165 9.7674 5.99622 9.48134 5.99936C9.48664 5.82191 9.45053 5.6476 9.42537 5.46892C9.42178 5.44377 9.41791 5.419 9.4136 5.39452C9.43004 5.39224 9.44639 5.39148 9.46274 5.38881C9.67846 5.35423 9.86596 5.30489 10.0819 5.27822C10.2943 5.25194 10.4876 5.14592 10.642 4.988C10.9359 4.68777 11.3212 4.27515 11.4369 3.85176C11.5063 3.59763 11.4865 3.32826 11.5192 3.06918C11.5609 2.73924 11.6367 2.45301 11.5979 2.11887C11.5468 1.67882 11.5069 1.12989 11.2783 0.74613C10.9847 0.25283 10.5672 0.26264 10.0786 0.229874C9.59464 0.197394 9.14416 0.118337 8.65335 0.123194C8.01249 0.129386 7.37622 0.167676 6.74534 0.0488992C6.24222 -0.0458746 5.69848 0.025944 5.18853 0.0279443C4.62782 0.0302303 4.0884 0.0998581 3.53478 0.131672C3.0277 0.160913 2.65997 0.356748 2.58001 0.933201C2.49817 1.52261 2.58531 2.17945 2.58082 2.7761C2.5801 2.8783 2.57714 2.9826 2.57408 3.08785C2.54677 3.42723 2.53347 3.76918 2.57705 4.09027C2.65225 4.64415 2.91926 4.90446 3.26875 5.04743C3.41646 5.12887 3.57925 5.1725 3.75238 5.18002C3.92928 5.21307 4.1131 5.23822 4.29468 5.26965C4.20421 5.64484 4.20519 6.07518 4.28668 6.42742C4.28911 6.43761 4.2927 6.44771 4.29629 6.45799C4.25892 6.46114 4.22154 6.46456 4.18408 6.46714C3.30658 6.52591 2.50248 6.7406 1.95929 7.52175C1.32283 8.437 0.862027 9.57124 0.563117 10.6593C-0.101815 13.0799 0.473184 15.679 0.166997 18.1436C0.0972786 18.7052 0.149028 19.2766 0.124861 19.8416C0.0965598 20.5033 -0.0101743 21.147 0.000786643 21.8121C0.0220796 23.0956 0.0281889 24.3778 0.0278295 25.6617C0.02756 26.2674 0.0191147 26.8717 0.0083335 27.4772C-0.0028071 28.0993 0.107072 28.686 0.129353 29.2985C0.171759 30.4663 0.138337 31.6482 0.253337 32.8124C0.353692 33.8285 1.08789 34.7074 2.02047 34.9883C2.43959 35.1147 2.86581 35.1519 3.29634 35.1742C3.85903 35.2032 4.41794 35.3922 4.98009 35.4543C6.26728 35.5963 7.58349 35.5079 8.87571 35.5085C10.2114 35.5092 11.5584 35.4526 12.89 35.5728C14.2264 35.6933 15.5885 35.6205 16.9291 35.6213C18.3417 35.622 19.7544 35.6221 21.1671 35.6221C21.2712 35.8683 21.3902 36.1046 21.5163 36.3463C21.8886 37.6948 22.3536 38.985 22.9482 40.2581C23.1245 40.6355 23.3385 40.9862 23.5286 41.3551C23.6979 41.6839 23.9317 41.9358 24.1105 42.2494C24.4785 42.8945 24.8575 43.4656 25.3544 44.0167C25.7645 44.4717 26.1177 45.0181 26.56 45.4351C27.0946 45.9391 27.744 46.0235 28.4376 45.9952C29.2153 45.9634 29.9832 45.8074 30.7537 45.7331C31.0918 45.7005 31.4073 45.5403 31.7451 45.5377C32.1106 45.5349 32.43 45.4973 32.7861 45.4016C33.1752 45.2969 33.5454 45.3483 33.9394 45.2896C34.3174 45.2334 34.692 45.144 35.0686 45.0782C35.4372 45.0138 35.7845 44.8811 36.1579 44.8419C36.5741 44.7982 36.9816 44.722 37.3962 44.6662C39.0515 44.4436 40.6817 44.0855 42.3221 43.7681C43.0207 43.6329 43.6888 43.3471 44.3885 43.1988C44.8421 43.1025 45.3382 42.9665 45.6737 42.6051C46.6055 41.6005 45.3092 39.799 44.6783 39.0036ZM10.4781 1.32049C10.6411 1.49689 10.6582 2.26851 10.6375 2.4954C10.6058 2.84392 10.5699 3.47114 10.3816 3.7447C10.308 3.85147 10.1957 3.94663 10.1129 4.04807C9.94574 4.25267 10.027 4.20657 9.85401 4.23552C9.79112 4.24609 9.73192 4.25772 9.67244 4.26934C9.66462 4.18323 9.656 4.09531 9.65007 4.00149C9.6277 3.64973 9.66795 3.29255 9.65654 2.94041C9.6418 2.48435 9.6038 2.02972 9.59185 1.57185C9.58817 1.42945 9.58439 1.29439 9.57092 1.16256C9.82329 1.18228 10.3546 1.18685 10.4781 1.32049ZM43.5545 30.7566C43.5079 30.9966 43.4787 31.1922 43.4716 31.4389C43.4643 31.6931 43.3853 31.9236 43.37 32.1797C43.347 32.5637 43.4457 33.1386 43.1221 33.4192C42.713 33.7742 41.9504 33.6801 41.3644 33.6307C41.3088 33.5202 41.2531 33.4097 41.1979 33.2986C41.0535 33.0086 40.8453 32.7728 40.7109 32.473C40.5516 32.1178 40.3936 31.753 40.2544 31.3887C39.9975 30.717 39.776 30.0334 39.5813 29.3397C39.7244 29.312 39.8626 29.269 40.0137 29.2776C40.2181 29.2892 40.4216 29.3591 40.6252 29.3843C41.0878 29.4415 41.5499 29.4106 42.0128 29.4872C42.462 29.5616 42.9069 29.5596 43.3603 29.5325C43.4545 29.5269 43.5319 29.4964 43.5957 29.4522C43.615 29.8944 43.6338 30.3481 43.5545 30.7566ZM44.1056 16.5677C44.1046 17.7629 44.1041 18.9581 44.1028 20.1534C44.1018 21.2016 43.9156 22.2311 43.8954 23.2733C43.8713 24.5276 43.7588 25.7871 43.6515 27.0385C43.6058 27.5733 43.5858 28.0993 43.5806 28.6337C43.5196 28.5978 43.4473 28.574 43.3602 28.5716C42.4399 28.5464 41.4869 28.5758 40.572 28.4557C40.1629 28.402 39.8405 28.3634 39.4343 28.4684C39.4062 28.4756 39.3776 28.481 39.3487 28.4855C39.1693 27.8188 39.0083 27.182 39.0238 26.4663C39.0399 25.7157 39.1708 24.8834 38.9687 24.1498C38.7794 23.4628 38.1924 23.3188 37.5905 23.3226C36.0027 23.3328 34.4377 23.456 32.8557 23.5862C32.4045 23.6235 31.9561 23.6842 31.5076 23.745C31.5859 23.6148 31.649 23.4815 31.6913 23.3597C31.958 22.5925 32.0349 21.6849 32.0993 20.8786C32.166 20.0416 31.8269 19.1038 31.5488 18.3322C31.2599 17.531 30.9829 16.7381 30.4355 16.1034C30.2016 15.8324 30.0158 15.5179 29.7922 15.2367C29.6809 15.0966 29.5603 14.9693 29.4356 14.8466C29.5341 14.847 29.6328 14.8467 29.7313 14.8461C30.0931 14.8439 30.455 14.8312 30.8169 14.8367C31.4745 14.8466 32.1027 14.9844 32.7652 14.9849C33.4269 14.9854 34.0955 15.0215 34.7564 14.9897C35.4406 14.9567 36.1328 14.7939 36.8203 14.9078C38.0382 15.1097 39.2742 14.9207 40.5047 15.0752C41.1559 15.157 41.8134 15.1297 42.468 15.1393C42.9869 15.1469 43.6203 15.1228 44.1064 14.9126C44.1015 15.4643 44.106 16.0161 44.1056 16.5677ZM29.0583 20.8211C29.0281 20.405 28.9582 20.0195 28.8811 19.6108C28.5872 18.0529 27.5146 16.982 26.4836 15.9299C26.0156 15.4525 25.3056 15.1275 24.7057 14.8836C24.024 14.6066 23.256 14.463 22.5304 14.4071C21.8271 14.353 21.2086 14.3413 20.5077 14.4909C19.9594 14.6079 19.4469 14.7828 18.9469 15.0141C18.7977 15.0605 18.649 15.112 18.5028 15.1696C17.8788 15.4149 17.2594 15.7589 16.8285 16.3107C16.6185 16.5796 16.473 16.8921 16.3031 17.1889C16.1148 17.5178 15.8678 17.8046 15.686 18.1373C14.9108 19.5569 14.8763 21.2479 14.8784 22.8433C14.8796 23.6983 14.9491 24.5277 15.3136 25.3034C15.4613 25.6175 15.6115 25.948 15.7869 26.2453C15.959 26.5365 16.2009 26.7449 16.3669 27.0393C16.5062 27.2864 16.7265 27.5064 16.9002 27.7311C17.1741 28.0859 17.5564 28.3936 17.9038 28.6638C18.216 28.9065 18.5629 29.0825 18.9256 29.2238C19.2531 29.3514 19.6774 29.3226 19.9862 29.4961C20.0095 29.7875 20.0424 30.0784 20.0817 30.3689C19.8892 30.4043 19.7036 30.4385 19.4866 30.4067C19.1393 30.3561 18.7918 30.2607 18.4563 30.1554C17.8452 29.9634 17.2409 29.5992 16.6595 29.3113C15.3743 28.675 14.2501 27.7588 13.8139 26.2861C13.6055 25.5828 13.3991 24.929 13.3269 24.1896C13.2521 23.4217 13.2724 22.6018 13.3277 21.8322C13.4338 20.3576 13.8826 18.6978 14.5222 17.3787C15.1309 16.1232 16.1195 14.9484 17.2944 14.2748C18.4524 13.6108 19.635 12.9413 20.9827 12.9159C21.2908 12.91 21.5949 12.8229 21.8924 12.8369C22.1929 12.8511 22.5482 12.8646 22.8434 12.9146C23.4803 13.0224 24.112 13.1772 24.711 13.4304C25.9976 13.9741 27.3507 14.4419 28.4334 15.3921C28.9661 15.8596 29.3742 16.4478 29.8178 17.0046C30.3201 17.635 30.5952 18.6477 30.8183 19.432C30.9237 19.8024 31.0656 20.1898 31.0972 20.5785C31.16 21.3503 31.0105 22.1588 30.8221 22.8993C30.7253 23.2799 30.6782 23.8331 30.2718 23.9291C30.0734 23.976 28.6639 23.8681 28.6143 24.0553C28.7921 23.3847 29.0725 22.7446 29.1455 22.0398C29.1889 21.6213 29.0884 21.2345 29.0583 20.8211ZM27.6917 24.1555C27.6885 24.1721 27.6885 24.1874 27.6868 24.2034C27.1187 24.261 26.545 24.2522 25.9743 24.358C25.6029 24.4268 25.2488 24.3883 24.8768 24.425C24.5437 24.4579 24.2532 24.5287 23.9142 24.535C23.1907 24.5483 22.4041 24.6512 21.6925 24.7937C21.0648 24.9195 20.4186 24.8844 20.2043 25.6677C20.1152 25.9929 20.0787 26.3595 20.0692 26.6949C20.0571 27.1228 20.0111 27.5286 19.9766 27.9535C19.96 28.1587 19.9517 28.3637 19.9501 28.5684C19.8564 28.5473 19.7593 28.5313 19.6575 28.5152C19.2227 28.4458 18.8137 28.2812 18.4432 28.0271C17.8449 27.6164 17.2989 27.0343 16.9235 26.4074C16.7165 26.0617 16.4209 25.8351 16.2284 25.4666C15.9808 24.9927 15.7408 24.5571 15.6422 24.0165C15.4565 22.9985 15.4967 21.7982 15.6106 20.7722C15.7072 19.9007 15.8919 19.0142 16.3631 18.2765C16.5168 18.0358 16.6617 17.7786 16.8127 17.5244C16.8611 17.4704 16.9079 17.4155 16.9445 17.3535C16.9782 17.2962 17.003 17.2364 17.0274 17.1763C17.1578 16.9745 17.2966 16.7809 17.4523 16.6063C17.9676 16.1548 18.7245 15.8683 19.297 15.6328C20.0032 15.3422 20.8988 15.1447 21.6603 15.1439C22.4203 15.1432 23.2445 15.3558 23.9762 15.5624C24.7573 15.783 25.5442 16.2096 26.1064 16.8207C26.386 17.1245 26.7194 17.3675 26.9897 17.6818C27.2621 17.9987 27.4788 18.3791 27.664 18.7597C28.0576 19.5683 28.1229 20.3348 28.2374 21.2249C28.3773 22.3101 27.896 23.1278 27.6917 24.1555ZM39.3566 4.88694C39.5043 4.42031 39.4011 3.71889 39.4398 3.21863C39.4826 2.66247 39.5875 1.98638 39.495 1.39926C39.895 1.40421 40.4596 1.4405 40.6658 1.75902C40.8861 2.09897 40.9081 2.76953 40.9391 3.15567C40.9744 3.59906 41.0727 4.25953 40.8574 4.66824C40.6485 5.06477 40.1854 4.95485 39.8254 4.93809C39.665 4.93056 39.5043 4.92866 39.3437 4.92809C39.348 4.91418 39.3525 4.90027 39.3566 4.88694ZM37.8942 1.40059C38.2513 1.40183 38.6083 1.39945 38.9655 1.39869C38.9736 1.52289 38.9773 1.6472 38.9785 1.77169C38.8731 2.63551 38.6622 3.9673 38.7448 4.7012C38.74 4.77769 38.7358 4.85398 38.7327 4.93028C38.7302 4.99124 37.7283 4.87093 37.6488 4.84788C37.5393 4.81598 37.4659 4.78388 37.416 4.74816C37.4257 4.70139 37.4336 4.65367 37.4393 4.60452C37.485 4.20133 37.4662 3.75994 37.4914 3.35151C37.5332 2.67818 37.5129 2.04496 37.4042 1.40107C37.5675 1.40116 37.7307 1.40002 37.8942 1.40059ZM35.9511 2.82277C35.9674 2.3591 36.0323 1.86808 35.9748 1.40269C36.3248 1.40183 36.6746 1.40164 37.0246 1.40164C36.9792 1.87246 36.9915 2.36167 36.9542 2.83382C36.9215 3.24921 36.731 4.04131 36.7831 4.62633C36.6721 4.62405 36.5616 4.62014 36.4528 4.60795C36.275 4.58804 36.1018 4.56404 35.9289 4.54061C35.9342 4.30105 35.9135 4.04645 35.9161 3.84147C35.9206 3.50105 35.9392 3.16158 35.9511 2.82277ZM38.002 5.85658C38.4501 5.89859 38.9034 5.8763 39.3549 5.87487C39.3265 6.01594 39.2988 6.15719 39.2682 6.29816C39.2399 6.42875 39.2067 6.54819 39.1871 6.66897C38.3826 6.59544 37.5729 6.53524 36.7735 6.52686C36.2405 6.52114 35.7222 6.34769 35.1909 6.30731C35.0783 6.29883 34.9664 6.28988 34.8544 6.28102C34.877 6.08709 34.8576 5.88868 34.8364 5.6938C34.8277 5.61274 34.8188 5.53026 34.8067 5.44815C35.8671 5.59426 36.9395 5.75695 38.002 5.85658ZM33.6902 2.55026C33.6395 3.12214 33.5656 3.73432 33.5605 4.31858C32.7001 4.06226 32.8889 3.06242 33.132 2.30947C33.2392 1.97724 33.3073 1.55928 33.6577 1.46098C33.681 1.45441 33.7052 1.44993 33.7293 1.44488C33.6835 1.81807 33.718 2.23832 33.6902 2.55026ZM34.0821 4.40688C34.1075 3.73403 34.1898 3.05661 34.2295 2.38596C34.2449 2.12535 34.3054 1.73102 34.268 1.3964C34.4757 1.3965 34.6842 1.40898 34.8779 1.40736C35.0729 1.40574 35.2678 1.40545 35.4626 1.40431C35.4327 2.04639 35.4213 2.67713 35.2981 3.31198C35.226 3.68336 35.2316 4.07788 35.24 4.46717C35.1782 4.46374 35.1159 4.46136 35.053 4.46031C34.7358 4.45526 34.4052 4.44164 34.0821 4.40688ZM9.10023 1.11894C9.09978 1.13532 9.09996 1.15142 9.09978 1.16771C9.01353 1.71749 9.10112 2.34386 9.12448 2.85735C9.14721 3.35846 9.11694 3.85405 9.13706 4.35201C9.04587 4.35887 8.95243 4.36154 8.85244 4.35392C8.68758 4.34144 8.53224 4.34201 8.37887 4.35039C8.29262 3.29264 8.49926 2.16536 8.29774 1.12608C8.56584 1.11513 8.83393 1.10665 9.10023 1.11894ZM6.97992 1.10894C7.26418 1.14675 7.55132 1.14932 7.83927 1.14208C7.81079 1.57147 7.81627 1.99638 7.80666 2.4353C7.79219 3.09595 7.71727 3.76032 7.72625 4.42135C7.72113 4.42212 7.71619 4.42259 7.71107 4.42336C7.34307 4.47555 6.96141 4.4485 6.58883 4.45203C6.66187 4.04769 6.54364 3.56696 6.52747 3.16386C6.52666 3.07919 6.5254 2.99441 6.52486 2.90964C6.52675 2.39834 6.55038 1.84855 6.49216 1.32725C6.49135 1.31058 6.49117 1.29382 6.49036 1.27724C6.48578 1.18895 6.47141 1.11494 6.45155 1.04588C6.45128 1.04426 6.4511 1.04274 6.45074 1.04102C6.6245 1.05941 6.79763 1.08465 6.97992 1.10894ZM7.92786 5.43367C8.20673 5.38795 8.48273 5.40195 8.75801 5.41196C8.71588 5.63522 8.69108 5.87335 8.75145 6.06528C8.22308 6.17281 7.67127 6.22558 7.13418 6.22425C6.62459 6.22311 6.12757 6.32712 5.61825 6.3356C5.39966 6.33912 5.18161 6.36036 4.96356 6.38513C4.97111 6.33445 4.96931 6.28216 4.95602 6.23149C4.88567 5.96212 4.89025 5.66799 4.85683 5.3871C5.27119 5.47168 5.67162 5.51978 6.10718 5.50968C6.7085 5.49539 7.33265 5.5313 7.92786 5.43367ZM5.90917 1.0135C5.9451 1.01283 5.97924 1.01474 6.01419 1.0155C5.89524 1.65815 5.94798 2.36224 5.93288 2.99946C5.92498 3.33331 5.93908 3.65373 5.95912 3.98635C5.97026 4.17304 5.95238 4.32306 5.96568 4.46631C5.70037 4.4685 5.43623 4.45745 5.17191 4.40269C5.09707 4.38716 5.02322 4.37106 4.94982 4.35516C4.94874 4.33487 4.94595 4.31391 4.94164 4.29239C4.93625 4.26581 4.93266 4.23828 4.92789 4.21123C4.9402 3.55858 4.92178 2.90431 4.92062 2.25203C4.92017 1.96257 4.87561 1.69454 4.82368 1.42688C4.8155 1.28629 4.8022 1.14713 4.78019 1.01197C5.15646 1.01188 5.53299 1.01997 5.90917 1.0135ZM4.25245 3.03794C4.24985 3.36627 4.26296 3.68374 4.24805 4.01102C4.24472 4.0835 4.24194 4.15418 4.24419 4.22238C4.16485 4.2118 4.08489 4.20285 4.00331 4.19733C3.90485 4.19056 3.74232 4.20152 3.63244 4.15685C3.4966 3.97901 3.48878 3.69583 3.48824 3.44628C3.48824 3.44161 3.4886 3.43533 3.4886 3.43094C3.4886 3.41809 3.48815 3.40532 3.48815 3.39246V3.39123C3.48752 2.9184 3.4983 2.44558 3.49929 1.97276C3.49965 1.78159 3.49777 1.59109 3.49273 1.40021C3.4913 1.34411 3.46839 1.25229 3.4833 1.19866C3.49615 1.15228 3.49884 1.12808 3.49812 1.11589C3.50414 1.11818 3.51502 1.11818 3.53523 1.11018C3.63585 1.07065 3.82875 1.10856 3.94411 1.09074C4.09478 1.0675 4.23763 1.04502 4.38299 1.02978C4.23745 1.68025 4.25766 2.37614 4.25245 3.03794ZM1.31475 12.7401C1.32598 11.6505 1.60018 10.4906 2.06305 9.51771C2.29557 9.02889 2.54075 8.4512 2.89581 8.04714C3.17244 7.73244 3.59399 7.65557 3.98256 7.61995C4.89223 7.53641 5.79884 7.49765 6.70733 7.41488C7.19348 7.37058 7.68187 7.38792 8.17026 7.34487C8.6537 7.3021 9.13122 7.19323 9.61566 7.20047C10.1989 7.20923 10.7661 7.1257 11.3433 7.04321C11.8404 6.97225 12.4184 6.93567 12.8811 6.72431C13.7101 6.34569 14.1842 5.45872 14.4418 4.58395C14.6225 3.97025 14.8992 3.35255 15.2938 2.85802C15.4393 2.72971 15.5869 2.60465 15.726 2.47635C16.0226 2.20269 16.549 1.95619 16.9526 1.8176C17.0744 1.78302 17.1963 1.75178 17.3188 1.7234C17.7778 1.64491 18.2808 1.6952 18.7293 1.69596C19.1944 1.69673 19.649 1.60462 20.1166 1.60271C20.7039 1.60033 21.2906 1.56461 21.8772 1.54204C23.0404 1.49708 24.2079 1.53909 25.3717 1.54356C26.15 1.54652 27.2727 1.31611 27.7543 2.14316C27.9816 2.53359 28.1568 2.94679 28.4158 3.31703C28.7407 3.78185 28.9885 4.2058 29.1224 4.76911C29.3208 5.60389 30.0876 6.55943 30.8776 6.82118C31.3141 6.96587 31.7843 7.10893 32.2316 7.21618C32.7298 7.33572 33.2527 7.34258 33.7593 7.41287C34.2675 7.48345 34.777 7.48984 35.2851 7.54651C35.8449 7.60899 36.3732 7.77206 36.9405 7.75949C37.9292 7.73768 38.9512 7.90989 39.9404 7.97742C40.4134 8.00981 40.8781 8.06724 41.3524 8.0841C41.7669 8.09887 42.1865 8.14497 42.578 8.29908C42.9477 8.44462 43.2476 8.68951 43.4434 9.05622C43.6601 9.46237 43.7276 9.79794 43.7875 10.2567C43.8599 10.8095 43.8757 11.3561 43.9277 11.911C43.9773 12.4402 43.9698 12.9746 44.0263 13.5C44.0485 13.7062 44.0679 13.8996 44.0823 14.0921C43.8456 13.9748 43.6008 13.9596 43.3324 14.0162C42.9673 14.093 42.6585 14.1191 42.2804 14.1141C41.6254 14.1054 40.9813 14.1218 40.3291 14.044C39.5776 13.9542 38.8364 13.9986 38.0824 14.0186C37.453 14.0353 36.8597 13.9058 36.2309 13.9148C35.4997 13.9254 34.784 14.0329 34.0524 14.0369C33.3616 14.0407 32.5897 14.1412 31.9084 14.0291C31.2098 13.9141 30.5364 13.9325 29.8295 13.9552C29.4669 13.9669 29.002 13.8774 28.6832 14.0757C28.6336 14.0726 28.5855 14.0705 28.5391 14.0705C28.0223 13.6883 27.4496 13.3857 26.8658 13.1405C26.1139 12.8247 25.3759 12.4799 24.6193 12.1689C24.2707 12.0256 23.9308 12.0316 23.5714 11.9582C23.1725 11.8767 22.8436 11.7963 22.4326 11.7707C22.0655 11.7478 21.7736 11.6648 21.4081 11.7375C21.0174 11.8152 20.62 11.7647 20.2247 11.8329C19.4701 11.9632 18.6619 12.2031 18.0098 12.625C17.3687 13.0396 16.6999 13.3169 16.0925 13.7926C16.0694 13.8106 16.046 13.8276 16.0227 13.8447C15.5974 13.6264 15.0968 13.7231 14.6343 13.7637C13.9842 13.8207 13.3112 13.751 12.6592 13.7419C11.4376 13.7246 10.2384 13.5357 9.01793 13.5751C7.70406 13.6175 6.38327 13.5683 5.0685 13.5656C4.36017 13.564 3.65176 13.5667 2.94343 13.5611C2.66168 13.5588 2.38532 13.5322 2.10474 13.5109C1.88094 13.4938 1.64501 13.5601 1.41951 13.5657C1.38599 13.5349 1.34898 13.5123 1.30981 13.4952C1.31097 13.2438 1.31214 12.9921 1.31475 12.7401ZM1.13497 26.9813C1.16121 25.7813 1.14135 24.5788 1.14081 23.3785C1.14072 22.823 1.11709 22.269 1.11062 21.7138C1.1038 21.1171 1.1993 20.538 1.22958 19.9444C1.32059 18.1598 1.30972 16.3796 1.30819 14.5947C1.46335 14.5921 1.61474 14.5712 1.78517 14.555C2.05443 14.5295 2.32144 14.5805 2.59124 14.5931C3.28124 14.6252 3.97726 14.5973 4.66798 14.5958C6.05471 14.5928 7.44782 14.6259 8.83375 14.5637C10.0561 14.5087 11.2487 14.6517 12.4707 14.638C13.1272 14.6307 13.7908 14.6566 14.4459 14.6059C14.7079 14.5856 14.9641 14.5282 15.2232 14.4859C15.2143 14.4966 15.2048 14.5061 15.1962 14.5174C14.9627 14.82 14.7057 15.0957 14.4717 15.3963C13.4274 16.7379 12.8488 18.5303 12.5073 20.2099C12.1598 21.9182 12.0445 23.8615 12.4682 25.5695C12.688 26.4557 12.9741 27.3831 13.4778 28.1361C13.5129 28.1885 13.5515 28.2382 13.5888 28.2889C12.6494 28.2465 11.6808 28.319 10.7684 28.335C10.1963 28.345 9.64099 28.2323 9.06968 28.2374C8.41059 28.2432 7.71888 28.3095 7.06446 28.2202C5.97493 28.0712 4.88171 27.9537 3.78517 27.9694C3.1702 27.9781 2.55549 27.8847 1.94509 27.8161C1.69362 27.7879 1.41358 27.7676 1.13856 27.7751C1.13183 27.5115 1.12922 27.2472 1.13497 26.9813ZM14.2641 34.4194C13.1528 34.4199 12.0496 34.312 10.9373 34.3125C9.79669 34.3131 8.65595 34.3064 7.51539 34.3156C6.4228 34.3244 5.33614 34.3614 4.25802 34.1411C3.41304 33.9684 2.38245 34.0997 1.71698 33.4359C1.355 33.0747 1.35581 32.6734 1.34853 32.1771C1.33945 31.5655 1.2541 30.9594 1.24566 30.3477C1.23712 29.7418 1.19939 29.1438 1.16947 28.5452C1.41304 28.5768 1.6549 28.5643 1.90008 28.6106C2.45953 28.7158 3.03786 28.8107 3.60648 28.8294C4.76105 28.8672 5.90009 28.994 7.0482 29.1632C7.64773 29.2516 8.27367 29.2086 8.87822 29.2146C9.48377 29.2207 10.072 29.341 10.6765 29.3449C11.3237 29.3491 11.971 29.3446 12.6182 29.3438C13.2593 29.3431 13.9137 29.3789 14.5509 29.2866C14.8516 29.5328 15.1703 29.7549 15.4928 29.955C16.2205 30.4064 17.0352 30.7925 17.8101 31.1432C18.2109 31.3246 18.6809 31.4231 19.1089 31.5037C19.319 31.5433 19.5323 31.5895 19.7461 31.596C19.9132 31.6011 20.0648 31.5503 20.2187 31.5125C20.2562 31.8279 20.2979 32.1426 20.3553 32.4538C20.4768 33.1134 20.6576 33.7634 20.8128 34.417C18.63 34.4172 16.4471 34.4184 14.2641 34.4194ZM44.8061 41.7205C44.8048 41.7221 44.8042 41.7223 44.8026 41.7242C44.7624 41.7756 44.632 41.8146 44.5786 41.8354C44.0927 42.0235 43.5504 42.0648 43.0533 42.2186C41.6706 42.6465 40.2094 42.9562 38.7803 43.1749C38.0694 43.2838 37.3564 43.3796 36.6474 43.5013C36.2808 43.5643 35.9058 43.5614 35.5413 43.6412C35.16 43.7248 34.7904 43.829 34.4057 43.9011C33.7559 44.0229 33.1048 43.9948 32.4645 44.1624C32.1584 44.2425 31.902 44.2371 31.5917 44.2533C31.2445 44.2713 30.9229 44.4117 30.5808 44.4541C29.9315 44.5346 29.2846 44.6491 28.6299 44.6956C28.3067 44.7185 27.8814 44.7882 27.5727 44.6567C27.3325 44.5545 27.1576 44.2983 26.9955 44.0967C26.5509 43.5436 26.0411 43.0586 25.5975 42.505C25.3809 42.2348 25.2391 41.9561 25.0707 41.6541C24.8802 41.3124 24.616 41.038 24.4225 40.692C24.0201 39.9723 23.6291 39.2564 23.2995 38.4935C22.9489 37.6819 22.7088 36.8765 22.447 36.03C21.924 34.339 21.6383 32.5718 21.4124 30.8131C21.3014 29.9492 21.1681 29.1063 21.1518 28.2326C21.1497 28.1149 21.1485 27.9965 21.1478 27.8778C21.1738 27.6569 21.2034 27.437 21.215 27.2131C21.2314 26.898 21.1331 26.3942 21.2909 26.1087C21.2989 26.0942 21.3049 26.0824 21.31 26.072C21.317 26.0869 21.3391 26.0968 21.3938 26.0846C21.5441 26.0511 21.7118 26.0426 21.865 26.0128C22.2539 25.9371 22.6473 25.8954 23.0421 25.8517C23.635 25.786 24.2378 25.7877 24.8195 25.6744C25.1396 25.612 25.4599 25.6646 25.7841 25.6256C26.1327 25.5834 26.4733 25.4776 26.8226 25.442C27.1676 25.4069 27.5123 25.4588 27.8576 25.4236C28.1397 25.3948 28.4147 25.321 28.6931 25.2685C29.4187 25.1314 30.1873 25.1423 30.924 25.0513C32.3506 24.8752 33.7813 24.7799 35.207 24.6199C35.8754 24.5449 36.5431 24.5781 37.2138 24.5621C37.3713 24.5584 37.6291 24.5948 37.778 24.5484C37.8076 24.5507 37.8372 24.5529 37.8668 24.5552C37.8711 24.5688 37.8761 24.5835 37.8822 24.6006C37.852 24.7518 37.91 25.0074 37.9089 25.1679C37.9075 25.3892 37.893 25.6102 37.8835 25.8312C37.8537 26.5285 37.8174 27.2197 37.9885 27.8996C38.1833 28.674 38.3902 29.4529 38.6213 30.2159C38.8264 30.8934 39.0629 31.5715 39.3396 32.2203C39.474 32.5355 39.5983 32.8618 39.7459 33.17C39.8742 33.4379 40.0696 33.6534 40.1987 33.9183C40.2723 34.0692 40.3473 34.2186 40.4233 34.3674C40.4459 34.5263 40.5171 34.676 40.6365 34.7778C40.7993 35.0872 40.9656 35.3953 41.1334 35.7062C41.4765 36.3414 41.9194 36.9075 42.2895 37.5244C42.6078 38.0551 42.9151 38.59 43.2569 39.1044C43.6422 39.6839 44.1073 40.1713 44.4296 40.8007C44.5358 41.0083 44.8356 41.4775 44.8061 41.7205Z" stroke="#23F38D" stroke-width="2" mask="url(#path-3-inside-2_1_606)"/>
<path d="M27.2741 9.07173L27.4175 9.4018C27.4175 9.40181 27.4175 9.40182 27.4174 9.40183C27.0897 9.54421 26.7155 9.54666 26.4308 9.53348C26.3056 9.52768 26.1791 9.51742 26.0663 9.50827C26.0448 9.50652 26.0238 9.50482 26.0034 9.5032C25.9766 9.50106 25.9509 9.49906 25.926 9.49723C25.8267 9.48989 25.7424 9.48519 25.669 9.48522L27.2741 9.07173ZM27.2741 9.07173L27.2183 8.94321C28.3052 8.47116 27.0839 6.17239 26.6218 5.57336C26.4921 5.40532 26.3805 5.21604 26.2689 5.02664L27.2741 9.07173ZM27.2741 9.07174C27.1415 9.1241 26.9838 9.14868 26.7887 9.15383C26.6616 9.15719 26.529 9.15226 26.3829 9.14529C26.3617 9.14428 26.3401 9.14322 26.3181 9.14214C26.1945 9.13606 26.0596 9.12943 25.9285 9.12855L25.9285 9.12855C25.8447 9.12799 25.7575 9.12908 25.6687 9.13118L25.6686 8.98522C25.8015 8.98516 25.9519 8.99735 26.1089 9.01008L27.2741 9.07174ZM25.6687 9.13118C25.5158 9.1348 25.3586 9.14142 25.2072 9.1478C25.0636 9.15384 24.9253 9.15967 24.8009 9.16251C24.4397 9.17074 24.1155 9.15893 23.8197 9.09292C23.8023 9.08904 23.7849 9.08529 23.7675 9.08166C23.7675 9.08166 23.7675 9.08166 23.7675 9.08166C23.3379 8.99224 22.896 8.97851 22.4827 8.98436C22.3974 8.98556 22.312 8.98764 22.2274 8.99018C22.2274 8.99018 22.2274 8.99018 22.2273 8.99018C22.1218 8.99335 22.0174 8.99723 21.9155 9.00101C21.8923 9.00187 21.8693 9.00272 21.8465 9.00356L25.6687 9.13118Z" stroke="#23F38D"/>
<path d="M10.1951 8.7235L10.1822 8.80632L10.1951 8.7235Z" stroke="#23F38D"/>
<mask id="path-6-inside-3_1_606" fill="white">
<path d="M40.6087 9.80433C40.475 9.51162 40.1776 9.42638 39.894 9.35894C39.5285 9.27197 39.1506 9.27007 38.7736 9.27893C38.3266 9.24149 37.8906 9.11538 37.4407 9.15158C36.8786 9.19682 36.3981 9.26216 35.8322 9.17853C35.3097 9.10148 34.7792 9.12396 34.2532 9.13815C33.5683 9.15682 32.9351 9.22835 32.6281 9.94234C32.3531 10.5818 32.2988 11.5588 32.6931 12.1617C33.0517 12.7098 33.7322 12.7755 34.3089 12.7807C35.2047 12.7887 36.0674 12.8934 36.964 12.8722C37.4711 12.8603 37.9792 12.859 38.4864 12.8552C38.9356 12.8518 39.4027 12.9081 39.8319 12.7382C40.5032 12.4726 40.6955 11.8548 40.7545 11.1475C40.7887 10.7415 40.7798 10.1788 40.6087 9.80433ZM40.0624 11.8417C39.8837 12.1862 39.495 12.2657 39.1524 12.2643C38.7083 12.2624 38.2643 12.252 37.8202 12.2516C37.4163 12.2512 37.0124 12.2471 36.6087 12.2614C36.1923 12.2762 35.8322 12.1796 35.4247 12.1373C34.8456 12.0772 34.2469 12.2233 33.6721 12.0972C32.9354 11.9353 32.8264 11.0764 33.0145 10.4005C33.1094 10.0595 33.2146 9.84643 33.5377 9.80461C33.9348 9.75308 34.3028 9.69155 34.7068 9.68546C35.1891 9.67822 35.6458 9.71975 36.1237 9.78366C36.4411 9.82604 36.7306 9.78718 37.0294 9.74441C37.145 9.75708 37.2936 9.7127 37.4059 9.70708C37.6155 9.69669 37.8322 9.71022 38.0493 9.72641C38.2504 9.75537 38.4517 9.78671 38.6592 9.77642C38.8065 9.76909 38.9453 9.7608 39.0865 9.7567C39.4189 9.75823 39.7826 9.78842 40.0161 9.97359C40.392 10.2716 40.2809 11.4208 40.0624 11.8417Z"/>
</mask>
<path d="M40.6087 9.80433L39.6991 10.2198L39.6991 10.2199L40.6087 9.80433ZM39.894 9.35894L39.6625 10.3318L39.6626 10.3318L39.894 9.35894ZM38.7736 9.27893L38.6901 10.2754L38.7435 10.2799L38.7971 10.2787L38.7736 9.27893ZM37.4407 9.15158L37.3605 8.1548L37.3605 8.1548L37.4407 9.15158ZM35.8322 9.17853L35.9784 8.18928L35.9781 8.18924L35.8322 9.17853ZM34.2532 9.13815L34.2262 8.13851L34.2259 8.13852L34.2532 9.13815ZM32.6281 9.94234L33.5467 10.3374L33.5468 10.3373L32.6281 9.94234ZM32.6931 12.1617L31.8563 12.7091L31.8563 12.7091L32.6931 12.1617ZM34.3089 12.7807L34.2998 13.7807L34.3 13.7807L34.3089 12.7807ZM36.964 12.8722L36.9406 11.8725L36.9405 11.8725L36.964 12.8722ZM38.4864 12.8552L38.4939 13.8552L38.4941 13.8552L38.4864 12.8552ZM39.8319 12.7382L39.4639 11.8084L39.4638 11.8084L39.8319 12.7382ZM40.7545 11.1475L39.758 11.0638L39.758 11.0644L40.7545 11.1475ZM40.0624 11.8417L39.1748 11.381L39.1747 11.3812L40.0624 11.8417ZM39.1524 12.2643L39.1481 13.2642L39.1482 13.2642L39.1524 12.2643ZM37.8202 12.2516L37.8193 13.2516H37.8194L37.8202 12.2516ZM36.6087 12.2614L36.5733 11.262L36.5733 11.262L36.6087 12.2614ZM35.4247 12.1373L35.3214 13.1319L35.3214 13.1319L35.4247 12.1373ZM33.6721 12.0972L33.4574 13.0739L33.4578 13.074L33.6721 12.0972ZM33.0145 10.4005L33.9779 10.6686L33.9779 10.6685L33.0145 10.4005ZM33.5377 9.80461L33.666 10.7963L33.6664 10.7963L33.5377 9.80461ZM34.7068 9.68546L34.6918 8.68557L34.6917 8.68557L34.7068 9.68546ZM36.1237 9.78366L35.9912 10.7748L35.9914 10.7749L36.1237 9.78366ZM37.0294 9.74441L37.1383 8.75036L37.0127 8.7366L36.8876 8.75451L37.0294 9.74441ZM37.4059 9.70708L37.3564 8.7083L37.3559 8.70833L37.4059 9.70708ZM38.0493 9.72641L38.1917 8.73661L38.1578 8.73173L38.1236 8.72918L38.0493 9.72641ZM38.6592 9.77642L38.7087 10.7752L38.7089 10.7752L38.6592 9.77642ZM39.0865 9.7567L39.0911 8.75671L39.0743 8.75664L39.0575 8.75712L39.0865 9.7567ZM40.0161 9.97359L39.3948 10.7571L39.3948 10.7572L40.0161 9.97359ZM41.5183 9.38888C41.1575 8.59879 40.353 8.4402 40.1254 8.38607L39.6626 10.3318C39.7285 10.3475 39.7715 10.3587 39.8055 10.3694C39.8386 10.3799 39.8478 10.3852 39.8432 10.3828C39.8372 10.3796 39.8114 10.3652 39.7798 10.3342C39.7462 10.3011 39.718 10.261 39.6991 10.2198L41.5183 9.38888ZM40.1255 8.3861C39.6234 8.26664 39.1319 8.27023 38.7501 8.2792L38.7971 10.2787C39.1692 10.2699 39.4336 10.2773 39.6625 10.3318L40.1255 8.3861ZM38.857 8.28242C38.6719 8.26691 38.5259 8.23728 38.2501 8.19775C38.0088 8.16317 37.6987 8.12759 37.3605 8.1548L37.5209 10.1484C37.6326 10.1394 37.7655 10.1487 37.9664 10.1775C38.1328 10.2014 38.4283 10.2535 38.6901 10.2754L38.857 8.28242ZM37.3605 8.1548C36.7354 8.20511 36.4016 8.25182 35.9784 8.18928L35.686 10.1678C36.3946 10.2725 37.0218 10.1885 37.521 10.1484L37.3605 8.1548ZM35.9781 8.18924C35.3506 8.09669 34.7213 8.12515 34.2262 8.13851L34.2802 10.1378C34.8371 10.1228 35.2689 10.1063 35.6863 10.1678L35.9781 8.18924ZM34.2259 8.13852C33.8858 8.14779 33.398 8.16852 32.9374 8.34715C32.4162 8.54927 31.9737 8.93271 31.7094 9.54734L33.5468 10.3373C33.5753 10.2711 33.598 10.2488 33.6034 10.2436C33.6092 10.2382 33.6226 10.2265 33.6605 10.2119C33.7644 10.1715 33.9357 10.1472 34.2804 10.1378L34.2259 8.13852ZM31.7095 9.54724C31.5141 10.0014 31.4079 10.5422 31.4096 11.0691C31.4114 11.5882 31.5191 12.1936 31.8563 12.7091L33.53 11.6143C33.4729 11.5269 33.4106 11.3423 33.4096 11.0624C33.4087 10.7901 33.467 10.5227 33.5467 10.3374L31.7095 9.54724ZM31.8563 12.7091C32.5366 13.7492 33.7673 13.7758 34.2998 13.7807L34.318 11.7807C34.0494 11.7783 33.8515 11.7602 33.705 11.7165C33.5777 11.6785 33.5463 11.6392 33.53 11.6143L31.8563 12.7091ZM34.3 13.7807C34.7184 13.7844 35.1285 13.8106 35.5805 13.8358C36.022 13.8605 36.4963 13.8835 36.9876 13.872L36.9405 11.8725C36.5352 11.8821 36.1298 11.8634 35.6919 11.839C35.2644 11.8151 34.7952 11.785 34.3178 11.7807L34.3 13.7807ZM36.9875 13.872C37.4841 13.8603 37.98 13.859 38.4939 13.8552L38.4789 11.8552C37.9784 11.859 37.4581 11.8604 36.9406 11.8725L36.9875 13.872ZM38.4941 13.8552C38.5892 13.8544 38.6838 13.8569 38.8069 13.8592C38.9223 13.8614 39.0587 13.8633 39.2001 13.8586C39.4829 13.8491 39.8353 13.8124 40.2001 13.668L39.4638 11.8084C39.3994 11.834 39.3036 11.854 39.1333 11.8597C39.0481 11.8625 38.9566 11.8617 38.8447 11.8595C38.7404 11.8576 38.6082 11.8542 38.4788 11.8552L38.4941 13.8552ZM40.1999 13.668C41.4386 13.1778 41.6857 12.0137 41.7511 11.2307L39.758 11.0644C39.7326 11.3685 39.6844 11.5504 39.6301 11.6578C39.5923 11.7326 39.5544 11.7726 39.4639 11.8084L40.1999 13.668ZM41.751 11.2313C41.7872 10.8013 41.8039 10.0138 41.5183 9.38878L39.6991 10.2199C39.7557 10.3437 39.7902 10.6817 39.758 11.0638L41.751 11.2313ZM39.1747 11.3812C39.1929 11.3461 39.2203 11.3122 39.2521 11.2856C39.2818 11.2608 39.3045 11.2514 39.3083 11.25C39.311 11.2489 39.3001 11.2533 39.2709 11.2576C39.2421 11.2617 39.204 11.2645 39.1565 11.2643L39.1482 13.2642C39.5544 13.2659 40.4913 13.1863 40.95 12.3023L39.1747 11.3812ZM39.1566 11.2643C38.7673 11.2626 38.2381 11.2519 37.8211 11.2516L37.8194 13.2516C38.2905 13.252 38.6492 13.2621 39.1481 13.2642L39.1566 11.2643ZM37.8212 11.2516C37.4303 11.2512 37.0005 11.2469 36.5733 11.262L36.6441 13.2608C37.0243 13.2473 37.4024 13.2512 37.8193 13.2516L37.8212 11.2516ZM36.5733 11.262C36.452 11.2663 36.3254 11.2552 36.1548 11.2308C36.0115 11.2103 35.7549 11.1662 35.5279 11.1426L35.3214 13.1319C35.502 13.1507 35.6292 13.176 35.8719 13.2107C36.0874 13.2415 36.349 13.2712 36.6441 13.2608L36.5733 11.262ZM35.5279 11.1426C35.1444 11.1028 34.7525 11.1317 34.5017 11.143C34.2123 11.1561 34.0344 11.1529 33.8864 11.1204L33.4578 13.074C33.8846 13.1676 34.2934 13.1544 34.5918 13.141C34.9289 13.1258 35.1259 13.1117 35.3214 13.1319L35.5279 11.1426ZM33.8868 11.1205C33.8836 11.1198 33.8922 11.1214 33.9073 11.1297C33.9225 11.1381 33.9369 11.1492 33.9485 11.1611C33.9715 11.1847 33.9657 11.1923 33.9543 11.1543C33.9425 11.115 33.9315 11.0479 33.9339 10.9545C33.9364 10.8626 33.9516 10.7633 33.9779 10.6686L32.0511 10.1323C31.9209 10.6004 31.8749 11.1831 32.0386 11.7289C32.2152 12.3175 32.6613 12.8989 33.4574 13.0739L33.8868 11.1205ZM33.9779 10.6685C33.9972 10.5993 34.0092 10.5655 34.0155 10.5503C34.0213 10.5361 34.0126 10.5622 33.9803 10.6038C33.9437 10.6509 33.888 10.7035 33.8144 10.7439C33.7435 10.7828 33.6867 10.7937 33.666 10.7963L33.4093 8.81289C33.0113 8.8644 32.6562 9.04808 32.4008 9.37692C32.1918 9.64596 32.1009 9.9536 32.0511 10.1325L33.9779 10.6685ZM33.6664 10.7963C34.1087 10.7389 34.3922 10.6903 34.7219 10.6853L34.6917 8.68557C34.2133 8.69279 33.7608 8.76727 33.409 8.81293L33.6664 10.7963ZM34.7218 10.6853C35.1362 10.6791 35.5395 10.7144 35.9912 10.7748L36.2563 8.79248C35.7521 8.72506 35.2419 8.67731 34.6918 8.68557L34.7218 10.6853ZM35.9914 10.7749C36.4628 10.8378 36.8797 10.776 37.1711 10.7343L36.8876 8.75451C36.5815 8.79833 36.4195 8.81427 36.2561 8.79246L35.9914 10.7749ZM36.9204 10.7385C37.0315 10.7506 37.1288 10.7471 37.1982 10.7417C37.2684 10.7363 37.331 10.7272 37.3726 10.7207C37.3938 10.7174 37.4147 10.714 37.4292 10.7116C37.4455 10.7089 37.4561 10.7072 37.465 10.7059C37.4856 10.7028 37.4775 10.7047 37.4559 10.7058L37.3559 8.70833C37.2781 8.71222 37.2093 8.72184 37.1669 8.72824C37.1443 8.73164 37.1227 8.73517 37.1065 8.7378C37.0886 8.74074 37.0768 8.74268 37.0651 8.7445C37.0411 8.74823 37.0378 8.74817 37.0442 8.74769C37.0497 8.74726 37.0851 8.74453 37.1383 8.75036L36.9204 10.7385ZM37.4554 10.7059C37.5965 10.6989 37.7577 10.7074 37.9749 10.7236L38.1236 8.72918C37.9067 8.713 37.6345 8.69453 37.3564 8.7083L37.4554 10.7059ZM37.9068 10.7162C38.0815 10.7414 38.3855 10.7912 38.7087 10.7752L38.6097 8.77765C38.5178 8.7822 38.4193 8.76937 38.1917 8.73661L37.9068 10.7162ZM38.7089 10.7752C38.8691 10.7672 38.9881 10.76 39.1155 10.7563L39.0575 8.75712C38.9024 8.76162 38.7438 8.77097 38.6095 8.77766L38.7089 10.7752ZM39.0819 10.7567C39.2273 10.7574 39.3293 10.7649 39.4007 10.7785C39.4759 10.7929 39.4515 10.8021 39.3948 10.7571L40.6375 9.19005C40.3472 8.95988 40.0242 8.86145 39.776 8.81404C39.5242 8.76593 39.2781 8.75757 39.0911 8.75671L39.0819 10.7567ZM39.3948 10.7572C39.3101 10.69 39.2688 10.6229 39.2532 10.5939C39.2377 10.5649 39.2375 10.5545 39.2425 10.5744C39.2533 10.6177 39.2652 10.7079 39.2624 10.8401C39.2596 10.967 39.244 11.0992 39.2207 11.2128C39.1949 11.338 39.1704 11.3896 39.1748 11.381L40.9499 12.3025C41.1566 11.9044 41.2521 11.3418 41.2619 10.8831C41.2672 10.6381 41.2501 10.3588 41.1828 10.0897C41.1214 9.84386 40.9831 9.46412 40.6374 9.18999L39.3948 10.7572Z" fill="#23F38D" mask="url(#path-6-inside-3_1_606)"/>
<path d="M18.5771 7.24957C18.3846 7.38024 18.2128 7.51769 18.0652 7.67118C18.2058 7.60974 18.3391 7.53042 18.477 7.44841C18.5295 7.41719 18.5826 7.38559 18.6371 7.35444M18.5771 7.24957L21.6779 5.65994C21.4926 5.75952 21.3057 5.857 21.1187 5.95455C20.7711 6.13589 20.423 6.31744 20.0837 6.51309C19.863 6.64025 19.6433 6.76883 19.4239 6.89727C19.1617 7.05074 18.8999 7.20401 18.6371 7.35444M18.5771 7.24957L18.6371 7.35444M18.5771 7.24957L18.6371 7.35444M17.5174 7.54084C17.5414 7.50993 17.566 7.47969 17.5912 7.45008L17.6015 7.6061L17.5174 7.54084ZM17.5174 7.54084C17.4494 7.62847 17.4854 7.79487 17.6133 7.78649M17.5174 7.54084L17.6015 7.60617L17.6133 7.78649M17.6133 7.78649C17.6779 7.78224 17.7396 7.77304 17.7992 7.75978L17.6015 7.60621L17.6133 7.78649ZM17.7994 7.75973C17.8608 7.74604 17.92 7.72802 17.9776 7.70664C17.9887 7.64985 17.9833 7.5947 17.968 7.54715C17.9517 7.49625 17.9155 7.42667 17.8417 7.36926C17.8046 7.34037 17.7641 7.31951 17.7229 7.30601C17.6775 7.35233 17.6336 7.40026 17.5913 7.44999L17.6015 7.60614L17.7994 7.75973Z" stroke="#23F38D"/>
<mask id="path-9-inside-4_1_606" fill="white">
<path d="M24.2427 5.14308C23.8442 5.11289 23.4456 5.48589 23.1128 5.70211C22.7756 5.92118 22.4407 6.14397 22.105 6.36438C22.1026 6.36562 22.1 6.36695 22.0977 6.36819C21.7869 6.5344 21.4897 6.73176 21.1929 6.92912C20.6 7.27021 19.9878 7.6072 19.5082 8.08393C19.3912 8.20023 19.5189 8.36025 19.6494 8.34101C20.0137 8.28691 20.384 8.04716 20.7149 7.87886C21.1824 7.64102 21.6348 7.32974 22.0848 7.05523C22.5035 6.79986 22.9146 6.54117 23.3292 6.27466C23.7072 6.03186 24.1633 5.86279 24.4166 5.46389C24.5078 5.32015 24.3839 5.15375 24.2427 5.14308Z"/>
</mask>
<path d="M24.2427 5.14308L24.1672 6.14023L24.1673 6.14024L24.2427 5.14308ZM23.1128 5.70211L22.568 4.86349L22.5679 4.86356L23.1128 5.70211ZM22.105 6.36438L22.5596 7.25505L22.6082 7.23026L22.6538 7.20034L22.105 6.36438ZM22.0977 6.36819L21.6293 5.48464L21.6261 5.48639L22.0977 6.36819ZM21.1929 6.92912L21.6916 7.79591L21.7196 7.77977L21.7465 7.76186L21.1929 6.92912ZM19.5082 8.08393L20.213 8.79335L20.2132 8.79315L19.5082 8.08393ZM19.6494 8.34101L19.7953 9.33031L19.7963 9.33016L19.6494 8.34101ZM20.7149 7.87886L21.1683 8.77018L21.1684 8.77013L20.7149 7.87886ZM22.0848 7.05523L21.5641 6.20146L21.5639 6.20157L22.0848 7.05523ZM23.3292 6.27466L22.7888 5.43323L22.7884 5.4335L23.3292 6.27466ZM24.4166 5.46389L23.5724 4.92779L23.5723 4.92789L24.4166 5.46389ZM24.3183 4.14594C23.7953 4.10632 23.3691 4.33211 23.1325 4.4764C23.0021 4.55593 22.882 4.64124 22.7905 4.70697C22.6878 4.78071 22.6262 4.82572 22.568 4.86349L23.6575 6.54072C23.7658 6.47038 23.8788 6.38769 23.9569 6.33162C24.0461 6.26755 24.1131 6.22095 24.1737 6.18399C24.2344 6.14699 24.2647 6.13479 24.2717 6.13237C24.2762 6.13079 24.2365 6.14548 24.1672 6.14023L24.3183 4.14594ZM22.5679 4.86356C22.229 5.0838 21.8842 5.31309 21.5562 5.52842L22.6538 7.20034C22.9972 6.97485 23.3222 6.75857 23.6576 6.54066L22.5679 4.86356ZM21.6503 5.47371C21.6399 5.47905 21.6305 5.48402 21.6293 5.48465L22.5661 7.25173C22.5674 7.251 22.567 7.25124 22.5662 7.25163C22.5654 7.25207 22.563 7.25333 22.5596 7.25505L21.6503 5.47371ZM21.6261 5.48639C21.2661 5.67891 20.9295 5.90339 20.6392 6.09637L21.7465 7.76186C22.05 7.56014 22.3077 7.3899 22.5693 7.24999L21.6261 5.48639ZM20.6942 6.06233C20.1406 6.38083 19.3959 6.78556 18.8032 7.37471L20.2132 8.79315C20.5797 8.42885 21.0594 8.15959 21.6916 7.79591L20.6942 6.06233ZM18.8034 7.37451C18.6204 7.55633 18.4886 7.80632 18.4656 8.09733C18.4436 8.37705 18.5276 8.6223 18.6455 8.80515C18.8617 9.14043 19.29 9.40484 19.7953 9.33031L19.5035 7.35171C19.8783 7.29643 20.1775 7.49044 20.3265 7.72145C20.4107 7.85216 20.4766 8.0368 20.4595 8.25441C20.4414 8.4833 20.3375 8.66968 20.213 8.79335L18.8034 7.37451ZM19.7963 9.33016C20.1299 9.28061 20.4225 9.15448 20.6338 9.05117C20.7435 8.99755 20.8479 8.94158 20.9355 8.8942C21.029 8.84367 21.0997 8.80505 21.1683 8.77018L20.2616 6.98753C20.1647 7.03682 20.065 7.09129 19.9846 7.13473C19.8984 7.18133 19.8253 7.22023 19.7555 7.25436C19.6079 7.32652 19.5331 7.34731 19.5025 7.35186L19.7963 9.33016ZM21.1684 8.77013C21.6804 8.50961 22.2217 8.14308 22.6056 7.90889L21.5639 6.20157C21.0479 6.5164 20.6843 6.77243 20.2614 6.98759L21.1684 8.77013ZM22.6054 7.909C23.0321 7.64879 23.45 7.38579 23.87 7.11581L22.7884 5.4335C22.3793 5.69654 21.9749 5.95094 21.5641 6.20146L22.6054 7.909ZM23.8696 7.11608C23.9357 7.07359 24.01 7.03132 24.1135 6.97305C24.2085 6.91957 24.3328 6.85005 24.4556 6.77205C24.704 6.61439 25.021 6.3776 25.2608 5.99989L23.5723 4.92789C23.5589 4.94908 23.5212 4.99628 23.3837 5.08357C23.3136 5.12806 23.2372 5.17126 23.1324 5.23023C23.0362 5.28441 22.9117 5.35432 22.7888 5.43323L23.8696 7.11608ZM25.2607 5.99999C25.5404 5.55962 25.4757 5.06852 25.27 4.73202C25.0837 4.42719 24.7433 4.17807 24.3181 4.14593L24.1673 6.14024C23.8832 6.11877 23.6755 5.95818 23.5636 5.77516C23.4323 5.56046 23.384 5.22442 23.5724 4.92779L25.2607 5.99999Z" fill="#23F38D" mask="url(#path-9-inside-4_1_606)"/>
<mask id="path-11-inside-5_1_606" fill="white">
<path d="M10.1237 30.424C9.99298 30.1006 9.78849 29.8029 9.44709 29.721C9.18142 29.6574 8.8879 29.7417 8.70103 29.9435C8.39152 30.0168 8.17886 30.3261 8.01238 30.6137C7.83053 30.928 7.89127 31.272 7.97851 31.6061C8.19224 32.4254 8.80156 32.8898 9.59901 32.518C10.4519 32.1207 10.4487 31.2278 10.1237 30.424ZM9.74186 31.6208C9.55463 31.8906 9.18385 32.0258 8.83552 31.8255C8.66024 31.7246 8.47211 31.5195 8.44524 31.3036C8.44461 31.2778 8.4438 31.2522 8.44533 31.2259C8.4465 31.205 8.44991 31.1851 8.45225 31.1646C8.45432 31.156 8.45575 31.1472 8.45845 31.1386C8.55126 30.8392 8.82007 30.5196 9.09562 30.4152C9.10137 30.413 9.10613 30.4094 9.11071 30.4056C9.35841 30.387 9.57565 30.5802 9.73414 30.8187C9.73548 30.8207 9.7362 30.8228 9.73746 30.8248C9.76055 30.8954 9.78023 30.9645 9.79559 31.024C9.85273 31.2448 9.82739 31.4528 9.74186 31.6208Z"/>
</mask>
<path d="M10.1237 30.424L9.19658 30.7988L9.1966 30.7988L10.1237 30.424ZM9.44709 29.721L9.68014 28.7486L9.68 28.7485L9.44709 29.721ZM8.70103 29.9435L8.93132 30.9167L9.22781 30.8465L9.4348 30.6229L8.70103 29.9435ZM8.01238 30.6137L7.14688 30.1128L7.14679 30.113L8.01238 30.6137ZM7.97851 31.6061L8.94612 31.3537L8.94607 31.3535L7.97851 31.6061ZM9.59901 32.518L9.17676 31.6115L9.1764 31.6117L9.59901 32.518ZM9.74186 31.6208L10.5635 32.1909L10.6022 32.135L10.633 32.0745L9.74186 31.6208ZM8.83552 31.8255L8.33675 32.6922L8.337 32.6924L8.83552 31.8255ZM8.44524 31.3036L7.44554 31.328L7.44675 31.3777L7.4529 31.4271L8.44524 31.3036ZM8.44533 31.2259L9.44365 31.2839L9.44377 31.2818L8.44533 31.2259ZM8.45225 31.1646L7.47951 30.9327L7.46553 30.9914L7.45869 31.0513L8.45225 31.1646ZM8.45845 31.1386L9.41242 31.4386L9.41363 31.4347L8.45845 31.1386ZM9.09562 30.4152L9.4499 31.3504L9.45165 31.3497L9.09562 30.4152ZM9.11071 30.4056L9.03594 29.4084L8.71716 29.4323L8.47136 29.6367L9.11071 30.4056ZM9.73414 30.8187L8.90123 31.3722L8.9048 31.3775L9.73414 30.8187ZM9.73746 30.8248L10.6879 30.5139L10.6496 30.3968L10.584 30.2925L9.73746 30.8248ZM9.79559 31.024L8.82741 31.2742L8.82749 31.2745L9.79559 31.024ZM11.0508 30.0492C10.8866 29.643 10.5096 28.9473 9.68014 28.7486L9.21403 30.6935C9.18528 30.6866 9.1587 30.6746 9.13793 30.6612C9.11853 30.6488 9.11117 30.6397 9.11386 30.6428C9.11701 30.6463 9.12778 30.6596 9.1437 30.6873C9.15955 30.7149 9.17752 30.7516 9.19658 30.7988L11.0508 30.0492ZM9.68 28.7485C9.07403 28.6034 8.40743 28.7887 7.96725 29.2642L9.4348 30.6229C9.39816 30.6625 9.359 30.6826 9.32757 30.6918C9.29654 30.701 9.25838 30.7041 9.21417 30.6935L9.68 28.7485ZM8.47073 28.9704C8.05301 29.0693 7.75772 29.3141 7.56721 29.5211C7.37809 29.7266 7.23922 29.9532 7.14688 30.1128L8.87788 31.1146C8.91282 31.0543 8.94363 31.0042 8.97262 30.9617C9.00177 30.919 9.02388 30.8917 9.03892 30.8754C9.07374 30.8375 9.03953 30.8911 8.93132 30.9167L8.47073 28.9704ZM7.14679 30.113C6.74287 30.8112 6.92385 31.5252 7.01094 31.8587L8.94607 31.3535C8.92726 31.2814 8.91426 31.2253 8.90566 31.1774C8.89714 31.1301 8.89469 31.1 8.89433 31.0824C8.894 31.0658 8.89566 31.0653 8.89335 31.0755C8.8907 31.0872 8.88536 31.1017 8.87796 31.1145L7.14679 30.113ZM7.01089 31.8586C7.15974 32.4291 7.48008 33.0112 8.04464 33.3597C8.65334 33.7354 9.36719 33.7294 10.0216 33.4243L9.1764 31.6117C9.0938 31.6502 9.05833 31.6477 9.0629 31.6478C9.07124 31.648 9.08633 31.6523 9.09509 31.6577C9.10219 31.6621 9.01101 31.6024 8.94612 31.3537L7.01089 31.8586ZM10.0213 33.4244C10.7555 33.0824 11.1689 32.4783 11.2881 31.7954C11.3971 31.1712 11.2527 30.5485 11.0508 30.0492L9.1966 30.7988C9.31971 31.1033 9.33934 31.3289 9.31795 31.4514C9.30903 31.5025 9.29534 31.5245 9.28765 31.5347C9.28088 31.5437 9.25577 31.5747 9.17676 31.6115L10.0213 33.4244ZM8.92027 31.0507C8.95551 30.9999 9.01187 30.9544 9.09194 30.9331C9.1854 30.9082 9.27749 30.9261 9.33404 30.9586L8.337 32.6924C9.19545 33.186 10.1211 32.8284 10.5635 32.1909L8.92027 31.0507ZM9.3343 30.9588C9.34889 30.9672 9.35544 30.9727 9.35706 30.9741C9.35897 30.9758 9.36223 30.9787 9.36728 30.9851C9.37206 30.9911 9.38394 31.007 9.3972 31.0351C9.41042 31.0631 9.42912 31.1121 9.43759 31.1801L7.4529 31.4271C7.49585 31.7723 7.65543 32.0458 7.80217 32.2302C7.95229 32.4189 8.13921 32.5785 8.33675 32.6922L9.3343 30.9588ZM9.44495 31.2793C9.44487 31.2762 9.44475 31.2713 9.4447 31.2693C9.44463 31.2665 9.44458 31.2643 9.44454 31.2625C9.44446 31.2588 9.44445 31.2577 9.44445 31.258C9.44446 31.2585 9.44454 31.2685 9.44365 31.2839L7.44702 31.1679C7.44259 31.2441 7.44524 31.3156 7.44554 31.328L9.44495 31.2793ZM9.44377 31.2818C9.44304 31.2948 9.44211 31.305 9.44144 31.3116C9.4408 31.318 9.44028 31.322 9.44035 31.3214C9.44037 31.3212 9.44047 31.3205 9.44073 31.3185C9.44087 31.3175 9.44099 31.3165 9.44119 31.315C9.44136 31.3137 9.44158 31.312 9.44182 31.3103C9.4427 31.3035 9.44424 31.2917 9.44581 31.278L7.45869 31.0513C7.45909 31.0478 7.45933 31.0462 7.45888 31.0496C7.4588 31.0502 7.45733 31.0612 7.45636 31.0688C7.45404 31.0871 7.44944 31.1245 7.4469 31.17L9.44377 31.2818ZM9.42499 31.3965C9.4281 31.3835 9.43042 31.3728 9.43137 31.3683C9.43163 31.3671 9.43186 31.366 9.43201 31.3653C9.43221 31.3644 9.43222 31.3644 9.4323 31.364C9.43241 31.3635 9.43219 31.3645 9.43182 31.3662C9.43112 31.3694 9.42915 31.3782 9.42619 31.39C9.42317 31.4019 9.41867 31.4187 9.41241 31.4386L7.50449 30.8387C7.48985 30.8853 7.48139 30.9235 7.4784 30.937C7.47737 30.9418 7.4752 30.9519 7.47605 30.9479C7.47607 30.9478 7.47743 30.9415 7.47951 30.9327L9.42499 31.3965ZM9.41363 31.4347C9.41194 31.4401 9.41393 31.4322 9.42441 31.414C9.43452 31.3965 9.44809 31.3773 9.46346 31.3596C9.47907 31.3416 9.49092 31.3317 9.49496 31.3286C9.50009 31.3247 9.48611 31.3366 9.4499 31.3504L8.74134 29.4801C8.40461 29.6077 8.13914 29.8343 7.95355 30.048C7.76396 30.2663 7.59687 30.5406 7.50327 30.8426L9.41363 31.4347ZM9.45165 31.3497C9.62187 31.2848 9.73346 31.1883 9.75007 31.1745L8.47136 29.6367C8.47881 29.6305 8.58087 29.5412 8.73958 29.4807L9.45165 31.3497ZM9.18549 31.4028C9.01246 31.4158 8.89971 31.3476 8.87095 31.3268C8.84813 31.3104 8.86397 31.316 8.90125 31.3721L10.567 30.2653C10.3742 29.9751 9.86694 29.3461 9.03594 29.4084L9.18549 31.4028ZM8.9048 31.3775C8.88302 31.3451 8.86697 31.3171 8.8564 31.2977C8.85113 31.288 8.84696 31.2799 8.84418 31.2745C8.84151 31.2692 8.83949 31.2651 8.83914 31.2644C8.83903 31.2642 8.83894 31.264 8.83897 31.264C8.83898 31.2641 8.83897 31.264 8.83899 31.2641C8.839 31.2641 8.83902 31.2641 8.83904 31.2642C8.83908 31.2643 8.83914 31.2644 8.83921 31.2645C8.83948 31.2651 8.84016 31.2665 8.841 31.2682C8.84266 31.2715 8.84581 31.2778 8.84987 31.2856C8.85799 31.3011 8.87181 31.3267 8.89092 31.3571L10.584 30.2925C10.6025 30.3219 10.6157 30.3464 10.6233 30.361C10.6271 30.3683 10.63 30.374 10.6314 30.3769C10.6323 30.3786 10.634 30.382 10.6325 30.3791C10.6319 30.3779 10.6297 30.3733 10.6267 30.3675C10.6237 30.3615 10.6192 30.3529 10.6137 30.3427C10.6026 30.3223 10.5859 30.2933 10.5635 30.2599L8.9048 31.3775ZM8.78703 31.1357C8.80263 31.1834 8.81651 31.2321 8.82741 31.2742L10.7638 30.7737C10.7439 30.697 10.7185 30.6073 10.6879 30.5139L8.78703 31.1357ZM8.82749 31.2745C8.82784 31.2759 8.82497 31.2652 8.82702 31.2444C8.82904 31.2238 8.83561 31.1968 8.85069 31.1671L10.633 32.0745C10.8362 31.6753 10.878 31.2152 10.7637 30.7734L8.82749 31.2745Z" fill="#23F38D" mask="url(#path-11-inside-5_1_606)"/>
</svg>
