<svg width="35" height="26" viewBox="0 0 35 26" fill="none" xmlns="http://www.w3.org/2000/svg">
<path d="M28.464 1.952C28.56 1.76 28.752 1.544 29.04 1.304C29.376 1.016 29.832 0.871997 30.408 0.871997H33.504C33.744 0.871997 33.888 0.991997 33.936 1.232C34.032 1.472 33.96 1.832 33.72 2.312L27.744 13.184H33.216C33.456 13.184 33.672 13.304 33.864 13.544C34.104 13.736 34.224 13.952 34.224 14.192V24.488C34.224 24.728 34.104 24.968 33.864 25.208C33.672 25.4 33.456 25.496 33.216 25.496H20.832C20.592 25.496 20.352 25.4 20.112 25.208C19.92 24.968 19.824 24.728 19.824 24.488V14.336L28.464 1.952ZM8.88 1.952C8.976 1.76 9.168 1.544 9.456 1.304C9.792 1.016 10.248 0.871997 10.824 0.871997H13.92C14.16 0.871997 14.304 0.991997 14.352 1.232C14.448 1.472 14.376 1.832 14.136 2.312L8.16 13.184H13.632C13.872 13.184 14.088 13.304 14.28 13.544C14.52 13.736 14.64 13.952 14.64 14.192V24.488C14.64 24.728 14.52 24.968 14.28 25.208C14.088 25.4 13.872 25.496 13.632 25.496H1.248C1.008 25.496 0.768 25.4 0.528 25.208C0.336 24.968 0.24 24.728 0.24 24.488V14.336L8.88 1.952Z" fill="#23F38D"/>
</svg>
