<svg width="47" height="51" viewBox="0 0 47 51" fill="none" xmlns="http://www.w3.org/2000/svg">
<g id="Frame 1">
<g id="Group">
<g id="Group_2">
<g id="Vector">
<mask id="path-1-inside-1_1_20" fill="white">
<path d="M13.5793 21.0954C12.9956 20.9677 12.4853 20.6344 11.9376 20.408C11.9337 20.406 11.9299 20.4039 11.9261 20.4018C11.9257 20.4022 11.9255 20.4027 11.9252 20.4032C11.8823 20.3854 11.8395 20.367 11.796 20.351C11.202 20.1311 10.8706 20.9992 11.3767 21.272C11.3766 21.2722 11.3764 21.2725 11.3763 21.2727C11.3793 21.2739 11.3822 21.2754 11.3852 21.2767C11.3925 21.2805 11.4004 21.2838 11.408 21.2873C12.034 21.5657 12.5886 21.9663 13.2722 22.1276C13.9942 22.2978 14.303 21.2538 13.5793 21.0954Z"/>
</mask>
<path d="M13.5793 21.0954C12.9956 20.9677 12.4853 20.6344 11.9376 20.408C11.9337 20.406 11.9299 20.4039 11.9261 20.4018C11.9257 20.4022 11.9255 20.4027 11.9252 20.4032C11.8823 20.3854 11.8395 20.367 11.796 20.351C11.202 20.1311 10.8706 20.9992 11.3767 21.272C11.3766 21.2722 11.3764 21.2725 11.3763 21.2727C11.3793 21.2739 11.3822 21.2754 11.3852 21.2767C11.3925 21.2805 11.4004 21.2838 11.408 21.2873C12.034 21.5657 12.5886 21.9663 13.2722 22.1276C13.9942 22.2978 14.303 21.2538 13.5793 21.0954Z" stroke="#23F38D" stroke-width="2" mask="url(#path-1-inside-1_1_20)"/>
</g>
</g>
</g>
<g id="Group_3">
<g id="Group_4">
<g id="Vector_2">
<mask id="path-2-inside-2_1_20" fill="white">
<path d="M12.582 26.8487C12.5743 26.8386 12.5665 26.8287 12.5588 26.8185C12.4466 26.673 12.2608 26.5227 12.0477 26.5471C11.778 26.5781 11.5092 26.6196 11.2403 26.6597C10.8911 26.6374 10.5141 26.734 10.1805 26.7938C9.57929 26.9014 9.71799 27.7992 10.3246 27.7795C10.9004 27.7608 11.4728 27.6784 12.0477 27.6431C12.2464 27.6308 12.4658 27.5498 12.5588 27.3716L12.582 27.3271C12.6576 27.1823 12.6919 26.991 12.582 26.8487Z"/>
</mask>
<path d="M12.582 26.8487C12.5743 26.8386 12.5665 26.8287 12.5588 26.8185C12.4466 26.673 12.2608 26.5227 12.0477 26.5471C11.778 26.5781 11.5092 26.6196 11.2403 26.6597C10.8911 26.6374 10.5141 26.734 10.1805 26.7938C9.57929 26.9014 9.71799 27.7992 10.3246 27.7795C10.9004 27.7608 11.4728 27.6784 12.0477 27.6431C12.2464 27.6308 12.4658 27.5498 12.5588 27.3716L12.582 27.3271C12.6576 27.1823 12.6919 26.991 12.582 26.8487Z" stroke="#23F38D" stroke-width="2" mask="url(#path-2-inside-2_1_20)"/>
</g>
</g>
</g>
<g id="Group_5">
<g id="Group_6">
<g id="Vector_3">
<mask id="path-3-inside-3_1_20" fill="white">
<path d="M12.9853 31.8028C12.547 32.2157 11.9966 32.4807 11.5583 32.8949C11.3687 33.0741 11.3462 33.3637 11.5156 33.5604C11.698 33.7725 11.9643 33.7957 12.2219 33.691C12.5577 33.5545 12.8592 33.3297 13.1429 33.119C13.3971 32.9304 13.7144 32.7073 13.8715 32.436C14.1684 31.9235 13.4468 31.3681 12.9853 31.8028Z"/>
</mask>
<path d="M12.9853 31.8028C12.547 32.2157 11.9966 32.4807 11.5583 32.8949C11.3687 33.0741 11.3462 33.3637 11.5156 33.5604C11.698 33.7725 11.9643 33.7957 12.2219 33.691C12.5577 33.5545 12.8592 33.3297 13.1429 33.119C13.3971 32.9304 13.7144 32.7073 13.8715 32.436C14.1684 31.9235 13.4468 31.3681 12.9853 31.8028Z" stroke="#23F38D" stroke-width="2" mask="url(#path-3-inside-3_1_20)"/>
</g>
</g>
</g>
<g id="Group_7">
<g id="Group_8">
<g id="Vector_4">
<mask id="path-4-inside-4_1_20" fill="white">
<path d="M18.0193 35.8901C17.8596 35.7044 17.5095 35.5902 17.2801 35.7534C16.7379 36.1389 16.2404 36.8631 16.053 37.4744C15.8938 37.9932 16.5682 38.2297 16.9152 37.9343L16.9273 37.9455C17.1355 37.7277 17.2824 37.4612 17.4506 37.2165C17.6075 36.9881 17.7949 36.7975 17.9744 36.5863C18.1511 36.3786 18.211 36.1129 18.0193 35.8901Z"/>
</mask>
<path d="M18.0193 35.8901C17.8596 35.7044 17.5095 35.5902 17.2801 35.7534C16.7379 36.1389 16.2404 36.8631 16.053 37.4744C15.8938 37.9932 16.5682 38.2297 16.9152 37.9343L16.9273 37.9455C17.1355 37.7277 17.2824 37.4612 17.4506 37.2165C17.6075 36.9881 17.7949 36.7975 17.9744 36.5863C18.1511 36.3786 18.211 36.1129 18.0193 35.8901Z" stroke="#23F38D" stroke-width="2" mask="url(#path-4-inside-4_1_20)"/>
</g>
</g>
</g>
<g id="Group_9">
<g id="Group_10">
<g id="Vector_5">
<mask id="path-5-inside-5_1_20" fill="white">
<path d="M18.2291 16.7409C18.4055 16.8081 18.2081 16.6946 18.2296 16.7199C18.1887 16.6872 18.1491 16.6528 18.1111 16.6176C18.0011 16.5163 17.9028 16.405 17.8062 16.2928C17.6343 16.093 17.4754 15.8837 17.307 15.6813C17.1403 15.481 16.8714 15.3736 16.6139 15.5131C16.3926 15.6329 16.2742 15.9463 16.4322 16.1546C16.631 16.4294 16.8164 16.7125 17.0244 16.9817C17.2355 17.2548 17.453 17.5656 17.7755 17.7368C18.082 17.8995 18.4741 17.7761 18.6106 17.4762C18.7591 17.15 18.5547 16.8648 18.2291 16.7409Z"/>
</mask>
<path d="M18.2291 16.7409C18.4055 16.8081 18.2081 16.6946 18.2296 16.7199C18.1887 16.6872 18.1491 16.6528 18.1111 16.6176C18.0011 16.5163 17.9028 16.405 17.8062 16.2928C17.6343 16.093 17.4754 15.8837 17.307 15.6813C17.1403 15.481 16.8714 15.3736 16.6139 15.5131C16.3926 15.6329 16.2742 15.9463 16.4322 16.1546C16.631 16.4294 16.8164 16.7125 17.0244 16.9817C17.2355 17.2548 17.453 17.5656 17.7755 17.7368C18.082 17.8995 18.4741 17.7761 18.6106 17.4762C18.7591 17.15 18.5547 16.8648 18.2291 16.7409Z" stroke="#23F38D" stroke-width="2" mask="url(#path-5-inside-5_1_20)"/>
</g>
</g>
</g>
<g id="Group_11">
<g id="Group_12">
<g id="Vector_6">
<mask id="path-6-inside-6_1_20" fill="white">
<path d="M44.5039 3.4315C44.4949 3.42344 44.4857 3.41587 44.4767 3.4078C45.2759 2.82668 45.3402 1.24687 44.7727 0.590944C43.5939 -0.771014 42.0659 0.503985 41.3144 1.57757C40.7814 1.40346 40.2302 1.28054 39.6703 1.21729C38.0422 1.03341 36.5729 1.55965 35.2519 2.41728C33.374 3.6365 29.8938 6.76573 32.1197 8.93821C32.4781 9.28813 32.8938 9.59613 33.3385 9.87324C33.2919 9.92892 33.2476 9.98689 33.2061 10.0478C33.0571 10.266 32.896 10.3872 32.7315 10.5641C31.4103 9.98251 30.0208 9.52859 28.6032 9.20486C25.4881 8.49325 22.2433 8.49166 19.1213 9.20486C17.7037 9.52869 16.3142 9.98261 14.9929 10.5641C14.8285 10.3873 14.6674 10.2661 14.5183 10.0478C14.4768 9.98689 14.4324 9.92892 14.3859 9.87324C14.8305 9.59623 15.2463 9.28813 15.6047 8.93821C17.8305 6.76573 14.3503 3.6365 12.4725 2.41728C11.1515 1.55965 9.68217 1.03341 8.05409 1.21729C7.49422 1.28054 6.94295 1.40346 6.40998 1.57757C5.65824 0.503985 4.13023 -0.771014 2.95151 0.590944C2.38389 1.24687 2.44824 2.82668 3.24743 3.4078C3.2385 3.41587 3.22924 3.42344 3.22031 3.4315C0.401676 5.99973 0.538444 9.99526 2.11972 13.115C2.46051 13.7873 2.89793 14.5453 3.58596 14.9668C4.26474 15.3824 5.03886 15.2163 5.71 14.8711C6.39922 14.5166 6.96286 14.0054 7.5576 13.5339C7.65681 14.1314 8.04494 14.7854 8.50797 15.1472C7.41114 16.3331 6.4796 17.6512 5.75293 19.0711C3.63148 23.2154 3.19008 27.9586 4.26334 32.4196C4.76317 34.4973 5.55924 36.5591 6.8559 38.3299C8.02106 39.9212 9.50893 41.2674 11.2031 42.3736C11.3881 42.4943 11.5762 42.6112 11.7656 42.7264C11.432 43.6316 11.1613 44.5944 10.9201 45.511C10.7312 46.2282 10.6252 46.9698 10.5369 47.7034C10.4159 48.7078 10.2102 50.5366 11.5653 50.9352C12.5502 51.2249 13.5467 50.4821 14.2308 49.9214C15.2444 49.0907 16.1071 48.0972 16.919 47.099C17.3191 46.6072 17.7058 46.1059 18.0799 45.5969C18.134 45.5232 18.1892 45.4514 18.2424 45.3802C19.4213 45.6668 20.6311 45.8617 21.8473 45.9335C23.1538 46.0107 24.5531 46.0119 25.8768 45.9335C27.0931 45.8617 28.3028 45.6668 29.4817 45.3802C29.535 45.4514 29.5901 45.5232 29.6442 45.5969C30.0182 46.1059 30.405 46.6073 30.8051 47.099C31.6169 48.0972 32.4796 49.0907 33.4933 49.9214C34.1773 50.4821 35.1739 51.2249 36.1588 50.9352C37.5138 50.5366 37.308 48.7078 37.1871 47.7034C37.0988 46.9698 36.9927 46.2282 36.8039 45.511C36.5626 44.5944 36.292 43.6316 35.9583 42.7264C36.1478 42.6112 36.3358 42.4943 36.5209 42.3736C38.215 41.2675 39.7029 39.9212 40.8681 38.3299C42.1647 36.5591 42.9608 34.4973 43.4606 32.4196C44.5339 27.9586 44.0926 23.2155 41.971 19.0711C41.2444 17.6512 40.3128 16.3332 39.216 15.1472C39.6789 14.7854 40.0672 14.1314 40.1664 13.5339C40.7611 14.0053 41.3249 14.5166 42.014 14.8711C42.685 15.2163 43.4592 15.3824 44.138 14.9668C44.826 14.5454 45.2635 13.7873 45.6042 13.115C47.1857 9.99526 47.3225 5.99973 44.5039 3.4315ZM43.9296 1.22506C44.2697 1.63077 44.0809 2.35682 43.8299 2.87957C43.3808 2.54677 42.895 2.25352 42.3829 2.00789C42.8055 1.45237 43.4363 0.636466 43.9296 1.22506ZM3.79461 1.22506C4.28787 0.636466 4.91856 1.45237 5.34123 2.00789C4.82903 2.25352 4.3434 2.54677 3.89425 2.87957C3.64331 2.35682 3.45457 1.63077 3.79461 1.22506ZM6.45011 13.0631C5.99042 13.4167 5.21092 14.1535 4.56076 14.1348C4.08816 14.1212 3.74877 13.5209 3.54679 13.1913C2.0289 10.7146 1.50819 7.15888 3.54787 4.79645C4.52138 3.66897 5.925 2.83355 7.43374 2.47446C8.83747 2.14037 10.0602 2.36429 11.288 3.04851C12.5582 3.75633 13.7099 4.76816 14.4857 5.94166C14.7558 6.35016 15.1482 6.94741 15.1423 7.44148C15.1387 7.73961 14.8704 8.00596 14.6543 8.20568C14.0573 8.75742 13.3157 9.17617 12.5572 9.55349C12.3936 9.61047 12.2346 9.67621 12.0827 9.73946C11.586 9.94635 11.1186 10.1983 10.6581 10.4624C10.096 10.724 9.52119 10.9961 9.02018 11.3433C8.10725 11.8431 7.25049 12.4474 6.45011 13.0631ZM13.9154 11.0778C13.8406 11.1159 13.7646 11.1519 13.6905 11.1909C11.997 12.0795 10.4595 13.2011 9.13145 14.5048C8.89848 14.0274 8.46967 13.5665 8.65862 13.124C8.96498 12.4071 10.2319 11.932 10.8946 11.5439C10.9182 11.53 10.9421 11.5163 10.9659 11.5024C11.3416 11.3518 11.716 11.1973 12.0887 11.0336C12.5086 10.8489 12.9421 10.6529 13.369 10.4383C13.3754 10.4393 13.3828 10.4389 13.389 10.4404C13.4603 10.4566 13.4414 10.466 13.512 10.5463C13.6481 10.7013 13.7723 10.9057 13.9154 11.0778ZM16.4804 45.7206C15.7889 46.611 15.063 47.4851 14.2623 48.2944C13.6892 48.8735 12.9777 49.6476 12.1268 49.8699C12.0446 49.8914 11.9431 49.8906 11.9262 49.8818C11.8557 49.8455 11.769 49.7112 11.7165 49.5404C11.5444 48.981 11.6151 48.3437 11.6665 47.7723C11.733 47.0325 11.812 46.2802 11.9717 45.5533C12.139 44.7917 12.4321 43.9734 12.5324 43.1706C13.9231 43.9379 15.4142 44.5605 16.951 45.0275C16.7804 45.2802 16.6265 45.5325 16.4804 45.7206ZM36.0576 47.7724C36.1091 48.3438 36.1798 48.9811 36.0077 49.5405C35.9552 49.7113 35.8685 49.8456 35.798 49.8819C35.7811 49.8907 35.6796 49.8915 35.5974 49.87C34.7465 49.6477 34.035 48.8736 33.4619 48.2945C32.6613 47.4852 31.9352 46.6112 31.2439 45.7207C31.0979 45.5326 30.9439 45.2803 30.7733 45.0276C32.31 44.5606 33.8012 43.938 35.1918 43.1708C35.2922 43.9735 35.5854 44.7917 35.7526 45.5534C35.9122 46.2802 35.9911 47.0326 36.0576 47.7724ZM41.8411 33.5184C41.2514 35.3705 40.3811 37.1375 39.0434 38.6334C37.8009 40.0229 36.2781 41.1613 34.6029 42.0751C31.9122 43.5427 28.5791 44.6837 25.4185 44.6158C24.3407 44.5926 23.2714 44.7068 22.1878 44.6412C21.1237 44.5766 20.0649 44.4387 19.0237 44.2252C16.9497 43.8001 14.9515 43.0734 13.1213 42.0751C11.4461 41.1613 9.92332 40.0229 8.68079 38.6334C7.34303 37.1375 6.47282 35.3705 5.88303 33.5184C3.46824 25.9363 5.9534 17.2042 13.3041 12.7706C14.9917 11.7527 16.8414 10.9929 18.7794 10.4891C19.7948 10.2251 20.8281 10.0263 21.8689 9.87125C23.1873 9.67482 24.5253 9.67312 25.8553 9.87125C26.896 10.0263 27.9294 10.2251 28.9448 10.4891C30.8827 10.993 32.7325 11.7528 34.4201 12.7706C41.7708 17.2042 44.2559 25.9363 41.8411 33.5184ZM33.8088 11.0778C33.9519 10.9057 34.0761 10.7013 34.2123 10.5461C34.2828 10.4658 34.2638 10.4565 34.3353 10.4402C34.3415 10.4387 34.3487 10.4391 34.3553 10.4381C34.7822 10.6526 35.2157 10.8487 35.6356 11.0334C36.0082 11.1972 36.3827 11.3516 36.7584 11.5022C36.7821 11.5161 36.806 11.5298 36.8297 11.5437C37.4924 11.9318 38.7593 12.4069 39.0657 13.1238C39.2547 13.5663 38.8258 14.0272 38.5928 14.5046C37.2648 13.2009 35.7273 12.0793 34.0338 11.1907C33.9595 11.1519 33.8836 11.1159 33.8088 11.0778ZM44.1774 13.1913C43.9754 13.5209 43.636 14.1212 43.1634 14.1348C42.5133 14.1536 41.7338 13.4167 41.2741 13.0631C40.4737 12.4474 39.617 11.8432 38.7041 11.3432C38.2031 10.9961 37.6283 10.7239 37.0662 10.4623C36.6057 10.1983 36.1381 9.94625 35.6416 9.73936C35.4897 9.67611 35.3306 9.61037 35.1671 9.55339C34.4086 9.17607 33.667 8.75732 33.07 8.20558C32.8539 8.00586 32.5856 7.73951 32.582 7.44138C32.5759 6.94731 32.9685 6.35006 33.2386 5.94156C34.0143 4.76806 35.1661 3.75633 36.4363 3.04841C37.6642 2.36419 38.8868 2.14037 40.2905 2.47436C41.7993 2.83335 43.2029 3.66877 44.1764 4.79635C46.216 7.15889 45.6953 10.7145 44.1774 13.1913Z"/>
</mask>
<path d="M44.5039 3.4315C44.4949 3.42344 44.4857 3.41587 44.4767 3.4078C45.2759 2.82668 45.3402 1.24687 44.7727 0.590944C43.5939 -0.771014 42.0659 0.503985 41.3144 1.57757C40.7814 1.40346 40.2302 1.28054 39.6703 1.21729C38.0422 1.03341 36.5729 1.55965 35.2519 2.41728C33.374 3.6365 29.8938 6.76573 32.1197 8.93821C32.4781 9.28813 32.8938 9.59613 33.3385 9.87324C33.2919 9.92892 33.2476 9.98689 33.2061 10.0478C33.0571 10.266 32.896 10.3872 32.7315 10.5641C31.4103 9.98251 30.0208 9.52859 28.6032 9.20486C25.4881 8.49325 22.2433 8.49166 19.1213 9.20486C17.7037 9.52869 16.3142 9.98261 14.9929 10.5641C14.8285 10.3873 14.6674 10.2661 14.5183 10.0478C14.4768 9.98689 14.4324 9.92892 14.3859 9.87324C14.8305 9.59623 15.2463 9.28813 15.6047 8.93821C17.8305 6.76573 14.3503 3.6365 12.4725 2.41728C11.1515 1.55965 9.68217 1.03341 8.05409 1.21729C7.49422 1.28054 6.94295 1.40346 6.40998 1.57757C5.65824 0.503985 4.13023 -0.771014 2.95151 0.590944C2.38389 1.24687 2.44824 2.82668 3.24743 3.4078C3.2385 3.41587 3.22924 3.42344 3.22031 3.4315C0.401676 5.99973 0.538444 9.99526 2.11972 13.115C2.46051 13.7873 2.89793 14.5453 3.58596 14.9668C4.26474 15.3824 5.03886 15.2163 5.71 14.8711C6.39922 14.5166 6.96286 14.0054 7.5576 13.5339C7.65681 14.1314 8.04494 14.7854 8.50797 15.1472C7.41114 16.3331 6.4796 17.6512 5.75293 19.0711C3.63148 23.2154 3.19008 27.9586 4.26334 32.4196C4.76317 34.4973 5.55924 36.5591 6.8559 38.3299C8.02106 39.9212 9.50893 41.2674 11.2031 42.3736C11.3881 42.4943 11.5762 42.6112 11.7656 42.7264C11.432 43.6316 11.1613 44.5944 10.9201 45.511C10.7312 46.2282 10.6252 46.9698 10.5369 47.7034C10.4159 48.7078 10.2102 50.5366 11.5653 50.9352C12.5502 51.2249 13.5467 50.4821 14.2308 49.9214C15.2444 49.0907 16.1071 48.0972 16.919 47.099C17.3191 46.6072 17.7058 46.1059 18.0799 45.5969C18.134 45.5232 18.1892 45.4514 18.2424 45.3802C19.4213 45.6668 20.6311 45.8617 21.8473 45.9335C23.1538 46.0107 24.5531 46.0119 25.8768 45.9335C27.0931 45.8617 28.3028 45.6668 29.4817 45.3802C29.535 45.4514 29.5901 45.5232 29.6442 45.5969C30.0182 46.1059 30.405 46.6073 30.8051 47.099C31.6169 48.0972 32.4796 49.0907 33.4933 49.9214C34.1773 50.4821 35.1739 51.2249 36.1588 50.9352C37.5138 50.5366 37.308 48.7078 37.1871 47.7034C37.0988 46.9698 36.9927 46.2282 36.8039 45.511C36.5626 44.5944 36.292 43.6316 35.9583 42.7264C36.1478 42.6112 36.3358 42.4943 36.5209 42.3736C38.215 41.2675 39.7029 39.9212 40.8681 38.3299C42.1647 36.5591 42.9608 34.4973 43.4606 32.4196C44.5339 27.9586 44.0926 23.2155 41.971 19.0711C41.2444 17.6512 40.3128 16.3332 39.216 15.1472C39.6789 14.7854 40.0672 14.1314 40.1664 13.5339C40.7611 14.0053 41.3249 14.5166 42.014 14.8711C42.685 15.2163 43.4592 15.3824 44.138 14.9668C44.826 14.5454 45.2635 13.7873 45.6042 13.115C47.1857 9.99526 47.3225 5.99973 44.5039 3.4315ZM43.9296 1.22506C44.2697 1.63077 44.0809 2.35682 43.8299 2.87957C43.3808 2.54677 42.895 2.25352 42.3829 2.00789C42.8055 1.45237 43.4363 0.636466 43.9296 1.22506ZM3.79461 1.22506C4.28787 0.636466 4.91856 1.45237 5.34123 2.00789C4.82903 2.25352 4.3434 2.54677 3.89425 2.87957C3.64331 2.35682 3.45457 1.63077 3.79461 1.22506ZM6.45011 13.0631C5.99042 13.4167 5.21092 14.1535 4.56076 14.1348C4.08816 14.1212 3.74877 13.5209 3.54679 13.1913C2.0289 10.7146 1.50819 7.15888 3.54787 4.79645C4.52138 3.66897 5.925 2.83355 7.43374 2.47446C8.83747 2.14037 10.0602 2.36429 11.288 3.04851C12.5582 3.75633 13.7099 4.76816 14.4857 5.94166C14.7558 6.35016 15.1482 6.94741 15.1423 7.44148C15.1387 7.73961 14.8704 8.00596 14.6543 8.20568C14.0573 8.75742 13.3157 9.17617 12.5572 9.55349C12.3936 9.61047 12.2346 9.67621 12.0827 9.73946C11.586 9.94635 11.1186 10.1983 10.6581 10.4624C10.096 10.724 9.52119 10.9961 9.02018 11.3433C8.10725 11.8431 7.25049 12.4474 6.45011 13.0631ZM13.9154 11.0778C13.8406 11.1159 13.7646 11.1519 13.6905 11.1909C11.997 12.0795 10.4595 13.2011 9.13145 14.5048C8.89848 14.0274 8.46967 13.5665 8.65862 13.124C8.96498 12.4071 10.2319 11.932 10.8946 11.5439C10.9182 11.53 10.9421 11.5163 10.9659 11.5024C11.3416 11.3518 11.716 11.1973 12.0887 11.0336C12.5086 10.8489 12.9421 10.6529 13.369 10.4383C13.3754 10.4393 13.3828 10.4389 13.389 10.4404C13.4603 10.4566 13.4414 10.466 13.512 10.5463C13.6481 10.7013 13.7723 10.9057 13.9154 11.0778ZM16.4804 45.7206C15.7889 46.611 15.063 47.4851 14.2623 48.2944C13.6892 48.8735 12.9777 49.6476 12.1268 49.8699C12.0446 49.8914 11.9431 49.8906 11.9262 49.8818C11.8557 49.8455 11.769 49.7112 11.7165 49.5404C11.5444 48.981 11.6151 48.3437 11.6665 47.7723C11.733 47.0325 11.812 46.2802 11.9717 45.5533C12.139 44.7917 12.4321 43.9734 12.5324 43.1706C13.9231 43.9379 15.4142 44.5605 16.951 45.0275C16.7804 45.2802 16.6265 45.5325 16.4804 45.7206ZM36.0576 47.7724C36.1091 48.3438 36.1798 48.9811 36.0077 49.5405C35.9552 49.7113 35.8685 49.8456 35.798 49.8819C35.7811 49.8907 35.6796 49.8915 35.5974 49.87C34.7465 49.6477 34.035 48.8736 33.4619 48.2945C32.6613 47.4852 31.9352 46.6112 31.2439 45.7207C31.0979 45.5326 30.9439 45.2803 30.7733 45.0276C32.31 44.5606 33.8012 43.938 35.1918 43.1708C35.2922 43.9735 35.5854 44.7917 35.7526 45.5534C35.9122 46.2802 35.9911 47.0326 36.0576 47.7724ZM41.8411 33.5184C41.2514 35.3705 40.3811 37.1375 39.0434 38.6334C37.8009 40.0229 36.2781 41.1613 34.6029 42.0751C31.9122 43.5427 28.5791 44.6837 25.4185 44.6158C24.3407 44.5926 23.2714 44.7068 22.1878 44.6412C21.1237 44.5766 20.0649 44.4387 19.0237 44.2252C16.9497 43.8001 14.9515 43.0734 13.1213 42.0751C11.4461 41.1613 9.92332 40.0229 8.68079 38.6334C7.34303 37.1375 6.47282 35.3705 5.88303 33.5184C3.46824 25.9363 5.9534 17.2042 13.3041 12.7706C14.9917 11.7527 16.8414 10.9929 18.7794 10.4891C19.7948 10.2251 20.8281 10.0263 21.8689 9.87125C23.1873 9.67482 24.5253 9.67312 25.8553 9.87125C26.896 10.0263 27.9294 10.2251 28.9448 10.4891C30.8827 10.993 32.7325 11.7528 34.4201 12.7706C41.7708 17.2042 44.2559 25.9363 41.8411 33.5184ZM33.8088 11.0778C33.9519 10.9057 34.0761 10.7013 34.2123 10.5461C34.2828 10.4658 34.2638 10.4565 34.3353 10.4402C34.3415 10.4387 34.3487 10.4391 34.3553 10.4381C34.7822 10.6526 35.2157 10.8487 35.6356 11.0334C36.0082 11.1972 36.3827 11.3516 36.7584 11.5022C36.7821 11.5161 36.806 11.5298 36.8297 11.5437C37.4924 11.9318 38.7593 12.4069 39.0657 13.1238C39.2547 13.5663 38.8258 14.0272 38.5928 14.5046C37.2648 13.2009 35.7273 12.0793 34.0338 11.1907C33.9595 11.1519 33.8836 11.1159 33.8088 11.0778ZM44.1774 13.1913C43.9754 13.5209 43.636 14.1212 43.1634 14.1348C42.5133 14.1536 41.7338 13.4167 41.2741 13.0631C40.4737 12.4474 39.617 11.8432 38.7041 11.3432C38.2031 10.9961 37.6283 10.7239 37.0662 10.4623C36.6057 10.1983 36.1381 9.94625 35.6416 9.73936C35.4897 9.67611 35.3306 9.61037 35.1671 9.55339C34.4086 9.17607 33.667 8.75732 33.07 8.20558C32.8539 8.00586 32.5856 7.73951 32.582 7.44138C32.5759 6.94731 32.9685 6.35006 33.2386 5.94156C34.0143 4.76806 35.1661 3.75633 36.4363 3.04841C37.6642 2.36419 38.8868 2.14037 40.2905 2.47436C41.7993 2.83335 43.2029 3.66877 44.1764 4.79635C46.216 7.15889 45.6953 10.7145 44.1774 13.1913Z" stroke="#23F38D" stroke-width="2" mask="url(#path-6-inside-6_1_20)"/>
</g>
</g>
</g>
<g id="Group_13">
<g id="Group_14">
<g id="Vector_7">
<mask id="path-7-inside-7_1_20" fill="white">
<path d="M39.0025 22.2016C38.1338 19.311 36.3684 16.7003 33.8149 14.8334C32.5712 13.9242 31.1904 13.1921 29.704 12.6809C28.9668 12.4273 28.1664 12.2047 27.3549 12.081C26.2042 11.8309 25.0256 11.6749 23.8461 11.6234C23.0161 11.5873 22.2322 11.7542 21.4118 11.8726C20.4988 12.0043 19.5971 12.2049 18.7193 12.4723C16.9885 12.9991 15.3437 13.787 13.9123 14.8335C11.3589 16.7004 9.59351 19.3111 8.7248 22.2016C7.06046 27.7398 8.01353 34.5215 12.7378 38.5853C14.2961 39.9258 16.2233 40.9162 18.2509 41.5006C21.7287 42.5025 25.9944 42.5037 29.4763 41.5006C31.5039 40.9164 33.4312 39.9258 34.9895 38.5853C39.7138 34.5215 40.6668 27.7398 39.0025 22.2016ZM38.0379 31.5342C37.3107 34.1407 35.8336 36.558 33.557 38.2673C32.159 39.317 30.4771 40.073 28.7485 40.5189C25.5317 41.3488 22.2131 41.3534 18.9786 40.5189C17.25 40.0729 15.5681 39.317 14.1701 38.2673C11.8935 36.558 10.4165 34.1407 9.68917 31.5342C8.24047 26.3418 9.42543 20.1176 13.7393 16.3417C14.9326 15.2972 16.3169 14.4842 17.8103 13.8591C19.692 13.0714 21.7782 12.5124 23.8459 12.612C25.0972 12.6721 26.337 12.8626 27.5473 13.1614C28.1127 13.3011 28.6697 13.4679 29.2234 13.6433C29.4909 13.7281 29.7613 13.8317 30.0367 13.9116C31.4841 14.5297 32.8268 15.3253 33.9878 16.3416C38.3017 20.1176 39.4866 26.3418 38.0379 31.5342Z"/>
</mask>
<path d="M39.0025 22.2016C38.1338 19.311 36.3684 16.7003 33.8149 14.8334C32.5712 13.9242 31.1904 13.1921 29.704 12.6809C28.9668 12.4273 28.1664 12.2047 27.3549 12.081C26.2042 11.8309 25.0256 11.6749 23.8461 11.6234C23.0161 11.5873 22.2322 11.7542 21.4118 11.8726C20.4988 12.0043 19.5971 12.2049 18.7193 12.4723C16.9885 12.9991 15.3437 13.787 13.9123 14.8335C11.3589 16.7004 9.59351 19.3111 8.7248 22.2016C7.06046 27.7398 8.01353 34.5215 12.7378 38.5853C14.2961 39.9258 16.2233 40.9162 18.2509 41.5006C21.7287 42.5025 25.9944 42.5037 29.4763 41.5006C31.5039 40.9164 33.4312 39.9258 34.9895 38.5853C39.7138 34.5215 40.6668 27.7398 39.0025 22.2016ZM38.0379 31.5342C37.3107 34.1407 35.8336 36.558 33.557 38.2673C32.159 39.317 30.4771 40.073 28.7485 40.5189C25.5317 41.3488 22.2131 41.3534 18.9786 40.5189C17.25 40.0729 15.5681 39.317 14.1701 38.2673C11.8935 36.558 10.4165 34.1407 9.68917 31.5342C8.24047 26.3418 9.42543 20.1176 13.7393 16.3417C14.9326 15.2972 16.3169 14.4842 17.8103 13.8591C19.692 13.0714 21.7782 12.5124 23.8459 12.612C25.0972 12.6721 26.337 12.8626 27.5473 13.1614C28.1127 13.3011 28.6697 13.4679 29.2234 13.6433C29.4909 13.7281 29.7613 13.8317 30.0367 13.9116C31.4841 14.5297 32.8268 15.3253 33.9878 16.3416C38.3017 20.1176 39.4866 26.3418 38.0379 31.5342Z" stroke="#23F38D" stroke-width="2" mask="url(#path-7-inside-7_1_20)"/>
</g>
</g>
</g>
<g id="Group_15">
<g id="Group_16">
<g id="Vector_8">
<mask id="path-8-inside-8_1_20" fill="white">
<path d="M35.9316 20.3507C35.888 20.3668 35.8453 20.3853 35.8023 20.4029C35.802 20.4024 35.8018 20.4019 35.8015 20.4015C35.7976 20.4036 35.7938 20.4057 35.79 20.4078C35.2423 20.6341 34.7319 20.9674 34.1482 21.0952C33.4244 21.2537 33.7331 22.2977 34.4553 22.1274C35.139 21.9662 35.6936 21.5655 36.3195 21.2871C36.3271 21.2836 36.335 21.2803 36.3423 21.2765C36.3453 21.2752 36.3482 21.2737 36.3512 21.2724C36.3511 21.2722 36.3509 21.2719 36.3508 21.2717C36.8569 20.999 36.5255 20.1309 35.9316 20.3507Z"/>
</mask>
<path d="M35.9316 20.3507C35.888 20.3668 35.8453 20.3853 35.8023 20.4029C35.802 20.4024 35.8018 20.4019 35.8015 20.4015C35.7976 20.4036 35.7938 20.4057 35.79 20.4078C35.2423 20.6341 34.7319 20.9674 34.1482 21.0952C33.4244 21.2537 33.7331 22.2977 34.4553 22.1274C35.139 21.9662 35.6936 21.5655 36.3195 21.2871C36.3271 21.2836 36.335 21.2803 36.3423 21.2765C36.3453 21.2752 36.3482 21.2737 36.3512 21.2724C36.3511 21.2722 36.3509 21.2719 36.3508 21.2717C36.8569 20.999 36.5255 20.1309 35.9316 20.3507Z" stroke="#23F38D" stroke-width="2" mask="url(#path-8-inside-8_1_20)"/>
</g>
</g>
</g>
<g id="Group_17">
<g id="Group_18">
<g id="Vector_9">
<mask id="path-9-inside-9_1_20" fill="white">
<path d="M37.5421 26.794C37.2085 26.7343 36.8315 26.6377 36.4823 26.66C36.2134 26.6197 35.9446 26.5783 35.6749 26.5473C35.4618 26.5229 35.2761 26.6732 35.1638 26.8187C35.156 26.8289 35.1482 26.8389 35.1405 26.8489C35.0307 26.9913 35.065 27.1825 35.1405 27.3273L35.1638 27.3719C35.2568 27.5501 35.4761 27.631 35.6749 27.6433C36.2496 27.6787 36.8222 27.761 37.398 27.7798C38.0047 27.7995 38.1434 26.9017 37.5421 26.794Z"/>
</mask>
<path d="M37.5421 26.794C37.2085 26.7343 36.8315 26.6377 36.4823 26.66C36.2134 26.6197 35.9446 26.5783 35.6749 26.5473C35.4618 26.5229 35.2761 26.6732 35.1638 26.8187C35.156 26.8289 35.1482 26.8389 35.1405 26.8489C35.0307 26.9913 35.065 27.1825 35.1405 27.3273L35.1638 27.3719C35.2568 27.5501 35.4761 27.631 35.6749 27.6433C36.2496 27.6787 36.8222 27.761 37.398 27.7798C38.0047 27.7995 38.1434 26.9017 37.5421 26.794Z" stroke="#23F38D" stroke-width="2" mask="url(#path-9-inside-9_1_20)"/>
</g>
</g>
</g>
<g id="Group_19">
<g id="Group_20">
<g id="Vector_10">
<mask id="path-10-inside-10_1_20" fill="white">
<path d="M36.1642 32.8947C35.9214 32.6655 35.6024 32.3877 35.2506 32.2633C35.0759 32.1176 34.9078 31.9633 34.7373 31.8028C34.2757 31.3681 33.5542 31.9235 33.851 32.4358C34.0082 32.7072 34.3255 32.9303 34.5796 33.1188C34.8634 33.3295 35.1649 33.5543 35.5006 33.6908C35.7582 33.7956 36.0246 33.7723 36.207 33.5602C36.3762 33.3635 36.3537 33.0739 36.1642 32.8947Z"/>
</mask>
<path d="M36.1642 32.8947C35.9214 32.6655 35.6024 32.3877 35.2506 32.2633C35.0759 32.1176 34.9078 31.9633 34.7373 31.8028C34.2757 31.3681 33.5542 31.9235 33.851 32.4358C34.0082 32.7072 34.3255 32.9303 34.5796 33.1188C34.8634 33.3295 35.1649 33.5543 35.5006 33.6908C35.7582 33.7956 36.0246 33.7723 36.207 33.5602C36.3762 33.3635 36.3537 33.0739 36.1642 32.8947Z" stroke="#23F38D" stroke-width="2" mask="url(#path-10-inside-10_1_20)"/>
</g>
</g>
</g>
<g id="Group_21">
<g id="Group_22">
<g id="Vector_11">
<mask id="path-11-inside-11_1_20" fill="white">
<path d="M31.6708 37.4744C31.4833 36.863 30.9857 36.1389 30.4436 35.7534C30.2141 35.5902 29.864 35.7045 29.7044 35.89C29.5127 36.1129 29.5726 36.3786 29.7493 36.5863C29.9288 36.7975 30.1162 36.988 30.2731 37.2164C30.4414 37.4612 30.5883 37.7277 30.7965 37.9455L30.8086 37.9343C31.1556 38.2297 31.8299 37.9932 31.6708 37.4744Z"/>
</mask>
<path d="M31.6708 37.4744C31.4833 36.863 30.9857 36.1389 30.4436 35.7534C30.2141 35.5902 29.864 35.7045 29.7044 35.89C29.5127 36.1129 29.5726 36.3786 29.7493 36.5863C29.9288 36.7975 30.1162 36.988 30.2731 37.2164C30.4414 37.4612 30.5883 37.7277 30.7965 37.9455L30.8086 37.9343C31.1556 38.2297 31.8299 37.9932 31.6708 37.4744Z" stroke="#23F38D" stroke-width="2" mask="url(#path-11-inside-11_1_20)"/>
</g>
</g>
</g>
<g id="Group_23">
<g id="Group_24">
<g id="Vector_12">
<mask id="path-12-inside-12_1_20" fill="white">
<path d="M31.1099 15.5131C30.8524 15.3736 30.5835 15.481 30.4168 15.6812C30.2484 15.8835 30.0896 16.0929 29.9176 16.2927C29.8211 16.405 29.7227 16.5162 29.6128 16.6175C29.5747 16.6528 29.5351 16.6872 29.4942 16.7198C29.5157 16.6945 29.3184 16.808 29.4947 16.7409C29.1691 16.8648 28.9648 17.1499 29.1133 17.4762C29.2498 17.776 29.6418 17.8994 29.9483 17.7368C30.2708 17.5655 30.4884 17.2547 30.6994 16.9816C30.9074 16.7125 31.0928 16.4294 31.2916 16.1546C31.4496 15.9462 31.3312 15.6328 31.1099 15.5131Z"/>
</mask>
<path d="M31.1099 15.5131C30.8524 15.3736 30.5835 15.481 30.4168 15.6812C30.2484 15.8835 30.0896 16.0929 29.9176 16.2927C29.8211 16.405 29.7227 16.5162 29.6128 16.6175C29.5747 16.6528 29.5351 16.6872 29.4942 16.7198C29.5157 16.6945 29.3184 16.808 29.4947 16.7409C29.1691 16.8648 28.9648 17.1499 29.1133 17.4762C29.2498 17.776 29.6418 17.8994 29.9483 17.7368C30.2708 17.5655 30.4884 17.2547 30.6994 16.9816C30.9074 16.7125 31.0928 16.4294 31.2916 16.1546C31.4496 15.9462 31.3312 15.6328 31.1099 15.5131Z" stroke="#23F38D" stroke-width="2" mask="url(#path-12-inside-12_1_20)"/>
</g>
</g>
</g>
<g id="Group_25">
<g id="Group_26">
<g id="Vector_13">
<mask id="path-13-inside-13_1_20" fill="white">
<path d="M24.4881 15.3042C24.4819 15.2552 24.4757 15.2057 24.4687 15.1563C24.4785 14.9949 24.4999 14.8325 24.541 14.6669C24.7027 14.016 23.6144 13.7391 23.4601 14.391C23.3002 15.0663 23.2426 15.9041 23.5228 16.5605C23.7262 17.037 24.619 17.0344 24.575 16.4287C24.5478 16.0541 24.5342 15.6773 24.4881 15.3042Z"/>
</mask>
<path d="M24.4881 15.3042C24.4819 15.2552 24.4757 15.2057 24.4687 15.1563C24.4785 14.9949 24.4999 14.8325 24.541 14.6669C24.7027 14.016 23.6144 13.7391 23.4601 14.391C23.3002 15.0663 23.2426 15.9041 23.5228 16.5605C23.7262 17.037 24.619 17.0344 24.575 16.4287C24.5478 16.0541 24.5342 15.6773 24.4881 15.3042Z" stroke="#23F38D" stroke-width="2" mask="url(#path-13-inside-13_1_20)"/>
</g>
</g>
</g>
<g id="Group_27">
<g id="Group_28">
<g id="Vector_14">
<mask id="path-14-inside-14_1_20" fill="white">
<path d="M24.4366 37.904C24.4626 37.4144 23.6883 37.2297 23.4407 37.6544C23.1331 38.182 23.12 38.9771 23.2021 39.56C23.2393 39.8244 23.4186 40.0468 23.7312 40.0499C24.0104 40.0525 24.2699 39.8237 24.2603 39.56C24.2399 39.2839 24.2521 39.0042 24.2869 38.7292C24.3218 38.4515 24.4216 38.183 24.4366 37.904Z"/>
</mask>
<path d="M24.4366 37.904C24.4626 37.4144 23.6883 37.2297 23.4407 37.6544C23.1331 38.182 23.12 38.9771 23.2021 39.56C23.2393 39.8244 23.4186 40.0468 23.7312 40.0499C24.0104 40.0525 24.2699 39.8237 24.2603 39.56C24.2399 39.2839 24.2521 39.0042 24.2869 38.7292C24.3218 38.4515 24.4216 38.183 24.4366 37.904Z" stroke="#23F38D" stroke-width="2" mask="url(#path-14-inside-14_1_20)"/>
</g>
</g>
</g>
<g id="hands">
<g id="Group_29">
<g id="Vector_15">
<mask id="path-15-inside-15_1_20" fill="white">
<path d="M27.877 16.4271C27.8579 16.1005 27.3707 15.8289 27.1041 16.1311C26.3894 16.9415 26.1367 17.9445 25.7387 18.902C25.1856 20.2324 24.4694 21.4975 23.8879 22.8163C23.4258 23.8643 23.0279 24.9438 22.6755 26.0276C22.5892 26.2932 22.3908 26.7488 22.3548 27.1508C22.3035 27.192 22.2535 27.2341 22.2066 27.2779C21.9283 27.5374 21.703 27.861 21.6119 28.2196C21.5834 28.3321 21.5758 28.4326 21.583 28.5265C20.817 28.8376 20.1677 29.3814 19.5357 29.8755C18.7265 30.5079 17.9449 31.1682 17.1501 31.8157C16.843 32.066 17.0531 32.4607 17.3676 32.5782C18.2946 32.9247 19.5669 32.2295 20.3922 31.8976C20.9411 31.6768 21.4773 31.5212 22.0562 31.379C22.7171 31.2167 23.3377 31.0479 23.7479 30.5352C24.4787 30.4904 25.2034 30.0554 25.539 29.4623C25.6348 29.2929 25.6985 29.1096 25.7336 28.9202C26.285 28.3736 26.3707 27.2068 26.481 26.5663C26.6601 25.5267 26.7568 24.4757 26.9719 23.4413C27.4503 21.1404 28.0145 18.7848 27.877 16.4271ZM20.2351 30.9791C19.8576 31.128 19.483 31.2842 19.1008 31.4227C19.4396 31.1384 19.7776 30.853 20.1162 30.5683C20.6886 30.0873 21.3175 29.6319 21.8257 29.0864C21.9424 29.5389 22.2191 29.9572 22.6217 30.2322C21.8163 30.4563 21.0022 30.6765 20.2351 30.9791ZM23.7381 29.6444C23.1751 29.7188 22.7843 29.1905 22.6928 28.7369C22.6286 28.4184 22.7169 28.1452 22.9034 27.9403C22.991 27.8582 23.0889 27.7846 23.1966 27.7225C23.2413 27.6967 23.287 27.6736 23.3333 27.652C23.4591 27.6018 23.597 27.5666 23.7442 27.5505C23.784 27.5461 23.8186 27.5359 23.8485 27.5217C24.0878 27.5164 24.3166 27.598 24.4975 27.8091C25.0694 28.4764 24.6761 29.5204 23.7381 29.6444ZM26.1198 23.3119C25.9169 24.2864 25.8192 25.2764 25.6514 26.256C25.5852 26.6424 25.5092 27.0279 25.4116 27.4086C25.1605 27.0335 24.7836 26.7405 24.3043 26.6263C23.9879 26.551 23.6606 26.5679 23.348 26.6483C23.4136 26.4731 23.476 26.2935 23.5418 26.108C23.8962 25.1094 24.285 24.1123 24.7111 23.1379C25.2145 21.9869 25.8233 20.8762 26.342 19.7305C26.5739 19.2182 26.7475 18.6429 26.9663 18.0915C26.8639 19.8486 26.4823 21.5702 26.1198 23.3119Z"/>
</mask>
<path d="M27.877 16.4271C27.8579 16.1005 27.3707 15.8289 27.1041 16.1311C26.3894 16.9415 26.1367 17.9445 25.7387 18.902C25.1856 20.2324 24.4694 21.4975 23.8879 22.8163C23.4258 23.8643 23.0279 24.9438 22.6755 26.0276C22.5892 26.2932 22.3908 26.7488 22.3548 27.1508C22.3035 27.192 22.2535 27.2341 22.2066 27.2779C21.9283 27.5374 21.703 27.861 21.6119 28.2196C21.5834 28.3321 21.5758 28.4326 21.583 28.5265C20.817 28.8376 20.1677 29.3814 19.5357 29.8755C18.7265 30.5079 17.9449 31.1682 17.1501 31.8157C16.843 32.066 17.0531 32.4607 17.3676 32.5782C18.2946 32.9247 19.5669 32.2295 20.3922 31.8976C20.9411 31.6768 21.4773 31.5212 22.0562 31.379C22.7171 31.2167 23.3377 31.0479 23.7479 30.5352C24.4787 30.4904 25.2034 30.0554 25.539 29.4623C25.6348 29.2929 25.6985 29.1096 25.7336 28.9202C26.285 28.3736 26.3707 27.2068 26.481 26.5663C26.6601 25.5267 26.7568 24.4757 26.9719 23.4413C27.4503 21.1404 28.0145 18.7848 27.877 16.4271ZM20.2351 30.9791C19.8576 31.128 19.483 31.2842 19.1008 31.4227C19.4396 31.1384 19.7776 30.853 20.1162 30.5683C20.6886 30.0873 21.3175 29.6319 21.8257 29.0864C21.9424 29.5389 22.2191 29.9572 22.6217 30.2322C21.8163 30.4563 21.0022 30.6765 20.2351 30.9791ZM23.7381 29.6444C23.1751 29.7188 22.7843 29.1905 22.6928 28.7369C22.6286 28.4184 22.7169 28.1452 22.9034 27.9403C22.991 27.8582 23.0889 27.7846 23.1966 27.7225C23.2413 27.6967 23.287 27.6736 23.3333 27.652C23.4591 27.6018 23.597 27.5666 23.7442 27.5505C23.784 27.5461 23.8186 27.5359 23.8485 27.5217C24.0878 27.5164 24.3166 27.598 24.4975 27.8091C25.0694 28.4764 24.6761 29.5204 23.7381 29.6444ZM26.1198 23.3119C25.9169 24.2864 25.8192 25.2764 25.6514 26.256C25.5852 26.6424 25.5092 27.0279 25.4116 27.4086C25.1605 27.0335 24.7836 26.7405 24.3043 26.6263C23.9879 26.551 23.6606 26.5679 23.348 26.6483C23.4136 26.4731 23.476 26.2935 23.5418 26.108C23.8962 25.1094 24.285 24.1123 24.7111 23.1379C25.2145 21.9869 25.8233 20.8762 26.342 19.7305C26.5739 19.2182 26.7475 18.6429 26.9663 18.0915C26.8639 19.8486 26.4823 21.5702 26.1198 23.3119Z" stroke="#23F38D" stroke-width="2" mask="url(#path-15-inside-15_1_20)"/>
</g>
</g>
</g>
</g>
</svg>
