<svg width="15" height="15" viewBox="0 0 15 15" fill="none" xmlns="http://www.w3.org/2000/svg">
<g clip-path="url(#clip0_1_370)">
<path d="M5.70772 13.7022C3.20421 13.7022 1.22553 13.2648 0.278871 12.5024L0.260446 12.4876L0.243737 12.4709C0.018861 12.2459 -0.0548389 11.9507 0.0417492 11.6612L0.0505611 11.6372C0.167749 11.3441 0.454881 11.1468 0.766046 11.1449C1.40646 11.1338 1.96676 11.0575 2.47522 10.9093C1.66418 10.5321 1.10079 9.879 0.765588 8.93372C0.652864 8.63892 0.750138 8.31208 1.00992 8.11718C1.07401 8.069 1.14645 8.03261 1.22312 8.00823C0.772454 7.48799 0.439546 6.89598 0.253121 6.26988L0.247285 6.25042L0.24328 6.23051C0.179994 5.91385 0.321557 5.58827 0.580995 5.44808C0.689828 5.38559 0.808045 5.35321 0.926721 5.35046C0.798776 5.07488 0.705735 4.79199 0.650575 4.50737C0.497453 3.71865 0.623796 2.92797 1.02594 2.15733L1.11898 1.97125C1.19348 1.82236 1.33585 1.71776 1.49995 1.6911C1.66406 1.66455 1.83229 1.71879 1.94982 1.83632L2.11931 2.00604C3.45827 3.40977 4.65761 4.07582 6.73116 4.53152C6.82375 3.73558 7.16787 2.99572 7.72302 2.41345C8.38369 1.72062 9.26591 1.33187 10.2072 1.31859H10.2134C10.9001 1.31859 11.752 1.71066 12.2672 1.98715C12.7092 1.8425 13.2417 1.61854 13.7942 1.38176C14.0527 1.26045 14.3715 1.31596 14.5747 1.51921C14.774 1.71845 14.8292 1.9994 14.7235 2.27246C14.6833 2.38426 14.6378 2.49401 14.5871 2.60136C14.6627 2.63603 14.732 2.68307 14.7904 2.74155C14.9672 2.91836 15.0409 3.19508 14.9781 3.44662L14.9714 3.47054C14.7596 4.15283 14.3529 4.70856 13.8151 5.05737C13.7252 9.84112 10.1228 13.7022 5.70772 13.7022ZM1.12241 12.0125C2.01448 12.5172 3.7145 12.8225 5.70772 12.8225C7.62403 12.8225 9.43243 11.9998 10.7997 10.5059C12.1781 8.99975 12.9372 6.99967 12.9372 4.87404V4.85012C12.9372 4.65763 13.0431 4.48197 13.2137 4.39156C13.5596 4.20834 13.8398 3.89626 14.022 3.4972C13.8341 3.52684 13.643 3.45143 13.526 3.29418C13.3899 3.11142 13.3884 2.86457 13.5222 2.68021C13.5944 2.58064 13.6599 2.47708 13.7182 2.36996C13.2411 2.57034 12.7881 2.75002 12.3947 2.86938C12.2518 2.91264 12.0925 2.8957 11.9619 2.8228C11.2616 2.43267 10.6095 2.19944 10.2162 2.1983C8.76523 2.2205 7.58546 3.46321 7.58546 4.96994C7.58546 5.1257 7.51634 5.27172 7.39606 5.37071C7.27567 5.46959 7.11912 5.50919 6.96622 5.47898C4.57533 5.00794 3.15855 4.30161 1.68523 2.82108C1.47409 3.32703 1.41641 3.83663 1.51403 4.33983C1.61302 4.84955 1.87635 5.3603 2.27564 5.81681C2.42738 5.99007 2.44753 6.23795 2.32576 6.43353C2.20445 6.62842 1.97385 6.71952 1.75218 6.66012C1.57892 6.61366 1.41962 6.55266 1.26856 6.47427C1.57629 7.14272 2.10558 7.76093 2.77094 8.21686C2.96377 8.34904 3.04433 8.59543 2.96697 8.81607C2.8895 9.03706 2.67309 9.17931 2.43917 9.16191C2.18431 9.14303 1.95852 9.09462 1.75069 9.01303C2.12377 9.7728 2.71989 10.1909 3.63828 10.3506C3.85698 10.3887 4.02727 10.5614 4.06206 10.7803C4.09696 10.9993 3.98859 11.2162 3.79255 11.3203C3.00977 11.7352 2.15421 11.9579 1.12241 12.0125Z" fill="white" fill-opacity="0.35"/>
</g>
<defs>
<clipPath id="clip0_1_370">
<rect width="15" height="15" fill="white"/>
</clipPath>
</defs>
</svg>
