<svg width="49" height="53" viewBox="0 0 49 53" fill="none" xmlns="http://www.w3.org/2000/svg">
<g id="Group 30">
<g id="Group">
<g id="Group_2">
<g id="Vector">
<mask id="path-1-inside-1_1_128" fill="white">
<path d="M45.0209 9.21088C42.1848 7.13854 38.421 6.52723 35.6437 9.00872C35.3667 8.39928 35.2111 7.6387 34.9045 7.05305C34.5313 6.34038 34.1002 5.64832 33.6408 5.00616C32.6483 3.61894 31.3625 2.45449 30.0099 1.57073C27.2365 -0.241176 23.9176 -0.51505 20.9672 0.903232C18.1638 2.2509 15.6644 4.9275 14.7625 8.35026C14.4443 9.55779 14.3633 10.8162 14.4896 12.0412C13.8897 11.6577 13.0831 11.5514 12.4892 11.6568C11.4601 11.8393 10.4839 12.6276 9.80024 13.5071C8.98552 14.5555 8.47719 15.854 8.27754 17.2408C8.26381 17.3359 8.21778 17.518 8.22722 17.6236C8.2235 17.6809 8.21978 17.7382 8.21607 17.7955C8.07064 17.6958 7.9052 17.6168 7.75291 17.5366C7.09067 17.1878 6.4129 16.9645 5.68966 16.8725C3.72258 16.6227 0.179226 17.5592 0.00644727 20.421C-0.168238 23.3148 3.24922 24.1529 5.10433 24.5415C6.6338 24.8619 8.17947 25.0448 9.7077 25.3678C10.4349 25.5213 11.135 25.663 11.8734 25.7125C12.1397 25.7302 12.4073 25.7233 12.6749 25.7102C13.6782 25.8119 14.6787 25.8928 15.666 25.9724C19.8252 26.3078 24.0184 26.188 28.1828 26.0603C32.3032 25.9339 36.4508 25.8178 40.5357 25.1146C43.5895 24.5889 47.1396 22.4169 48.3744 18.9505C49.683 15.2769 47.7518 11.2063 45.0209 9.21088ZM47.1446 18.5875C46.0878 21.0086 43.5683 22.7385 41.3625 23.409C39.9495 23.8384 38.4421 23.8915 36.9956 24.0719C35.4435 24.2655 33.8877 24.404 32.328 24.4841C29.4215 24.6331 26.5011 24.8021 23.5922 24.7918C20.2637 24.7799 16.9661 24.8856 13.6356 24.6876C12.4536 24.6173 11.2486 24.5409 10.0438 24.4244C8.92615 24.1547 7.80971 23.9451 6.68097 23.7232C5.32743 23.4572 4.02458 23.1617 2.74327 22.579C1.9904 22.2365 1.07724 21.8809 1.00348 20.7526C0.938386 19.7556 1.70631 19.0876 2.4021 18.7221C3.9917 17.887 5.76276 17.8921 7.307 18.8416C8.0755 19.3141 9.0995 19.9983 9.42257 18.5447C9.58191 17.8278 9.51987 17.078 9.71409 16.3524C9.91555 15.6 10.2432 14.8939 10.6922 14.299C11.1381 13.7082 11.7095 13.1992 12.3481 12.9208C12.8666 12.6948 14.0892 12.5517 14.6275 12.9876C14.9995 14.8894 15.888 16.6498 17.2147 17.927C19.435 20.0648 22.8422 21.0259 25.5012 19.4462C28.2819 17.7944 29.6347 14.5868 29.3046 11.0323C29.0005 7.7579 26.421 5.0055 23.5562 4.98677C20.952 4.9698 18.2804 7.01637 17.9426 10.1333C17.5802 13.4769 20.8275 16.829 23.4597 14.5568C24.4107 13.7357 24.9103 12.2219 24.1614 11.0111C23.2352 9.51373 21.6394 10.1102 20.579 11.024C20.1341 11.4074 20.5124 12.2236 21.0236 11.9033C21.5918 11.5476 22.1744 11.103 22.8264 11.4204C23.6802 11.8361 23.5433 12.853 22.9481 13.5116C21.9436 14.6231 20.496 14.1911 19.638 13.1199C17.6717 10.6653 19.3791 7.29905 21.759 6.45441C24.079 5.63102 26.5907 6.95875 27.5959 9.52078C28.5476 11.9462 27.9529 15.1524 26.3119 16.9536C22.7113 20.9058 16.3617 17.843 15.6296 12.3416C14.8789 6.69997 19.4559 1.79646 24.0766 1.34434C26.636 1.09393 29.0053 2.13588 31.0248 3.90692C32.0478 4.80422 32.8942 5.89157 33.67 7.06814C34.1614 7.81342 34.5331 8.85042 35.1225 9.52629C32.973 11.8998 32.2467 15.9369 34.3127 18.7522C36.3022 21.4631 39.9195 22.2738 42.2053 19.5038C44.427 16.8117 43.4157 11.0399 39.8471 10.727C38.3715 10.5975 36.6851 11.4003 36.4993 13.2784C36.3114 15.1776 37.5951 16.1853 39.075 15.9836C39.5879 15.9136 39.6149 14.9946 39.075 15.0311C38.004 15.1032 36.8017 14.1582 37.5207 12.7881C37.9245 12.0188 38.8314 11.7813 39.5596 11.8414C41.2342 11.9798 42.1884 13.8372 42.2529 15.6411C42.378 19.1462 38.6418 20.8211 36.3414 18.9929C33.7586 16.9404 33.3757 12.9345 35.6387 10.3756C37.9839 7.72385 41.372 8.08487 44.0325 9.88444C46.523 11.5689 48.5835 15.291 47.1446 18.5875Z"/>
</mask>
<path d="M45.0209 9.21088C42.1848 7.13854 38.421 6.52723 35.6437 9.00872C35.3667 8.39928 35.2111 7.6387 34.9045 7.05305C34.5313 6.34038 34.1002 5.64832 33.6408 5.00616C32.6483 3.61894 31.3625 2.45449 30.0099 1.57073C27.2365 -0.241176 23.9176 -0.51505 20.9672 0.903232C18.1638 2.2509 15.6644 4.9275 14.7625 8.35026C14.4443 9.55779 14.3633 10.8162 14.4896 12.0412C13.8897 11.6577 13.0831 11.5514 12.4892 11.6568C11.4601 11.8393 10.4839 12.6276 9.80024 13.5071C8.98552 14.5555 8.47719 15.854 8.27754 17.2408C8.26381 17.3359 8.21778 17.518 8.22722 17.6236C8.2235 17.6809 8.21978 17.7382 8.21607 17.7955C8.07064 17.6958 7.9052 17.6168 7.75291 17.5366C7.09067 17.1878 6.4129 16.9645 5.68966 16.8725C3.72258 16.6227 0.179226 17.5592 0.00644727 20.421C-0.168238 23.3148 3.24922 24.1529 5.10433 24.5415C6.6338 24.8619 8.17947 25.0448 9.7077 25.3678C10.4349 25.5213 11.135 25.663 11.8734 25.7125C12.1397 25.7302 12.4073 25.7233 12.6749 25.7102C13.6782 25.8119 14.6787 25.8928 15.666 25.9724C19.8252 26.3078 24.0184 26.188 28.1828 26.0603C32.3032 25.9339 36.4508 25.8178 40.5357 25.1146C43.5895 24.5889 47.1396 22.4169 48.3744 18.9505C49.683 15.2769 47.7518 11.2063 45.0209 9.21088ZM47.1446 18.5875C46.0878 21.0086 43.5683 22.7385 41.3625 23.409C39.9495 23.8384 38.4421 23.8915 36.9956 24.0719C35.4435 24.2655 33.8877 24.404 32.328 24.4841C29.4215 24.6331 26.5011 24.8021 23.5922 24.7918C20.2637 24.7799 16.9661 24.8856 13.6356 24.6876C12.4536 24.6173 11.2486 24.5409 10.0438 24.4244C8.92615 24.1547 7.80971 23.9451 6.68097 23.7232C5.32743 23.4572 4.02458 23.1617 2.74327 22.579C1.9904 22.2365 1.07724 21.8809 1.00348 20.7526C0.938386 19.7556 1.70631 19.0876 2.4021 18.7221C3.9917 17.887 5.76276 17.8921 7.307 18.8416C8.0755 19.3141 9.0995 19.9983 9.42257 18.5447C9.58191 17.8278 9.51987 17.078 9.71409 16.3524C9.91555 15.6 10.2432 14.8939 10.6922 14.299C11.1381 13.7082 11.7095 13.1992 12.3481 12.9208C12.8666 12.6948 14.0892 12.5517 14.6275 12.9876C14.9995 14.8894 15.888 16.6498 17.2147 17.927C19.435 20.0648 22.8422 21.0259 25.5012 19.4462C28.2819 17.7944 29.6347 14.5868 29.3046 11.0323C29.0005 7.7579 26.421 5.0055 23.5562 4.98677C20.952 4.9698 18.2804 7.01637 17.9426 10.1333C17.5802 13.4769 20.8275 16.829 23.4597 14.5568C24.4107 13.7357 24.9103 12.2219 24.1614 11.0111C23.2352 9.51373 21.6394 10.1102 20.579 11.024C20.1341 11.4074 20.5124 12.2236 21.0236 11.9033C21.5918 11.5476 22.1744 11.103 22.8264 11.4204C23.6802 11.8361 23.5433 12.853 22.9481 13.5116C21.9436 14.6231 20.496 14.1911 19.638 13.1199C17.6717 10.6653 19.3791 7.29905 21.759 6.45441C24.079 5.63102 26.5907 6.95875 27.5959 9.52078C28.5476 11.9462 27.9529 15.1524 26.3119 16.9536C22.7113 20.9058 16.3617 17.843 15.6296 12.3416C14.8789 6.69997 19.4559 1.79646 24.0766 1.34434C26.636 1.09393 29.0053 2.13588 31.0248 3.90692C32.0478 4.80422 32.8942 5.89157 33.67 7.06814C34.1614 7.81342 34.5331 8.85042 35.1225 9.52629C32.973 11.8998 32.2467 15.9369 34.3127 18.7522C36.3022 21.4631 39.9195 22.2738 42.2053 19.5038C44.427 16.8117 43.4157 11.0399 39.8471 10.727C38.3715 10.5975 36.6851 11.4003 36.4993 13.2784C36.3114 15.1776 37.5951 16.1853 39.075 15.9836C39.5879 15.9136 39.6149 14.9946 39.075 15.0311C38.004 15.1032 36.8017 14.1582 37.5207 12.7881C37.9245 12.0188 38.8314 11.7813 39.5596 11.8414C41.2342 11.9798 42.1884 13.8372 42.2529 15.6411C42.378 19.1462 38.6418 20.8211 36.3414 18.9929C33.7586 16.9404 33.3757 12.9345 35.6387 10.3756C37.9839 7.72385 41.372 8.08487 44.0325 9.88444C46.523 11.5689 48.5835 15.291 47.1446 18.5875Z" stroke="#23F38D" stroke-width="2" mask="url(#path-1-inside-1_1_128)"/>
</g>
</g>
</g>
<g id="rains-2">
<g id="rain14">
<g id="Group_3">
<g id="Vector_2">
<mask id="path-2-inside-2_1_128" fill="white">
<path d="M14.8482 34.388C14.2172 31.6742 11.1342 30.85 9.66398 33.1913C9.02242 34.2128 8.69039 35.9135 9.19034 37.073C9.62481 38.0809 10.7227 38.7628 11.7053 38.7799C13.7133 39.1423 15.4002 36.7624 14.8482 34.388ZM11.5095 37.8416C11.3496 37.7774 11.1877 37.7197 11.0291 37.6525C10.9349 37.6014 10.8409 37.5432 10.7477 37.4748C10.2477 37.1069 9.97046 36.6666 9.854 36.1946C9.72182 35.4699 9.89603 34.6352 10.2345 34.0031C11.2511 32.1048 13.7578 32.7439 14.0261 34.9494C14.2471 36.7633 12.9278 38.1941 11.5095 37.8416Z"/>
</mask>
<path d="M14.8482 34.388C14.2172 31.6742 11.1342 30.85 9.66398 33.1913C9.02242 34.2128 8.69039 35.9135 9.19034 37.073C9.62481 38.0809 10.7227 38.7628 11.7053 38.7799C13.7133 39.1423 15.4002 36.7624 14.8482 34.388ZM11.5095 37.8416C11.3496 37.7774 11.1877 37.7197 11.0291 37.6525C10.9349 37.6014 10.8409 37.5432 10.7477 37.4748C10.2477 37.1069 9.97046 36.6666 9.854 36.1946C9.72182 35.4699 9.89603 34.6352 10.2345 34.0031C11.2511 32.1048 13.7578 32.7439 14.0261 34.9494C14.2471 36.7633 12.9278 38.1941 11.5095 37.8416Z" stroke="#23F38D" stroke-width="2" mask="url(#path-2-inside-2_1_128)"/>
</g>
</g>
</g>
<g id="rain13">
<g id="Group_4">
<g id="Vector_3">
<mask id="path-3-inside-3_1_128" fill="white">
<path d="M24.2911 47.5454C23.6601 44.8315 20.577 44.0074 19.1069 46.3486C18.4653 47.3702 18.1333 49.0708 18.6333 50.2303C19.0677 51.2383 20.1657 51.9202 21.1482 51.9373C23.1561 52.2997 24.8431 49.9198 24.2911 47.5454ZM20.9523 50.999C20.7926 50.9347 20.6306 50.877 20.4719 50.8098C20.3777 50.7588 20.2838 50.7005 20.1906 50.6321C19.6905 50.2643 19.4133 49.8239 19.2969 49.352C19.1648 48.6273 19.339 47.7926 19.6775 47.1605C20.6939 45.2622 23.2007 45.9012 23.4691 48.1068C23.69 49.9207 22.3706 51.3515 20.9523 50.999Z"/>
</mask>
<path d="M24.2911 47.5454C23.6601 44.8315 20.577 44.0074 19.1069 46.3486C18.4653 47.3702 18.1333 49.0708 18.6333 50.2303C19.0677 51.2383 20.1657 51.9202 21.1482 51.9373C23.1561 52.2997 24.8431 49.9198 24.2911 47.5454ZM20.9523 50.999C20.7926 50.9347 20.6306 50.877 20.4719 50.8098C20.3777 50.7588 20.2838 50.7005 20.1906 50.6321C19.6905 50.2643 19.4133 49.8239 19.2969 49.352C19.1648 48.6273 19.339 47.7926 19.6775 47.1605C20.6939 45.2622 23.2007 45.9012 23.4691 48.1068C23.69 49.9207 22.3706 51.3515 20.9523 50.999Z" stroke="#23F38D" stroke-width="2" mask="url(#path-3-inside-3_1_128)"/>
</g>
</g>
</g>
<g id="rain12">
<g id="Group_5">
<g id="Vector_4">
<mask id="path-4-inside-4_1_128" fill="white">
<path d="M40.6334 33.1809C40.0024 30.4671 36.9194 29.6429 35.4492 31.9842C34.8077 33.0058 34.4756 34.7064 34.9756 35.8659C35.4101 36.8738 36.508 37.5558 37.4906 37.5728C39.4984 37.9353 41.1853 35.5552 40.6334 33.1809ZM37.2946 36.6345C37.1349 36.5703 36.9729 36.5126 36.8143 36.4454C36.7202 36.3944 36.6262 36.3361 36.533 36.2677C36.0329 35.8998 35.7557 35.4595 35.6394 34.9876C35.5072 34.2629 35.6814 33.4281 36.0199 32.796C37.0364 30.8977 39.5431 31.5368 39.8115 33.7423C40.0323 35.5562 38.713 36.9871 37.2946 36.6345Z"/>
</mask>
<path d="M40.6334 33.1809C40.0024 30.4671 36.9194 29.6429 35.4492 31.9842C34.8077 33.0058 34.4756 34.7064 34.9756 35.8659C35.4101 36.8738 36.508 37.5558 37.4906 37.5728C39.4984 37.9353 41.1853 35.5552 40.6334 33.1809ZM37.2946 36.6345C37.1349 36.5703 36.9729 36.5126 36.8143 36.4454C36.7202 36.3944 36.6262 36.3361 36.533 36.2677C36.0329 35.8998 35.7557 35.4595 35.6394 34.9876C35.5072 34.2629 35.6814 33.4281 36.0199 32.796C37.0364 30.8977 39.5431 31.5368 39.8115 33.7423C40.0323 35.5562 38.713 36.9871 37.2946 36.6345Z" stroke="#23F38D" stroke-width="2" mask="url(#path-4-inside-4_1_128)"/>
</g>
</g>
</g>
<g id="rain11">
<g id="Group_6">
<g id="Vector_5">
<mask id="path-5-inside-5_1_128" fill="white">
<path d="M42.2519 48.5713C41.6209 45.8575 38.5379 45.0335 37.0677 47.3746C36.4261 48.3962 36.0941 50.0968 36.594 51.2563C37.0285 52.2642 38.1265 52.9462 39.109 52.9632C41.1169 53.3257 42.8039 50.9458 42.2519 48.5713ZM38.9132 52.0251C38.7535 51.9608 38.5914 51.903 38.4329 51.8359C38.3387 51.7849 38.2447 51.7266 38.1515 51.6582C37.6515 51.2904 37.3743 50.85 37.2579 50.3781C37.1257 49.6534 37.2999 48.8187 37.6384 48.1865C38.6549 46.2883 41.1617 46.9273 41.43 49.1329C41.6508 50.9466 40.3315 52.3775 38.9132 52.0251Z"/>
</mask>
<path d="M42.2519 48.5713C41.6209 45.8575 38.5379 45.0335 37.0677 47.3746C36.4261 48.3962 36.0941 50.0968 36.594 51.2563C37.0285 52.2642 38.1265 52.9462 39.109 52.9632C41.1169 53.3257 42.8039 50.9458 42.2519 48.5713ZM38.9132 52.0251C38.7535 51.9608 38.5914 51.903 38.4329 51.8359C38.3387 51.7849 38.2447 51.7266 38.1515 51.6582C37.6515 51.2904 37.3743 50.85 37.2579 50.3781C37.1257 49.6534 37.2999 48.8187 37.6384 48.1865C38.6549 46.2883 41.1617 46.9273 41.43 49.1329C41.6508 50.9466 40.3315 52.3775 38.9132 52.0251Z" stroke="#23F38D" stroke-width="2" mask="url(#path-5-inside-5_1_128)"/>
</g>
</g>
</g>
<g id="rain10">
<g id="Group_7">
<g id="Vector_6">
<mask id="path-6-inside-6_1_128" fill="white">
<path d="M29.9319 33.1809C29.3009 30.4671 26.218 29.6429 24.7477 31.9842C24.1061 33.0058 23.7741 34.7064 24.274 35.8659C24.7085 36.8738 25.8064 37.5558 26.789 37.5728C28.797 37.9353 30.4839 35.5552 29.9319 33.1809ZM26.5932 36.6345C26.4334 36.5703 26.2714 36.5125 26.1128 36.4454C26.0186 36.3944 25.9246 36.3361 25.8314 36.2677C25.3313 35.8998 25.0542 35.4595 24.9378 34.9876C24.8056 34.2629 24.9798 33.4281 25.3183 32.796C26.3348 30.8977 28.8416 31.5368 29.1099 33.7423C29.3308 35.5562 28.0115 36.9871 26.5932 36.6345Z"/>
</mask>
<path d="M29.9319 33.1809C29.3009 30.4671 26.218 29.6429 24.7477 31.9842C24.1061 33.0058 23.7741 34.7064 24.274 35.8659C24.7085 36.8738 25.8064 37.5558 26.789 37.5728C28.797 37.9353 30.4839 35.5552 29.9319 33.1809ZM26.5932 36.6345C26.4334 36.5703 26.2714 36.5125 26.1128 36.4454C26.0186 36.3944 25.9246 36.3361 25.8314 36.2677C25.3313 35.8998 25.0542 35.4595 24.9378 34.9876C24.8056 34.2629 24.9798 33.4281 25.3183 32.796C26.3348 30.8977 28.8416 31.5368 29.1099 33.7423C29.3308 35.5562 28.0115 36.9871 26.5932 36.6345Z" stroke="#23F38D" stroke-width="2" mask="url(#path-6-inside-6_1_128)"/>
</g>
</g>
</g>
<g id="rain9">
<g id="Group_8">
<g id="Vector_7">
<mask id="path-7-inside-7_1_128" fill="white">
<path d="M12.8991 47.3788C12.4766 45.5614 10.4121 45.0095 9.42756 46.5775C8.99795 47.2615 8.77561 48.4004 9.1104 49.1768C9.40135 49.8517 10.1366 50.3084 10.7945 50.3198C12.1391 50.5626 13.2688 48.9687 12.8991 47.3788ZM10.6633 49.6917C10.5563 49.6485 10.4478 49.6099 10.3416 49.565C10.2785 49.5308 10.2156 49.4918 10.1532 49.4459C9.81829 49.1995 9.63264 48.9046 9.55478 48.5887C9.46625 48.1034 9.5829 47.5444 9.80962 47.121C10.4903 45.8499 12.169 46.2778 12.3487 47.7549C12.4966 48.9694 11.6132 49.9276 10.6633 49.6917Z"/>
</mask>
<path d="M12.8991 47.3788C12.4766 45.5614 10.4121 45.0095 9.42756 46.5775C8.99795 47.2615 8.77561 48.4004 9.1104 49.1768C9.40135 49.8517 10.1366 50.3084 10.7945 50.3198C12.1391 50.5626 13.2688 48.9687 12.8991 47.3788ZM10.6633 49.6917C10.5563 49.6485 10.4478 49.6099 10.3416 49.565C10.2785 49.5308 10.2156 49.4918 10.1532 49.4459C9.81829 49.1995 9.63264 48.9046 9.55478 48.5887C9.46625 48.1034 9.5829 47.5444 9.80962 47.121C10.4903 45.8499 12.169 46.2778 12.3487 47.7549C12.4966 48.9694 11.6132 49.9276 10.6633 49.6917Z" stroke="#23F38D" stroke-width="2" mask="url(#path-7-inside-7_1_128)"/>
</g>
</g>
</g>
<g id="rain8">
<g id="Group_9">
<g id="Vector_8">
<mask id="path-8-inside-8_1_128" fill="white">
<path d="M6.8443 29.5494C6.42184 27.7321 4.35726 27.1802 3.37271 28.748C2.9431 29.4322 2.72077 30.571 3.05556 31.3475C3.34651 32.0223 4.08175 32.479 4.7397 32.4904C6.08429 32.7332 7.21397 31.1393 6.8443 29.5494ZM4.60856 31.8621C4.50154 31.8191 4.39309 31.7805 4.28693 31.7356C4.22384 31.7014 4.16094 31.6624 4.09852 31.6165C3.76363 31.3701 3.57799 31.0752 3.50004 30.7593C3.4116 30.2739 3.52824 29.715 3.75487 29.2916C4.4356 28.0205 6.11421 28.4484 6.29395 29.9254C6.44185 31.14 5.55842 32.0983 4.60856 31.8621Z"/>
</mask>
<path d="M6.8443 29.5494C6.42184 27.7321 4.35726 27.1802 3.37271 28.748C2.9431 29.4322 2.72077 30.571 3.05556 31.3475C3.34651 32.0223 4.08175 32.479 4.7397 32.4904C6.08429 32.7332 7.21397 31.1393 6.8443 29.5494ZM4.60856 31.8621C4.50154 31.8191 4.39309 31.7805 4.28693 31.7356C4.22384 31.7014 4.16094 31.6624 4.09852 31.6165C3.76363 31.3701 3.57799 31.0752 3.50004 30.7593C3.4116 30.2739 3.52824 29.715 3.75487 29.2916C4.4356 28.0205 6.11421 28.4484 6.29395 29.9254C6.44185 31.14 5.55842 32.0983 4.60856 31.8621Z" stroke="#23F38D" stroke-width="2" mask="url(#path-8-inside-8_1_128)"/>
</g>
</g>
</g>
<g id="rain7">
<g id="Group_10">
<g id="Vector_9">
<mask id="path-9-inside-9_1_128" fill="white">
<path d="M48.2999 36.6565C47.8774 34.8392 45.8128 34.2874 44.8283 35.8552C44.3987 36.5392 44.1763 37.6781 44.5111 38.4545C44.8021 39.1294 45.5373 39.5862 46.1953 39.5976C47.5398 39.8403 48.6695 38.2464 48.2999 36.6565ZM46.0641 38.9693C45.9572 38.9263 45.8486 38.8876 45.7425 38.8426C45.6794 38.8085 45.6165 38.7695 45.5541 38.7236C45.2192 38.4773 45.0335 38.1824 44.9556 37.8663C44.8672 37.3811 44.9838 36.8221 45.2104 36.3988C45.8911 35.1276 47.5698 35.5556 47.7495 37.0326C47.8974 38.2472 47.0139 39.2053 46.0641 38.9693Z"/>
</mask>
<path d="M48.2999 36.6565C47.8774 34.8392 45.8128 34.2874 44.8283 35.8552C44.3987 36.5392 44.1763 37.6781 44.5111 38.4545C44.8021 39.1294 45.5373 39.5862 46.1953 39.5976C47.5398 39.8403 48.6695 38.2464 48.2999 36.6565ZM46.0641 38.9693C45.9572 38.9263 45.8486 38.8876 45.7425 38.8426C45.6794 38.8085 45.6165 38.7695 45.5541 38.7236C45.2192 38.4773 45.0335 38.1824 44.9556 37.8663C44.8672 37.3811 44.9838 36.8221 45.2104 36.3988C45.8911 35.1276 47.5698 35.5556 47.7495 37.0326C47.8974 38.2472 47.0139 39.2053 46.0641 38.9693Z" stroke="#23F38D" stroke-width="2" mask="url(#path-9-inside-9_1_128)"/>
</g>
</g>
</g>
</g>
<g id="rains-1">
<g id="rain6">
<g id="Group_11">
<g id="Vector_10">
<mask id="path-10-inside-10_1_128" fill="white">
<path d="M18.9047 41.464C18.4821 39.6467 16.4177 39.0947 15.4331 40.6627C15.0035 41.3467 14.7812 42.4856 15.1159 43.262C15.4069 43.9369 16.1421 44.3936 16.8001 44.405C18.1446 44.6479 19.2743 43.054 18.9047 41.464ZM16.6689 43.7769C16.5618 43.7337 16.4534 43.6951 16.3472 43.6502C16.2841 43.616 16.2212 43.5769 16.1588 43.5311C15.8239 43.2847 15.6383 42.9898 15.5603 42.6739C15.4719 42.1886 15.5885 41.6296 15.8152 41.2062C16.4959 39.9351 18.1745 40.363 18.3542 41.84C18.5022 43.0546 17.6187 44.0128 16.6689 43.7769Z"/>
</mask>
<path d="M18.9047 41.464C18.4821 39.6467 16.4177 39.0947 15.4331 40.6627C15.0035 41.3467 14.7812 42.4856 15.1159 43.262C15.4069 43.9369 16.1421 44.3936 16.8001 44.405C18.1446 44.6479 19.2743 43.054 18.9047 41.464ZM16.6689 43.7769C16.5618 43.7337 16.4534 43.6951 16.3472 43.6502C16.2841 43.616 16.2212 43.5769 16.1588 43.5311C15.8239 43.2847 15.6383 42.9898 15.5603 42.6739C15.4719 42.1886 15.5885 41.6296 15.8152 41.2062C16.4959 39.9351 18.1745 40.363 18.3542 41.84C18.5022 43.0546 17.6187 44.0128 16.6689 43.7769Z" stroke="#23F38D" stroke-width="2" mask="url(#path-10-inside-10_1_128)"/>
</g>
</g>
</g>
<g id="rain5">
<g id="Group_12">
<g id="Vector_11">
<mask id="path-11-inside-11_1_128" fill="white">
<path d="M48.2999 44.354C47.8774 42.5366 45.8128 41.9848 44.8283 43.5526C44.3987 44.2366 44.1763 45.3755 44.5111 46.152C44.8021 46.8269 45.5373 47.2835 46.1953 47.2951C47.5398 47.5378 48.6695 45.9439 48.2999 44.354ZM46.0641 46.6668C45.9572 46.6237 45.8486 46.5851 45.7425 46.5401C45.6794 46.506 45.6165 46.467 45.5541 46.421C45.2192 46.1748 45.0335 45.8798 44.9556 45.5638C44.8672 45.0785 44.9838 44.5196 45.2104 44.0963C45.8911 42.8251 47.5698 43.2531 47.7495 44.7301C47.8974 45.9447 47.0139 46.9028 46.0641 46.6668Z"/>
</mask>
<path d="M48.2999 44.354C47.8774 42.5366 45.8128 41.9848 44.8283 43.5526C44.3987 44.2366 44.1763 45.3755 44.5111 46.152C44.8021 46.8269 45.5373 47.2835 46.1953 47.2951C47.5398 47.5378 48.6695 45.9439 48.2999 44.354ZM46.0641 46.6668C45.9572 46.6237 45.8486 46.5851 45.7425 46.5401C45.6794 46.506 45.6165 46.467 45.5541 46.421C45.2192 46.1748 45.0335 45.8798 44.9556 45.5638C44.8672 45.0785 44.9838 44.5196 45.2104 44.0963C45.8911 42.8251 47.5698 43.2531 47.7495 44.7301C47.8974 45.9447 47.0139 46.9028 46.0641 46.6668Z" stroke="#23F38D" stroke-width="2" mask="url(#path-11-inside-11_1_128)"/>
</g>
</g>
</g>
<g id="rain4">
<g id="Group_13">
<g id="Vector_12">
<mask id="path-12-inside-12_1_128" fill="white">
<path d="M33.2605 43.8069C32.838 41.9896 30.7735 41.4376 29.7889 43.0054C29.3593 43.6897 29.137 44.8284 29.4718 45.6049C29.7627 46.2797 30.498 46.7365 31.1559 46.7479C32.5005 46.9906 33.6302 45.3968 33.2605 43.8069ZM31.0248 46.1196C30.9178 46.0766 30.8093 46.0379 30.7031 45.993C30.64 45.9589 30.5771 45.9198 30.5147 45.874C30.1798 45.6276 29.9942 45.3327 29.9162 45.0168C29.8278 44.5314 29.9445 43.9725 30.1711 43.5491C30.8518 42.278 32.5304 42.7059 32.7102 44.1828C32.8581 45.3975 31.9746 46.3557 31.0248 46.1196Z"/>
</mask>
<path d="M33.2605 43.8069C32.838 41.9896 30.7735 41.4376 29.7889 43.0054C29.3593 43.6897 29.137 44.8284 29.4718 45.6049C29.7627 46.2797 30.498 46.7365 31.1559 46.7479C32.5005 46.9906 33.6302 45.3968 33.2605 43.8069ZM31.0248 46.1196C30.9178 46.0766 30.8093 46.0379 30.7031 45.993C30.64 45.9589 30.5771 45.9198 30.5147 45.874C30.1798 45.6276 29.9942 45.3327 29.9162 45.0168C29.8278 44.5314 29.9445 43.9725 30.1711 43.5491C30.8518 42.278 32.5304 42.7059 32.7102 44.1828C32.8581 45.3975 31.9746 46.3557 31.0248 46.1196Z" stroke="#23F38D" stroke-width="2" mask="url(#path-12-inside-12_1_128)"/>
</g>
</g>
</g>
<g id="rain3">
<g id="Group_14">
<g id="Vector_13">
<mask id="path-13-inside-13_1_128" fill="white">
<path d="M46.2887 28.3032C45.8661 26.4859 43.8017 25.934 42.8171 27.5019C42.3875 28.1859 42.1652 29.3248 42.4999 30.1012C42.791 30.7761 43.5261 31.2328 44.1842 31.2442C45.5286 31.487 46.6584 29.8932 46.2887 28.3032ZM44.0529 30.616C43.9458 30.5729 43.8374 30.5343 43.7312 30.4894C43.6681 30.4552 43.6052 30.4161 43.5428 30.3703C43.2079 30.1238 43.0223 29.829 42.9443 29.5131C42.8559 29.0278 42.9725 28.4688 43.1992 28.0454C43.8798 26.7743 45.5585 27.2023 45.7382 28.6793C45.8862 29.8938 45.0027 30.852 44.0529 30.616Z"/>
</mask>
<path d="M46.2887 28.3032C45.8661 26.4859 43.8017 25.934 42.8171 27.5019C42.3875 28.1859 42.1652 29.3248 42.4999 30.1012C42.791 30.7761 43.5261 31.2328 44.1842 31.2442C45.5286 31.487 46.6584 29.8932 46.2887 28.3032ZM44.0529 30.616C43.9458 30.5729 43.8374 30.5343 43.7312 30.4894C43.6681 30.4552 43.6052 30.4161 43.5428 30.3703C43.2079 30.1238 43.0223 29.829 42.9443 29.5131C42.8559 29.0278 42.9725 28.4688 43.1992 28.0454C43.8798 26.7743 45.5585 27.2023 45.7382 28.6793C45.8862 29.8938 45.0027 30.852 44.0529 30.616Z" stroke="#23F38D" stroke-width="2" mask="url(#path-13-inside-13_1_128)"/>
</g>
</g>
</g>
<g id="rain2">
<g id="Group_15">
<g id="Vector_14">
<mask id="path-14-inside-14_1_128" fill="white">
<path d="M20.7039 30.2912C20.2813 28.4738 18.2169 27.9221 17.2323 29.4899C16.8027 30.1739 16.5804 31.3128 16.9152 32.0893C17.206 32.7641 17.9412 33.2208 18.5992 33.2324C19.9438 33.4751 21.0736 31.8812 20.7039 30.2912ZM18.468 32.6042C18.3609 32.5611 18.2525 32.5226 18.1462 32.4775C18.0831 32.4433 18.0203 32.4043 17.9578 32.3584C17.6229 32.1122 17.4373 31.8172 17.3594 31.5012C17.271 31.0158 17.3876 30.4568 17.6144 30.0336C18.2951 28.7624 19.9737 29.1904 20.1534 30.6674C20.3013 31.882 19.4178 32.8402 18.468 32.6042Z"/>
</mask>
<path d="M20.7039 30.2912C20.2813 28.4738 18.2169 27.9221 17.2323 29.4899C16.8027 30.1739 16.5804 31.3128 16.9152 32.0893C17.206 32.7641 17.9412 33.2208 18.5992 33.2324C19.9438 33.4751 21.0736 31.8812 20.7039 30.2912ZM18.468 32.6042C18.3609 32.5611 18.2525 32.5226 18.1462 32.4775C18.0831 32.4433 18.0203 32.4043 17.9578 32.3584C17.6229 32.1122 17.4373 31.8172 17.3594 31.5012C17.271 31.0158 17.3876 30.4568 17.6144 30.0336C18.2951 28.7624 19.9737 29.1904 20.1534 30.6674C20.3013 31.882 19.4178 32.8402 18.468 32.6042Z" stroke="#23F38D" stroke-width="2" mask="url(#path-14-inside-14_1_128)"/>
</g>
</g>
</g>
<g id="rain1">
<g id="Group_16">
<g id="Vector_15">
<mask id="path-15-inside-15_1_128" fill="white">
<path d="M6.8443 41.2156C6.42184 39.3982 4.35726 38.8463 3.37271 40.4142C2.9431 41.0983 2.72077 42.2372 3.05556 43.0136C3.34651 43.6885 4.08175 44.1451 4.7397 44.1567C6.08429 44.3994 7.21397 42.8055 6.8443 41.2156ZM4.60856 43.5284C4.50154 43.4853 4.39309 43.4468 4.28693 43.4017C4.22384 43.3676 4.16094 43.3286 4.09852 43.2826C3.76363 43.0364 3.57799 42.7415 3.50004 42.4254C3.4116 41.9402 3.52824 41.3812 3.75487 40.9579C4.4356 39.6867 6.11421 40.1147 6.29395 41.5917C6.44185 42.8063 5.55842 43.7644 4.60856 43.5284Z"/>
</mask>
<path d="M6.8443 41.2156C6.42184 39.3982 4.35726 38.8463 3.37271 40.4142C2.9431 41.0983 2.72077 42.2372 3.05556 43.0136C3.34651 43.6885 4.08175 44.1451 4.7397 44.1567C6.08429 44.3994 7.21397 42.8055 6.8443 41.2156ZM4.60856 43.5284C4.50154 43.4853 4.39309 43.4468 4.28693 43.4017C4.22384 43.3676 4.16094 43.3286 4.09852 43.2826C3.76363 43.0364 3.57799 42.7415 3.50004 42.4254C3.4116 41.9402 3.52824 41.3812 3.75487 40.9579C4.4356 39.6867 6.11421 40.1147 6.29395 41.5917C6.44185 42.8063 5.55842 43.7644 4.60856 43.5284Z" stroke="#23F38D" stroke-width="2" mask="url(#path-15-inside-15_1_128)"/>
</g>
</g>
</g>
</g>
</g>
</svg>
