<svg width="15" height="15" viewBox="0 0 15 15" fill="none" xmlns="http://www.w3.org/2000/svg">
<g clip-path="url(#clip0_1_372)">
<path d="M9.80847 5.00983L6.49462 3.19663C6.30408 3.09237 6.07886 3.09626 5.8921 3.20693C5.70521 3.31771 5.59375 3.5134 5.59375 3.73061V7.32588C5.59375 7.54206 5.70453 7.73741 5.89015 7.84831C5.98708 7.90621 6.09454 7.93528 6.20223 7.93528C6.30088 7.93528 6.39975 7.91091 6.49073 7.86193L9.8047 6.07997C10.0014 5.97411 10.1242 5.7696 10.1251 5.5461C10.1259 5.3226 10.0046 5.11717 9.80847 5.00983ZM6.47277 6.87361V4.18654L8.94948 5.54175L6.47277 6.87361Z" fill="white" fill-opacity="0.35"/>
<path d="M14.8896 2.68147L14.8889 2.6746C14.8762 2.55386 14.7498 1.47995 14.2277 0.933723C13.6243 0.291252 12.9401 0.213203 12.6111 0.175781C12.5839 0.172691 12.5589 0.16983 12.5366 0.166855L12.5104 0.164108C10.5274 0.0199127 7.53259 0.000228882 7.5026 0.000114441L7.49997 0L7.49734 0.000114441C7.46735 0.000228882 4.47256 0.0199127 2.47169 0.164108L2.44525 0.166855C2.42396 0.169716 2.4005 0.172348 2.37498 0.175323C2.04974 0.21286 1.37294 0.291023 0.767781 0.956726C0.270537 1.49712 0.1268 2.54803 0.112037 2.66613L0.110321 2.68147C0.105857 2.7317 0 3.92773 0 5.12844V6.25088C0 7.45159 0.105857 8.64761 0.110321 8.69797L0.111122 8.70552C0.123825 8.82431 0.250167 9.87854 0.769841 10.425C1.33724 11.046 2.05466 11.1281 2.44056 11.1723C2.50155 11.1793 2.55408 11.1852 2.5899 11.1915L2.62458 11.1963C3.76955 11.3053 7.35944 11.3589 7.51164 11.3611L7.51622 11.3612L7.5208 11.3611C7.55078 11.361 10.5455 11.3413 12.5285 11.1971L12.5547 11.1944C12.5798 11.1911 12.6079 11.1881 12.6388 11.1849C12.9622 11.1506 13.6354 11.0793 14.2322 10.4226C14.7294 9.88209 14.8733 8.83118 14.8879 8.71319L14.8896 8.69785C14.8941 8.6475 15.0001 7.45159 15.0001 6.25088V5.12844C14.9999 3.92773 14.8941 2.73182 14.8896 2.68147ZM14.1209 6.25088C14.1209 7.36221 14.0239 8.50674 14.0147 8.61179C13.9774 8.90121 13.8258 9.56612 13.5835 9.82944C13.21 10.2404 12.8263 10.2811 12.5461 10.3108C12.5122 10.3143 12.4809 10.3178 12.4525 10.3213C10.5345 10.46 7.65275 10.4813 7.52 10.4821C7.37111 10.4799 3.83376 10.4258 2.72368 10.3227C2.66681 10.3134 2.60535 10.3063 2.54058 10.299C2.21202 10.2613 1.76227 10.2098 1.41643 9.82944L1.4083 9.82075C1.17027 9.57275 1.02298 8.951 0.985561 8.61523C0.97858 8.5358 0.879017 7.37778 0.879017 6.25088V5.12844C0.879017 4.01836 0.975834 2.8751 0.985218 2.76787C1.02974 2.42695 1.18423 1.80233 1.41643 1.54987C1.80141 1.12644 2.20733 1.07952 2.47581 1.04851C2.50144 1.04553 2.52536 1.04279 2.54744 1.03992C4.49339 0.900536 7.39583 0.879822 7.49997 0.879021C7.60411 0.879707 10.5055 0.900536 12.4342 1.03992C12.4579 1.0429 12.4837 1.04588 12.5115 1.04908C12.7877 1.08055 13.2051 1.12816 13.5881 1.53671L13.5916 1.54049C13.8297 1.78848 13.977 2.42111 14.0144 2.76363C14.021 2.83859 14.1209 3.99914 14.1209 5.12844V6.25088Z" fill="white" fill-opacity="0.35"/>
</g>
<defs>
<clipPath id="clip0_1_372">
<rect width="15" height="15" fill="white"/>
</clipPath>
</defs>
</svg>
